<mxfile host="Electron" agent="Mozilla/5.0 (Macintosh; Intel Mac OS X 10_15_7) AppleWebKit/537.36 (KHTML, like Gecko) draw.io/24.7.5 Chrome/126.0.6478.183 Electron/31.3.0 Safari/537.36" version="24.7.5" pages="5">
  <diagram id="pzp2v1ahhBAfOaCNUCo-" name="ontology">
    <mxGraphModel dx="398" dy="237" grid="1" gridSize="10" guides="1" tooltips="1" connect="1" arrows="1" fold="1" page="1" pageScale="1" pageWidth="850" pageHeight="1100" math="0" shadow="0">
      <root>
        <mxCell id="0" />
        <mxCell id="1" parent="0" />
        <mxCell id="oXwt1U74XXn5uIL4hFVP-4" value="ys:sourceDatastore" style="edgeStyle=orthogonalEdgeStyle;rounded=0;orthogonalLoop=1;jettySize=auto;html=1;exitX=0.3;exitY=1;exitDx=0;exitDy=0;entryX=0.2;entryY=1;entryDx=0;entryDy=0;fontSize=13;" parent="1" source="oXwt1U74XXn5uIL4hFVP-1" target="jV4g5ascm6t2pEnRygof-3" edge="1">
          <mxGeometry x="-0.5831" y="-1" relative="1" as="geometry">
            <mxPoint x="625" y="474" as="sourcePoint" />
            <mxPoint x="789" y="499" as="targetPoint" />
            <Array as="points">
              <mxPoint x="443" y="540" />
              <mxPoint x="801" y="540" />
            </Array>
            <mxPoint as="offset" />
          </mxGeometry>
        </mxCell>
        <mxCell id="xW2krMNUQVf9Xm74qsXm-1" value="" style="rounded=0;whiteSpace=wrap;html=1;rotation=90;fontFamily=Helvetica;" parent="1" vertex="1">
          <mxGeometry x="370.57" y="-136.39999999999998" width="142.85" height="477.01" as="geometry" />
        </mxCell>
        <mxCell id="xW2krMNUQVf9Xm74qsXm-2" value="YANG Server" style="rounded=0;whiteSpace=wrap;html=1;fillColor=#d5e8d4;strokeColor=#82b366;fontFamily=Helvetica;" parent="1" vertex="1">
          <mxGeometry x="521.5000000000002" y="81.28999999999996" width="138.5" height="30" as="geometry" />
        </mxCell>
        <mxCell id="xW2krMNUQVf9Xm74qsXm-3" value="Class" style="rounded=0;whiteSpace=wrap;html=1;fontFamily=Helvetica;" parent="1" vertex="1">
          <mxGeometry x="220.36000000000018" y="61.30000000000011" width="139.5" height="30" as="geometry" />
        </mxCell>
        <mxCell id="xW2krMNUQVf9Xm74qsXm-4" value="Data Property: datatype" style="rounded=0;whiteSpace=wrap;html=1;fontFamily=Helvetica;" parent="1" vertex="1">
          <mxGeometry x="220.36000000000018" y="91.3" width="139.5" height="30" as="geometry" />
        </mxCell>
        <mxCell id="xW2krMNUQVf9Xm74qsXm-5" value="Object Property" style="endArrow=classic;html=1;rounded=0;labelPosition=right;verticalLabelPosition=bottom;align=center;verticalAlign=middle;fontFamily=Helvetica;" parent="1" edge="1">
          <mxGeometry width="50" height="50" relative="1" as="geometry">
            <mxPoint x="372.1800000000002" y="92.28999999999998" as="sourcePoint" />
            <mxPoint x="510.6800000000002" y="92.28999999999998" as="targetPoint" />
            <mxPoint as="offset" />
          </mxGeometry>
        </mxCell>
        <mxCell id="xW2krMNUQVf9Xm74qsXm-6" value="subClassOf" style="endArrow=block;html=1;fontColor=#000000;endFill=0;endSize=8;arcSize=0;rounded=0;fontFamily=Helvetica;" parent="1" edge="1">
          <mxGeometry width="50" height="50" relative="1" as="geometry">
            <mxPoint x="372.1800000000002" y="110.57000000000018" as="sourcePoint" />
            <mxPoint x="510.6800000000002" y="110.28999999999998" as="targetPoint" />
          </mxGeometry>
        </mxCell>
        <mxCell id="xW2krMNUQVf9Xm74qsXm-7" value="&lt;b style=&quot;font-size: 10px;&quot;&gt;&lt;font data-font-src=&quot;https://fonts.googleapis.com/css?family=Roboto+Condensed&quot;&gt;Legend&lt;/font&gt;&lt;/b&gt;" style="text;html=1;strokeColor=none;fillColor=none;align=center;verticalAlign=middle;whiteSpace=wrap;rounded=0;fontSize=10;fontFamily=Helvetica;" parent="1" vertex="1">
          <mxGeometry x="208.86000000000018" y="31.29000000000012" width="50" height="20" as="geometry" />
        </mxCell>
        <mxCell id="xW2krMNUQVf9Xm74qsXm-8" value="&lt;u&gt;Individual&lt;/u&gt;" style="rounded=0;whiteSpace=wrap;html=1;fontFamily=Helvetica;" parent="1" vertex="1">
          <mxGeometry x="220.36000000000018" y="131.58999999999997" width="138.5" height="30" as="geometry" />
        </mxCell>
        <mxCell id="xW2krMNUQVf9Xm74qsXm-9" value="&lt;div&gt;&lt;b&gt;dc:title&lt;/b&gt;: YANG Server Ontology&lt;br&gt;&lt;/div&gt;&lt;div&gt;&lt;b&gt;dc:created&lt;/b&gt;: &quot;2024-07-29&quot;^^xsd:date&lt;/div&gt;&lt;div&gt;&lt;b&gt;dc:creator:&lt;/b&gt;&amp;nbsp;Ignacio Dominguez Martinez-Casanueva&lt;br&gt;&lt;/div&gt;&lt;div&gt;&lt;b&gt;owl:versionInfo&lt;/b&gt;: 1.4.0&lt;br&gt;&lt;/div&gt;" style="shape=document;whiteSpace=wrap;html=1;boundedLbl=1;labelBackgroundColor=#ffffff;strokeColor=#000000;fontSize=12;fontColor=#000000;size=0.13333333333333333;align=left;spacingLeft=10;" parent="1" vertex="1">
          <mxGeometry x="1043.78" y="84.31" width="320" height="80" as="geometry" />
        </mxCell>
        <mxCell id="xW2krMNUQVf9Xm74qsXm-10" value="Reused Class" style="rounded=0;whiteSpace=wrap;html=1;fillColor=#f5f5f5;strokeColor=#666666;fontFamily=Helvetica;fontColor=#333333;" parent="1" vertex="1">
          <mxGeometry x="521.5000000000002" y="119.29999999999994" width="138.5" height="30" as="geometry" />
        </mxCell>
        <mxCell id="xW2krMNUQVf9Xm74qsXm-11" value="&lt;div style=&quot;border-color: var(--border-color);&quot;&gt;&lt;b style=&quot;border-color: var(--border-color);&quot;&gt;ys&lt;/b&gt;:&amp;nbsp;&lt;span style=&quot;white-space: pre;&quot;&gt;&lt;font style=&quot;&quot; face=&quot;Helvetica&quot;&gt;https://w3id.org/yang/server#&lt;/font&gt;&lt;/span&gt;&lt;/div&gt;&lt;div style=&quot;border-color: var(--border-color);&quot;&gt;&lt;b style=&quot;background-color: initial; border-color: var(--border-color);&quot;&gt;dcterms:&amp;nbsp;&lt;/b&gt;&lt;span style=&quot;background-color: initial;&quot;&gt;http://purl.org/dc/terms/&lt;/span&gt;&lt;/div&gt;&lt;div style=&quot;border-color: var(--border-color);&quot;&gt;&lt;b&gt;qudt:&amp;nbsp;&lt;/b&gt;&lt;span style=&quot;white-space: pre;&quot;&gt;&lt;font face=&quot;Helvetica&quot;&gt;http://qudt.org/2.1/schema/qudt#&lt;/font&gt;&lt;/span&gt;&lt;/div&gt;&lt;b style=&quot;border-color: var(--border-color);&quot;&gt;&lt;div style=&quot;&quot;&gt;&lt;/div&gt;&lt;/b&gt;" style="shape=note;whiteSpace=wrap;html=1;backgroundOutline=1;darkOpacity=0.05;size=13;align=left;spacingLeft=10;" parent="1" vertex="1">
          <mxGeometry x="706.21" y="84.31" width="310" height="70" as="geometry" />
        </mxCell>
        <mxCell id="jV4g5ascm6t2pEnRygof-19" value="ys:datastore" style="edgeStyle=orthogonalEdgeStyle;rounded=0;orthogonalLoop=1;jettySize=auto;html=1;exitX=0.5;exitY=1;exitDx=0;exitDy=0;fontSize=13;" parent="1" source="xW2krMNUQVf9Xm74qsXm-12" target="jV4g5ascm6t2pEnRygof-3" edge="1">
          <mxGeometry relative="1" as="geometry" />
        </mxCell>
        <mxCell id="xW2krMNUQVf9Xm74qsXm-12" value="&lt;div style=&quot;font-size: 13px;&quot;&gt;ys:endpoint: xsd:string&lt;/div&gt;&lt;div style=&quot;font-size: 13px;&quot;&gt;&lt;span style=&quot;background-color: initial; font-size: 13px;&quot;&gt;ys:username: xsd:string&lt;/span&gt;&lt;br style=&quot;font-size: 13px;&quot;&gt;&lt;/div&gt;&lt;div style=&quot;font-size: 13px;&quot;&gt;&lt;span style=&quot;background-color: initial; font-size: 13px;&quot;&gt;ys:password: xsd:string&lt;/span&gt;&lt;/div&gt;" style="rounded=0;whiteSpace=wrap;html=1;snapToPoint=1;points=[[0.1,0],[0.2,0],[0.3,0],[0.4,0],[0.5,0],[0.6,0],[0.7,0],[0.8,0],[0.9,0],[0,0.1],[0,0.3],[0,0.5],[0,0.7],[0,0.9],[0.1,1],[0.2,1],[0.3,1],[0.4,1],[0.5,1],[0.6,1],[0.7,1],[0.8,1],[0.9,1],[1,0.1],[1,0.3],[1,0.5],[1,0.7],[1,0.9]];align=left;spacingLeft=10;fontSize=13;" parent="1" vertex="1">
          <mxGeometry x="750" y="354.61" width="159.32" height="60" as="geometry" />
        </mxCell>
        <mxCell id="xW2krMNUQVf9Xm74qsXm-14" value="ys:YangServer" style="rounded=0;whiteSpace=wrap;html=1;snapToPoint=1;points=[[0.1,0],[0.2,0],[0.3,0],[0.4,0],[0.5,0],[0.6,0],[0.7,0],[0.8,0],[0.9,0],[0,0.1],[0,0.3],[0,0.5],[0,0.7],[0,0.9],[0.1,1],[0.2,1],[0.3,1],[0.4,1],[0.5,1],[0.6,1],[0.7,1],[0.8,1],[0.9,1],[1,0.1],[1,0.3],[1,0.5],[1,0.7],[1,0.9]];fillColor=#d5e8d4;strokeColor=#82b366;fontSize=13;" parent="1" vertex="1">
          <mxGeometry x="750" y="324.61" width="159.32" height="30" as="geometry" />
        </mxCell>
        <mxCell id="xW2krMNUQVf9Xm74qsXm-28" value="" style="endArrow=block;html=1;fontColor=#000099;endFill=0;entryX=0.7;entryY=0;entryDx=0;entryDy=0;endSize=8;arcSize=0;rounded=0;edgeStyle=orthogonalEdgeStyle;exitX=0;exitY=0.5;exitDx=0;exitDy=0;fontSize=13;" parent="1" source="xW2krMNUQVf9Xm74qsXm-32" target="xW2krMNUQVf9Xm74qsXm-14" edge="1">
          <mxGeometry width="50" height="50" relative="1" as="geometry">
            <mxPoint x="943.7099999999999" y="369.33" as="sourcePoint" />
            <mxPoint x="1099.71" y="416.33" as="targetPoint" />
            <Array as="points">
              <mxPoint x="862" y="215" />
              <mxPoint x="862" y="325" />
            </Array>
          </mxGeometry>
        </mxCell>
        <mxCell id="xW2krMNUQVf9Xm74qsXm-36" value="&lt;span style=&quot;color: rgb(0, 0, 0); font-size: 11px;&quot;&gt;rdf:type&lt;/span&gt;" style="endArrow=open;html=1;rounded=0;labelPosition=right;verticalLabelPosition=bottom;align=center;verticalAlign=middle;fontFamily=Helvetica;dashed=1;strokeColor=default;fontSize=8;fontColor=#000099;labelBackgroundColor=default;endFill=0;endSize=8;" parent="1" edge="1">
          <mxGeometry width="50" height="50" relative="1" as="geometry">
            <mxPoint x="372.1800000000002" y="128.28999999999996" as="sourcePoint" />
            <mxPoint x="510.6800000000002" y="128.28999999999996" as="targetPoint" />
            <mxPoint as="offset" />
          </mxGeometry>
        </mxCell>
        <mxCell id="heDRhFuer21fgATEcs1a-4" value="ys:netconfCapability" style="edgeStyle=orthogonalEdgeStyle;rounded=0;orthogonalLoop=1;jettySize=auto;html=1;exitX=0.5;exitY=1;exitDx=0;exitDy=0;entryX=0.5;entryY=0;entryDx=0;entryDy=0;fontSize=13;" parent="1" source="jV4g5ascm6t2pEnRygof-1" target="0p76iwh5f3bbjIwd35gd-2" edge="1">
          <mxGeometry relative="1" as="geometry">
            <Array as="points" />
            <mxPoint as="offset" />
            <mxPoint x="1010.3899999999999" y="364.45" as="sourcePoint" />
            <mxPoint x="1065.42" y="258.12" as="targetPoint" />
          </mxGeometry>
        </mxCell>
        <mxCell id="jV4g5ascm6t2pEnRygof-1" value="&lt;div style=&quot;font-size: 13px;&quot;&gt;ys:hostKeyVerification: xsd:boolean&lt;/div&gt;" style="rounded=0;whiteSpace=wrap;html=1;snapToPoint=1;points=[[0.1,0],[0.2,0],[0.3,0],[0.4,0],[0.5,0],[0.6,0],[0.7,0],[0.8,0],[0.9,0],[0,0.1],[0,0.3],[0,0.5],[0,0.7],[0,0.9],[0.1,1],[0.2,1],[0.3,1],[0.4,1],[0.5,1],[0.6,1],[0.7,1],[0.8,1],[0.9,1],[1,0.1],[1,0.3],[1,0.5],[1,0.7],[1,0.9]];align=left;spacingLeft=10;fontSize=13;" parent="1" vertex="1">
          <mxGeometry x="904.53" y="229.99" width="230.94" height="30" as="geometry" />
        </mxCell>
        <mxCell id="xW2krMNUQVf9Xm74qsXm-32" value="ys:NetconfServer" style="rounded=0;whiteSpace=wrap;html=1;snapToPoint=1;points=[[0.1,0],[0.2,0],[0.3,0],[0.4,0],[0.5,0],[0.6,0],[0.7,0],[0.8,0],[0.9,0],[0,0.1],[0,0.3],[0,0.5],[0,0.7],[0,0.9],[0.1,1],[0.2,1],[0.3,1],[0.4,1],[0.5,1],[0.6,1],[0.7,1],[0.8,1],[0.9,1],[1,0.1],[1,0.3],[1,0.5],[1,0.7],[1,0.9]];fillColor=#d5e8d4;strokeColor=#82b366;fontSize=13;" parent="1" vertex="1">
          <mxGeometry x="904.53" y="200" width="230.94" height="30" as="geometry" />
        </mxCell>
        <mxCell id="jV4g5ascm6t2pEnRygof-3" value="ys:Datastore" style="rounded=0;whiteSpace=wrap;html=1;snapToPoint=1;points=[[0.1,0],[0.2,0],[0.3,0],[0.4,0],[0.5,0],[0.6,0],[0.7,0],[0.8,0],[0.9,0],[0,0.1],[0,0.3],[0,0.5],[0,0.7],[0,0.9],[0.1,1],[0.2,1],[0.3,1],[0.4,1],[0.5,1],[0.6,1],[0.7,1],[0.8,1],[0.9,1],[1,0.1],[1,0.3],[1,0.5],[1,0.7],[1,0.9]];fillColor=#d5e8d4;strokeColor=#82b366;fontSize=13;" parent="1" vertex="1">
          <mxGeometry x="778.64" y="485" width="111.36" height="30" as="geometry" />
        </mxCell>
        <mxCell id="jV4g5ascm6t2pEnRygof-4" value="ys:DynamicDatastore" style="rounded=0;whiteSpace=wrap;html=1;snapToPoint=1;points=[[0.1,0],[0.2,0],[0.3,0],[0.4,0],[0.5,0],[0.6,0],[0.7,0],[0.8,0],[0.9,0],[0,0.1],[0,0.3],[0,0.5],[0,0.7],[0,0.9],[0.1,1],[0.2,1],[0.3,1],[0.4,1],[0.5,1],[0.6,1],[0.7,1],[0.8,1],[0.9,1],[1,0.1],[1,0.3],[1,0.5],[1,0.7],[1,0.9]];fillColor=#d5e8d4;strokeColor=#82b366;fontSize=13;" parent="1" vertex="1">
          <mxGeometry x="660" y="578.16" width="130" height="30" as="geometry" />
        </mxCell>
        <mxCell id="jV4g5ascm6t2pEnRygof-5" value="ys:ConventionalDatastore" style="rounded=0;whiteSpace=wrap;html=1;snapToPoint=1;points=[[0.1,0],[0.2,0],[0.3,0],[0.4,0],[0.5,0],[0.6,0],[0.7,0],[0.8,0],[0.9,0],[0,0.1],[0,0.3],[0,0.5],[0,0.7],[0,0.9],[0.1,1],[0.2,1],[0.3,1],[0.4,1],[0.5,1],[0.6,1],[0.7,1],[0.8,1],[0.9,1],[1,0.1],[1,0.3],[1,0.5],[1,0.7],[1,0.9]];fillColor=#d5e8d4;strokeColor=#82b366;fontSize=13;" parent="1" vertex="1">
          <mxGeometry x="490" y="578.16" width="161.36" height="30" as="geometry" />
        </mxCell>
        <mxCell id="jV4g5ascm6t2pEnRygof-6" value="ys:RunningDatastore" style="rounded=0;whiteSpace=wrap;html=1;snapToPoint=1;points=[[0.1,0],[0.2,0],[0.3,0],[0.4,0],[0.5,0],[0.6,0],[0.7,0],[0.8,0],[0.9,0],[0,0.1],[0,0.3],[0,0.5],[0,0.7],[0,0.9],[0.1,1],[0.2,1],[0.3,1],[0.4,1],[0.5,1],[0.6,1],[0.7,1],[0.8,1],[0.9,1],[1,0.1],[1,0.3],[1,0.5],[1,0.7],[1,0.9]];fillColor=#d5e8d4;strokeColor=#82b366;fontSize=13;" parent="1" vertex="1">
          <mxGeometry x="450" y="661" width="128.79" height="30" as="geometry" />
        </mxCell>
        <mxCell id="jV4g5ascm6t2pEnRygof-7" value="ys:IntendedDatastore" style="rounded=0;whiteSpace=wrap;html=1;snapToPoint=1;points=[[0.1,0],[0.2,0],[0.3,0],[0.4,0],[0.5,0],[0.6,0],[0.7,0],[0.8,0],[0.9,0],[0,0.1],[0,0.3],[0,0.5],[0,0.7],[0,0.9],[0.1,1],[0.2,1],[0.3,1],[0.4,1],[0.5,1],[0.6,1],[0.7,1],[0.8,1],[0.9,1],[1,0.1],[1,0.3],[1,0.5],[1,0.7],[1,0.9]];fillColor=#d5e8d4;strokeColor=#82b366;fontSize=13;" parent="1" vertex="1">
          <mxGeometry x="742.57" y="661" width="130" height="30" as="geometry" />
        </mxCell>
        <mxCell id="jV4g5ascm6t2pEnRygof-8" value="ys:CandidateDatastore" style="rounded=0;whiteSpace=wrap;html=1;snapToPoint=1;points=[[0.1,0],[0.2,0],[0.3,0],[0.4,0],[0.5,0],[0.6,0],[0.7,0],[0.8,0],[0.9,0],[0,0.1],[0,0.3],[0,0.5],[0,0.7],[0,0.9],[0.1,1],[0.2,1],[0.3,1],[0.4,1],[0.5,1],[0.6,1],[0.7,1],[0.8,1],[0.9,1],[1,0.1],[1,0.3],[1,0.5],[1,0.7],[1,0.9]];fillColor=#d5e8d4;strokeColor=#82b366;fontSize=13;" parent="1" vertex="1">
          <mxGeometry x="590" y="661" width="140" height="30" as="geometry" />
        </mxCell>
        <mxCell id="jV4g5ascm6t2pEnRygof-9" value="ys:StartupDatastore" style="rounded=0;whiteSpace=wrap;html=1;snapToPoint=1;points=[[0.1,0],[0.2,0],[0.3,0],[0.4,0],[0.5,0],[0.6,0],[0.7,0],[0.8,0],[0.9,0],[0,0.1],[0,0.3],[0,0.5],[0,0.7],[0,0.9],[0.1,1],[0.2,1],[0.3,1],[0.4,1],[0.5,1],[0.6,1],[0.7,1],[0.8,1],[0.9,1],[1,0.1],[1,0.3],[1,0.5],[1,0.7],[1,0.9]];fillColor=#d5e8d4;strokeColor=#82b366;fontSize=13;" parent="1" vertex="1">
          <mxGeometry x="886.0699999999999" y="661" width="121.36" height="30" as="geometry" />
        </mxCell>
        <mxCell id="jV4g5ascm6t2pEnRygof-11" value="ys:OperationalDatastore" style="rounded=0;whiteSpace=wrap;html=1;snapToPoint=1;points=[[0.1,0],[0.2,0],[0.3,0],[0.4,0],[0.5,0],[0.6,0],[0.7,0],[0.8,0],[0.9,0],[0,0.1],[0,0.3],[0,0.5],[0,0.7],[0,0.9],[0.1,1],[0.2,1],[0.3,1],[0.4,1],[0.5,1],[0.6,1],[0.7,1],[0.8,1],[0.9,1],[1,0.1],[1,0.3],[1,0.5],[1,0.7],[1,0.9]];fillColor=#d5e8d4;strokeColor=#82b366;fontSize=13;" parent="1" vertex="1">
          <mxGeometry x="800" y="578.16" width="150" height="30" as="geometry" />
        </mxCell>
        <mxCell id="jV4g5ascm6t2pEnRygof-12" value="" style="endArrow=block;html=1;fontColor=#000000;endFill=0;endSize=8;arcSize=0;rounded=0;fontFamily=Helvetica;entryX=0.5;entryY=1;entryDx=0;entryDy=0;exitX=0.5;exitY=0;exitDx=0;exitDy=0;edgeStyle=orthogonalEdgeStyle;fontSize=13;" parent="1" source="jV4g5ascm6t2pEnRygof-5" target="jV4g5ascm6t2pEnRygof-3" edge="1">
          <mxGeometry width="50" height="50" relative="1" as="geometry">
            <mxPoint x="498.93000000000006" y="507.4300000000002" as="sourcePoint" />
            <mxPoint x="637.4300000000001" y="507.15" as="targetPoint" />
            <Array as="points">
              <mxPoint x="571" y="560" />
              <mxPoint x="834" y="560" />
            </Array>
          </mxGeometry>
        </mxCell>
        <mxCell id="jV4g5ascm6t2pEnRygof-13" value="" style="endArrow=block;html=1;fontColor=#000000;endFill=0;endSize=8;arcSize=0;rounded=0;fontFamily=Helvetica;entryX=0.5;entryY=1;entryDx=0;entryDy=0;exitX=0.5;exitY=0;exitDx=0;exitDy=0;edgeStyle=orthogonalEdgeStyle;fontSize=13;" parent="1" source="jV4g5ascm6t2pEnRygof-4" target="jV4g5ascm6t2pEnRygof-3" edge="1">
          <mxGeometry width="50" height="50" relative="1" as="geometry">
            <mxPoint x="766" y="577" as="sourcePoint" />
            <mxPoint x="844" y="530" as="targetPoint" />
            <Array as="points">
              <mxPoint x="725" y="560" />
              <mxPoint x="834" y="560" />
            </Array>
          </mxGeometry>
        </mxCell>
        <mxCell id="jV4g5ascm6t2pEnRygof-14" value="" style="endArrow=block;html=1;fontColor=#000000;endFill=0;endSize=8;arcSize=0;rounded=0;fontFamily=Helvetica;entryX=0.5;entryY=1;entryDx=0;entryDy=0;exitX=0.5;exitY=0;exitDx=0;exitDy=0;edgeStyle=orthogonalEdgeStyle;fontSize=13;" parent="1" source="jV4g5ascm6t2pEnRygof-11" target="jV4g5ascm6t2pEnRygof-3" edge="1">
          <mxGeometry width="50" height="50" relative="1" as="geometry">
            <mxPoint x="925" y="577" as="sourcePoint" />
            <mxPoint x="844" y="530" as="targetPoint" />
            <Array as="points">
              <mxPoint x="875" y="560" />
              <mxPoint x="834" y="560" />
            </Array>
          </mxGeometry>
        </mxCell>
        <mxCell id="jV4g5ascm6t2pEnRygof-15" value="" style="endArrow=block;html=1;fontColor=#000000;endFill=0;endSize=8;arcSize=0;rounded=0;fontFamily=Helvetica;entryX=0.5;entryY=1;entryDx=0;entryDy=0;exitX=0.5;exitY=0;exitDx=0;exitDy=0;edgeStyle=orthogonalEdgeStyle;fontSize=13;" parent="1" source="jV4g5ascm6t2pEnRygof-6" target="jV4g5ascm6t2pEnRygof-5" edge="1">
          <mxGeometry width="50" height="50" relative="1" as="geometry">
            <mxPoint x="990" y="588" as="sourcePoint" />
            <mxPoint x="764" y="541" as="targetPoint" />
          </mxGeometry>
        </mxCell>
        <mxCell id="jV4g5ascm6t2pEnRygof-16" value="" style="endArrow=block;html=1;fontColor=#000000;endFill=0;endSize=8;arcSize=0;rounded=0;fontFamily=Helvetica;exitX=0.5;exitY=0;exitDx=0;exitDy=0;edgeStyle=orthogonalEdgeStyle;entryX=0.5;entryY=1;entryDx=0;entryDy=0;fontSize=13;" parent="1" source="jV4g5ascm6t2pEnRygof-8" target="jV4g5ascm6t2pEnRygof-5" edge="1">
          <mxGeometry width="50" height="50" relative="1" as="geometry">
            <mxPoint x="506" y="671" as="sourcePoint" />
            <mxPoint x="700" y="621" as="targetPoint" />
          </mxGeometry>
        </mxCell>
        <mxCell id="jV4g5ascm6t2pEnRygof-17" value="" style="endArrow=block;html=1;fontColor=#000000;endFill=0;endSize=8;arcSize=0;rounded=0;fontFamily=Helvetica;exitX=0.5;exitY=0;exitDx=0;exitDy=0;edgeStyle=orthogonalEdgeStyle;entryX=0.5;entryY=1;entryDx=0;entryDy=0;fontSize=13;" parent="1" source="jV4g5ascm6t2pEnRygof-7" target="jV4g5ascm6t2pEnRygof-5" edge="1">
          <mxGeometry width="50" height="50" relative="1" as="geometry">
            <mxPoint x="663" y="671" as="sourcePoint" />
            <mxPoint x="686" y="618" as="targetPoint" />
          </mxGeometry>
        </mxCell>
        <mxCell id="jV4g5ascm6t2pEnRygof-18" value="" style="endArrow=block;html=1;fontColor=#000000;endFill=0;endSize=8;arcSize=0;rounded=0;fontFamily=Helvetica;exitX=0.5;exitY=0;exitDx=0;exitDy=0;edgeStyle=orthogonalEdgeStyle;entryX=0.5;entryY=1;entryDx=0;entryDy=0;fontSize=13;" parent="1" source="jV4g5ascm6t2pEnRygof-9" target="jV4g5ascm6t2pEnRygof-5" edge="1">
          <mxGeometry width="50" height="50" relative="1" as="geometry">
            <mxPoint x="812" y="671" as="sourcePoint" />
            <mxPoint x="686" y="618" as="targetPoint" />
          </mxGeometry>
        </mxCell>
        <mxCell id="ttUUddj0Ld-d2ad8G4DE-4" value="ys:filter" style="edgeStyle=orthogonalEdgeStyle;rounded=0;orthogonalLoop=1;jettySize=auto;html=1;exitX=0.5;exitY=0;exitDx=0;exitDy=0;entryX=0.5;entryY=1;entryDx=0;entryDy=0;fontSize=13;" parent="1" source="ttUUddj0Ld-d2ad8G4DE-1" target="5HK7wk3mbqAfFXfDV9It-1" edge="1">
          <mxGeometry relative="1" as="geometry" />
        </mxCell>
        <mxCell id="ttUUddj0Ld-d2ad8G4DE-5" value="ys:sourceDatastore" style="edgeStyle=orthogonalEdgeStyle;rounded=0;orthogonalLoop=1;jettySize=auto;html=1;exitX=0.5;exitY=1;exitDx=0;exitDy=0;entryX=0;entryY=0.5;entryDx=0;entryDy=0;fontSize=13;" parent="1" source="ttUUddj0Ld-d2ad8G4DE-1" target="jV4g5ascm6t2pEnRygof-3" edge="1">
          <mxGeometry relative="1" as="geometry">
            <Array as="points">
              <mxPoint x="615" y="500" />
            </Array>
          </mxGeometry>
        </mxCell>
        <mxCell id="ttUUddj0Ld-d2ad8G4DE-10" value="ys:sourceServer" style="edgeStyle=orthogonalEdgeStyle;rounded=0;orthogonalLoop=1;jettySize=auto;html=1;exitX=1;exitY=0.5;exitDx=0;exitDy=0;entryX=0;entryY=0.5;entryDx=0;entryDy=0;fontSize=13;" parent="1" source="ttUUddj0Ld-d2ad8G4DE-1" target="xW2krMNUQVf9Xm74qsXm-14" edge="1">
          <mxGeometry x="-0.1378" y="15" relative="1" as="geometry">
            <mxPoint as="offset" />
          </mxGeometry>
        </mxCell>
        <mxCell id="ttUUddj0Ld-d2ad8G4DE-1" value="ys:Query" style="rounded=0;whiteSpace=wrap;html=1;snapToPoint=1;points=[[0.1,0],[0.2,0],[0.3,0],[0.4,0],[0.5,0],[0.6,0],[0.7,0],[0.8,0],[0.9,0],[0,0.1],[0,0.3],[0,0.5],[0,0.7],[0,0.9],[0.1,1],[0.2,1],[0.3,1],[0.4,1],[0.5,1],[0.6,1],[0.7,1],[0.8,1],[0.9,1],[1,0.1],[1,0.3],[1,0.5],[1,0.7],[1,0.9]];fillColor=#d5e8d4;strokeColor=#82b366;fontSize=13;" parent="1" vertex="1">
          <mxGeometry x="556.6400000000001" y="420" width="111.36" height="30" as="geometry" />
        </mxCell>
        <mxCell id="ttUUddj0Ld-d2ad8G4DE-8" value="ys:xpathValue: xsd:string" style="rounded=0;whiteSpace=wrap;html=1;snapToPoint=1;points=[[0.1,0],[0.2,0],[0.3,0],[0.4,0],[0.5,0],[0.6,0],[0.7,0],[0.8,0],[0.9,0],[0,0.1],[0,0.3],[0,0.5],[0,0.7],[0,0.9],[0.1,1],[0.2,1],[0.3,1],[0.4,1],[0.5,1],[0.6,1],[0.7,1],[0.8,1],[0.9,1],[1,0.1],[1,0.3],[1,0.5],[1,0.7],[1,0.9]];align=left;spacingLeft=10;fontSize=13;" parent="1" vertex="1">
          <mxGeometry x="460" y="230" width="170" height="30" as="geometry" />
        </mxCell>
        <mxCell id="ttUUddj0Ld-d2ad8G4DE-9" value="ys:subtreeValue: rdf:XMLLiteral" style="rounded=0;whiteSpace=wrap;html=1;snapToPoint=1;points=[[0.1,0],[0.2,0],[0.3,0],[0.4,0],[0.5,0],[0.6,0],[0.7,0],[0.8,0],[0.9,0],[0,0.1],[0,0.3],[0,0.5],[0,0.7],[0,0.9],[0.1,1],[0.2,1],[0.3,1],[0.4,1],[0.5,1],[0.6,1],[0.7,1],[0.8,1],[0.9,1],[1,0.1],[1,0.3],[1,0.5],[1,0.7],[1,0.9]];align=left;spacingLeft=10;fontSize=13;" parent="1" vertex="1">
          <mxGeometry x="651.36" y="230" width="198.64" height="30" as="geometry" />
        </mxCell>
        <mxCell id="ttUUddj0Ld-d2ad8G4DE-7" value="ys:SubtreeFilter" style="rounded=0;whiteSpace=wrap;html=1;snapToPoint=1;points=[[0.1,0],[0.2,0],[0.3,0],[0.4,0],[0.5,0],[0.6,0],[0.7,0],[0.8,0],[0.9,0],[0,0.1],[0,0.3],[0,0.5],[0,0.7],[0,0.9],[0.1,1],[0.2,1],[0.3,1],[0.4,1],[0.5,1],[0.6,1],[0.7,1],[0.8,1],[0.9,1],[1,0.1],[1,0.3],[1,0.5],[1,0.7],[1,0.9]];fillColor=#d5e8d4;strokeColor=#82b366;fontSize=13;" parent="1" vertex="1">
          <mxGeometry x="651.36" y="200" width="198.64" height="30" as="geometry" />
        </mxCell>
        <mxCell id="bN98talkxuC1FAq8QvZE-4" value="ys:namespace" style="edgeStyle=orthogonalEdgeStyle;rounded=0;orthogonalLoop=1;jettySize=auto;html=1;exitX=0;exitY=0.5;exitDx=0;exitDy=0;entryX=0.5;entryY=0;entryDx=0;entryDy=0;fontSize=13;" parent="1" source="ttUUddj0Ld-d2ad8G4DE-6" target="bN98talkxuC1FAq8QvZE-1" edge="1">
          <mxGeometry relative="1" as="geometry">
            <mxPoint x="360" y="240" as="targetPoint" />
            <Array as="points">
              <mxPoint x="325" y="215" />
            </Array>
          </mxGeometry>
        </mxCell>
        <mxCell id="ttUUddj0Ld-d2ad8G4DE-6" value="ys:XPathFilter" style="rounded=0;whiteSpace=wrap;html=1;snapToPoint=1;points=[[0.1,0],[0.2,0],[0.3,0],[0.4,0],[0.5,0],[0.6,0],[0.7,0],[0.8,0],[0.9,0],[0,0.1],[0,0.3],[0,0.5],[0,0.7],[0,0.9],[0.1,1],[0.2,1],[0.3,1],[0.4,1],[0.5,1],[0.6,1],[0.7,1],[0.8,1],[0.9,1],[1,0.1],[1,0.3],[1,0.5],[1,0.7],[1,0.9]];fillColor=#d5e8d4;strokeColor=#82b366;fontSize=13;" parent="1" vertex="1">
          <mxGeometry x="460" y="200" width="170" height="30" as="geometry" />
        </mxCell>
        <mxCell id="ttUUddj0Ld-d2ad8G4DE-11" value="" style="endArrow=block;html=1;fontColor=#000000;endFill=0;endSize=8;arcSize=0;rounded=0;fontFamily=Helvetica;entryX=0.5;entryY=0;entryDx=0;entryDy=0;exitX=0.5;exitY=1;exitDx=0;exitDy=0;edgeStyle=orthogonalEdgeStyle;fontSize=13;" parent="1" source="ttUUddj0Ld-d2ad8G4DE-8" target="ttUUddj0Ld-d2ad8G4DE-3" edge="1">
          <mxGeometry width="50" height="50" relative="1" as="geometry">
            <mxPoint x="1046.07" y="577" as="sourcePoint" />
            <mxPoint x="621.7500000000001" y="324.5999999999999" as="targetPoint" />
          </mxGeometry>
        </mxCell>
        <mxCell id="ttUUddj0Ld-d2ad8G4DE-12" value="" style="endArrow=block;html=1;fontColor=#000000;endFill=0;endSize=8;arcSize=0;rounded=0;fontFamily=Helvetica;entryX=0.5;entryY=0;entryDx=0;entryDy=0;exitX=0.5;exitY=1;exitDx=0;exitDy=0;edgeStyle=orthogonalEdgeStyle;fontSize=13;" parent="1" source="ttUUddj0Ld-d2ad8G4DE-9" target="ttUUddj0Ld-d2ad8G4DE-3" edge="1">
          <mxGeometry width="50" height="50" relative="1" as="geometry">
            <mxPoint x="601.07" y="265" as="sourcePoint" />
            <mxPoint x="621.7500000000001" y="324.5999999999999" as="targetPoint" />
          </mxGeometry>
        </mxCell>
        <mxCell id="5HK7wk3mbqAfFXfDV9It-1" value="ys:filterValue: xsd:string" style="rounded=0;whiteSpace=wrap;html=1;snapToPoint=1;points=[[0.1,0],[0.2,0],[0.3,0],[0.4,0],[0.5,0],[0.6,0],[0.7,0],[0.8,0],[0.9,0],[0,0.1],[0,0.3],[0,0.5],[0,0.7],[0,0.9],[0.1,1],[0.2,1],[0.3,1],[0.4,1],[0.5,1],[0.6,1],[0.7,1],[0.8,1],[0.9,1],[1,0.1],[1,0.3],[1,0.5],[1,0.7],[1,0.9]];align=center;spacingLeft=0;spacing=0;fontSize=13;" parent="1" vertex="1">
          <mxGeometry x="534.82" y="353.49" width="155" height="30" as="geometry" />
        </mxCell>
        <mxCell id="ttUUddj0Ld-d2ad8G4DE-3" value="ys:Filter" style="rounded=0;whiteSpace=wrap;html=1;snapToPoint=1;points=[[0.1,0],[0.2,0],[0.3,0],[0.4,0],[0.5,0],[0.6,0],[0.7,0],[0.8,0],[0.9,0],[0,0.1],[0,0.3],[0,0.5],[0,0.7],[0,0.9],[0.1,1],[0.2,1],[0.3,1],[0.4,1],[0.5,1],[0.6,1],[0.7,1],[0.8,1],[0.9,1],[1,0.1],[1,0.3],[1,0.5],[1,0.7],[1,0.9]];fillColor=#d5e8d4;strokeColor=#82b366;fontSize=13;" parent="1" vertex="1">
          <mxGeometry x="534.82" y="323.49" width="155" height="30" as="geometry" />
        </mxCell>
        <mxCell id="0p76iwh5f3bbjIwd35gd-1" value="&lt;div style=&quot;font-size: 13px;&quot;&gt;dcterms:identifier: xsd:string&lt;/div&gt;" style="rounded=0;whiteSpace=wrap;html=1;snapToPoint=1;points=[[0.1,0],[0.2,0],[0.3,0],[0.4,0],[0.5,0],[0.6,0],[0.7,0],[0.8,0],[0.9,0],[0,0.1],[0,0.3],[0,0.5],[0,0.7],[0,0.9],[0.1,1],[0.2,1],[0.3,1],[0.4,1],[0.5,1],[0.6,1],[0.7,1],[0.8,1],[0.9,1],[1,0.1],[1,0.3],[1,0.5],[1,0.7],[1,0.9]];align=left;spacingLeft=10;fontSize=13;" parent="1" vertex="1">
          <mxGeometry x="930" y="370.61" width="180" height="30" as="geometry" />
        </mxCell>
        <mxCell id="0p76iwh5f3bbjIwd35gd-2" value="ys:NetconfCapability" style="rounded=0;whiteSpace=wrap;html=1;snapToPoint=1;points=[[0.1,0],[0.2,0],[0.3,0],[0.4,0],[0.5,0],[0.6,0],[0.7,0],[0.8,0],[0.9,0],[0,0.1],[0,0.3],[0,0.5],[0,0.7],[0,0.9],[0.1,1],[0.2,1],[0.3,1],[0.4,1],[0.5,1],[0.6,1],[0.7,1],[0.8,1],[0.9,1],[1,0.1],[1,0.3],[1,0.5],[1,0.7],[1,0.9]];fillColor=#d5e8d4;strokeColor=#82b366;fontSize=13;" parent="1" vertex="1">
          <mxGeometry x="930" y="340.61" width="180" height="30" as="geometry" />
        </mxCell>
        <mxCell id="0p76iwh5f3bbjIwd35gd-3" value="&lt;u style=&quot;font-size: 13px;&quot;&gt;ys:WritableRunningCapability&lt;/u&gt;" style="rounded=0;whiteSpace=wrap;html=1;snapToPoint=1;points=[[0.1,0],[0.2,0],[0.3,0],[0.4,0],[0.5,0],[0.6,0],[0.7,0],[0.8,0],[0.9,0],[0,0.1],[0,0.3],[0,0.5],[0,0.7],[0,0.9],[0.1,1],[0.2,1],[0.3,1],[0.4,1],[0.5,1],[0.6,1],[0.7,1],[0.8,1],[0.9,1],[1,0.1],[1,0.3],[1,0.5],[1,0.7],[1,0.9]];fillColor=#d5e8d4;strokeColor=#82b366;fontSize=13;" parent="1" vertex="1">
          <mxGeometry x="1166.58" y="581.6099999999999" width="180" height="30" as="geometry" />
        </mxCell>
        <mxCell id="0p76iwh5f3bbjIwd35gd-4" value="&lt;u style=&quot;font-size: 13px;&quot;&gt;ys:CandidateCapability&lt;/u&gt;" style="rounded=0;whiteSpace=wrap;html=1;snapToPoint=1;points=[[0.1,0],[0.2,0],[0.3,0],[0.4,0],[0.5,0],[0.6,0],[0.7,0],[0.8,0],[0.9,0],[0,0.1],[0,0.3],[0,0.5],[0,0.7],[0,0.9],[0.1,1],[0.2,1],[0.3,1],[0.4,1],[0.5,1],[0.6,1],[0.7,1],[0.8,1],[0.9,1],[1,0.1],[1,0.3],[1,0.5],[1,0.7],[1,0.9]];fillColor=#d5e8d4;strokeColor=#82b366;fontSize=13;" parent="1" vertex="1">
          <mxGeometry x="1166.58" y="340.61" width="180" height="30" as="geometry" />
        </mxCell>
        <mxCell id="0p76iwh5f3bbjIwd35gd-5" value="&lt;u style=&quot;font-size: 13px;&quot;&gt;ys:ConfirmedCommitCapability&lt;/u&gt;" style="rounded=0;whiteSpace=wrap;html=1;snapToPoint=1;points=[[0.1,0],[0.2,0],[0.3,0],[0.4,0],[0.5,0],[0.6,0],[0.7,0],[0.8,0],[0.9,0],[0,0.1],[0,0.3],[0,0.5],[0,0.7],[0,0.9],[0.1,1],[0.2,1],[0.3,1],[0.4,1],[0.5,1],[0.6,1],[0.7,1],[0.8,1],[0.9,1],[1,0.1],[1,0.3],[1,0.5],[1,0.7],[1,0.9]];fillColor=#d5e8d4;strokeColor=#82b366;fontSize=13;" parent="1" vertex="1">
          <mxGeometry x="1166.58" y="381.61" width="180" height="30" as="geometry" />
        </mxCell>
        <mxCell id="0p76iwh5f3bbjIwd35gd-6" value="&lt;u style=&quot;font-size: 13px;&quot;&gt;ys:DistinctStartupCapability&lt;/u&gt;" style="rounded=0;whiteSpace=wrap;html=1;snapToPoint=1;points=[[0.1,0],[0.2,0],[0.3,0],[0.4,0],[0.5,0],[0.6,0],[0.7,0],[0.8,0],[0.9,0],[0,0.1],[0,0.3],[0,0.5],[0,0.7],[0,0.9],[0.1,1],[0.2,1],[0.3,1],[0.4,1],[0.5,1],[0.6,1],[0.7,1],[0.8,1],[0.9,1],[1,0.1],[1,0.3],[1,0.5],[1,0.7],[1,0.9]];fillColor=#d5e8d4;strokeColor=#82b366;fontSize=13;" parent="1" vertex="1">
          <mxGeometry x="1166.58" y="421.61" width="180" height="30" as="geometry" />
        </mxCell>
        <mxCell id="0p76iwh5f3bbjIwd35gd-7" value="&lt;u style=&quot;font-size: 13px;&quot;&gt;ys:RollbackOnErrorCapability&lt;/u&gt;" style="rounded=0;whiteSpace=wrap;html=1;snapToPoint=1;points=[[0.1,0],[0.2,0],[0.3,0],[0.4,0],[0.5,0],[0.6,0],[0.7,0],[0.8,0],[0.9,0],[0,0.1],[0,0.3],[0,0.5],[0,0.7],[0,0.9],[0.1,1],[0.2,1],[0.3,1],[0.4,1],[0.5,1],[0.6,1],[0.7,1],[0.8,1],[0.9,1],[1,0.1],[1,0.3],[1,0.5],[1,0.7],[1,0.9]];fillColor=#d5e8d4;strokeColor=#82b366;fontSize=13;" parent="1" vertex="1">
          <mxGeometry x="1166.58" y="461.61" width="180" height="30" as="geometry" />
        </mxCell>
        <mxCell id="0p76iwh5f3bbjIwd35gd-8" value="&lt;u style=&quot;font-size: 13px;&quot;&gt;ys:UrlCapability&lt;/u&gt;" style="rounded=0;whiteSpace=wrap;html=1;snapToPoint=1;points=[[0.1,0],[0.2,0],[0.3,0],[0.4,0],[0.5,0],[0.6,0],[0.7,0],[0.8,0],[0.9,0],[0,0.1],[0,0.3],[0,0.5],[0,0.7],[0,0.9],[0.1,1],[0.2,1],[0.3,1],[0.4,1],[0.5,1],[0.6,1],[0.7,1],[0.8,1],[0.9,1],[1,0.1],[1,0.3],[1,0.5],[1,0.7],[1,0.9]];fillColor=#d5e8d4;strokeColor=#82b366;fontSize=13;" parent="1" vertex="1">
          <mxGeometry x="1166.58" y="501.6" width="180" height="30" as="geometry" />
        </mxCell>
        <mxCell id="0p76iwh5f3bbjIwd35gd-9" value="&lt;u style=&quot;font-size: 13px;&quot;&gt;ys:ValidationCapability&lt;/u&gt;" style="rounded=0;whiteSpace=wrap;html=1;snapToPoint=1;points=[[0.1,0],[0.2,0],[0.3,0],[0.4,0],[0.5,0],[0.6,0],[0.7,0],[0.8,0],[0.9,0],[0,0.1],[0,0.3],[0,0.5],[0,0.7],[0,0.9],[0.1,1],[0.2,1],[0.3,1],[0.4,1],[0.5,1],[0.6,1],[0.7,1],[0.8,1],[0.9,1],[1,0.1],[1,0.3],[1,0.5],[1,0.7],[1,0.9]];fillColor=#d5e8d4;strokeColor=#82b366;fontSize=13;" parent="1" vertex="1">
          <mxGeometry x="1166.58" y="541.6099999999999" width="180" height="30" as="geometry" />
        </mxCell>
        <mxCell id="0p76iwh5f3bbjIwd35gd-10" value="&lt;u style=&quot;font-size: 13px;&quot;&gt;ys:XpathCapability&lt;/u&gt;" style="rounded=0;whiteSpace=wrap;html=1;snapToPoint=1;points=[[0.1,0],[0.2,0],[0.3,0],[0.4,0],[0.5,0],[0.6,0],[0.7,0],[0.8,0],[0.9,0],[0,0.1],[0,0.3],[0,0.5],[0,0.7],[0,0.9],[0.1,1],[0.2,1],[0.3,1],[0.4,1],[0.5,1],[0.6,1],[0.7,1],[0.8,1],[0.9,1],[1,0.1],[1,0.3],[1,0.5],[1,0.7],[1,0.9]];fillColor=#d5e8d4;strokeColor=#82b366;fontSize=13;" parent="1" vertex="1">
          <mxGeometry x="1166.58" y="621.6099999999999" width="180" height="30" as="geometry" />
        </mxCell>
        <mxCell id="0p76iwh5f3bbjIwd35gd-11" value="" style="endArrow=open;html=1;fontColor=#000099;endFill=0;dashed=1;entryX=1;entryY=0.5;entryDx=0;entryDy=0;endSize=8;exitX=0;exitY=0.5;exitDx=0;exitDy=0;rounded=0;fontSize=13;" parent="1" source="0p76iwh5f3bbjIwd35gd-4" target="0p76iwh5f3bbjIwd35gd-2" edge="1">
          <mxGeometry width="50" height="50" relative="1" as="geometry">
            <mxPoint x="989.5799999999999" y="555.6099999999999" as="sourcePoint" />
            <mxPoint x="989.5799999999999" y="505.61" as="targetPoint" />
          </mxGeometry>
        </mxCell>
        <mxCell id="0p76iwh5f3bbjIwd35gd-12" value="" style="endArrow=open;html=1;fontColor=#000099;endFill=0;dashed=1;endSize=8;exitX=0;exitY=0.5;exitDx=0;exitDy=0;rounded=0;entryX=1;entryY=0.5;entryDx=0;entryDy=0;edgeStyle=orthogonalEdgeStyle;fontSize=13;" parent="1" source="0p76iwh5f3bbjIwd35gd-5" target="0p76iwh5f3bbjIwd35gd-2" edge="1">
          <mxGeometry width="50" height="50" relative="1" as="geometry">
            <mxPoint x="1169.58" y="350.61" as="sourcePoint" />
            <mxPoint x="1099.58" y="365.61" as="targetPoint" />
            <Array as="points">
              <mxPoint x="1139.58" y="397" />
              <mxPoint x="1139.58" y="356" />
            </Array>
          </mxGeometry>
        </mxCell>
        <mxCell id="0p76iwh5f3bbjIwd35gd-13" value="" style="endArrow=open;html=1;fontColor=#000099;endFill=0;dashed=1;endSize=8;exitX=0;exitY=0.5;exitDx=0;exitDy=0;rounded=0;entryX=1;entryY=0.5;entryDx=0;entryDy=0;edgeStyle=orthogonalEdgeStyle;fontSize=13;" parent="1" source="0p76iwh5f3bbjIwd35gd-6" target="0p76iwh5f3bbjIwd35gd-2" edge="1">
          <mxGeometry width="50" height="50" relative="1" as="geometry">
            <mxPoint x="1169.58" y="390.61" as="sourcePoint" />
            <mxPoint x="1099.58" y="350.61" as="targetPoint" />
            <Array as="points">
              <mxPoint x="1139.58" y="437" />
              <mxPoint x="1139.58" y="356" />
            </Array>
          </mxGeometry>
        </mxCell>
        <mxCell id="0p76iwh5f3bbjIwd35gd-14" value="" style="endArrow=open;html=1;fontColor=#000099;endFill=0;dashed=1;endSize=8;exitX=0;exitY=0.5;exitDx=0;exitDy=0;rounded=0;entryX=1;entryY=0.5;entryDx=0;entryDy=0;edgeStyle=orthogonalEdgeStyle;fontSize=13;" parent="1" source="0p76iwh5f3bbjIwd35gd-7" target="0p76iwh5f3bbjIwd35gd-2" edge="1">
          <mxGeometry width="50" height="50" relative="1" as="geometry">
            <mxPoint x="1169.58" y="433.61" as="sourcePoint" />
            <mxPoint x="1099.58" y="350.61" as="targetPoint" />
            <Array as="points">
              <mxPoint x="1139.58" y="477" />
              <mxPoint x="1139.58" y="356" />
            </Array>
          </mxGeometry>
        </mxCell>
        <mxCell id="0p76iwh5f3bbjIwd35gd-15" value="" style="endArrow=open;html=1;fontColor=#000099;endFill=0;dashed=1;endSize=8;exitX=0;exitY=0.5;exitDx=0;exitDy=0;rounded=0;entryX=1;entryY=0.5;entryDx=0;entryDy=0;edgeStyle=orthogonalEdgeStyle;fontSize=13;" parent="1" source="0p76iwh5f3bbjIwd35gd-8" target="0p76iwh5f3bbjIwd35gd-2" edge="1">
          <mxGeometry width="50" height="50" relative="1" as="geometry">
            <mxPoint x="1169.58" y="470.61" as="sourcePoint" />
            <mxPoint x="1099.58" y="350.61" as="targetPoint" />
            <Array as="points">
              <mxPoint x="1139.58" y="517" />
              <mxPoint x="1139.58" y="356" />
            </Array>
          </mxGeometry>
        </mxCell>
        <mxCell id="0p76iwh5f3bbjIwd35gd-16" value="" style="endArrow=open;html=1;fontColor=#000099;endFill=0;dashed=1;endSize=8;exitX=0;exitY=0.5;exitDx=0;exitDy=0;rounded=0;entryX=1;entryY=0.5;entryDx=0;entryDy=0;edgeStyle=orthogonalEdgeStyle;fontSize=13;" parent="1" source="0p76iwh5f3bbjIwd35gd-9" target="0p76iwh5f3bbjIwd35gd-2" edge="1">
          <mxGeometry width="50" height="50" relative="1" as="geometry">
            <mxPoint x="1169.58" y="510.61" as="sourcePoint" />
            <mxPoint x="1099.58" y="350.61" as="targetPoint" />
            <Array as="points">
              <mxPoint x="1139.58" y="557" />
              <mxPoint x="1139.58" y="356" />
            </Array>
          </mxGeometry>
        </mxCell>
        <mxCell id="0p76iwh5f3bbjIwd35gd-17" value="" style="endArrow=open;html=1;fontColor=#000099;endFill=0;dashed=1;endSize=8;exitX=0;exitY=0.5;exitDx=0;exitDy=0;rounded=0;entryX=1;entryY=0.5;entryDx=0;entryDy=0;edgeStyle=orthogonalEdgeStyle;fontSize=13;" parent="1" source="0p76iwh5f3bbjIwd35gd-3" target="0p76iwh5f3bbjIwd35gd-2" edge="1">
          <mxGeometry width="50" height="50" relative="1" as="geometry">
            <mxPoint x="1169.58" y="550.6099999999999" as="sourcePoint" />
            <mxPoint x="1099.58" y="350.61" as="targetPoint" />
            <Array as="points">
              <mxPoint x="1139.58" y="597" />
              <mxPoint x="1139.58" y="356" />
            </Array>
          </mxGeometry>
        </mxCell>
        <mxCell id="0p76iwh5f3bbjIwd35gd-18" value="" style="endArrow=open;html=1;fontColor=#000099;endFill=0;dashed=1;endSize=8;exitX=0;exitY=0.5;exitDx=0;exitDy=0;rounded=0;entryX=1;entryY=0.5;entryDx=0;entryDy=0;edgeStyle=orthogonalEdgeStyle;fontSize=13;" parent="1" source="0p76iwh5f3bbjIwd35gd-10" target="0p76iwh5f3bbjIwd35gd-2" edge="1">
          <mxGeometry width="50" height="50" relative="1" as="geometry">
            <mxPoint x="1169.58" y="590.6099999999999" as="sourcePoint" />
            <mxPoint x="1099.58" y="350.61" as="targetPoint" />
            <Array as="points">
              <mxPoint x="1139.58" y="637" />
              <mxPoint x="1139.58" y="356" />
            </Array>
          </mxGeometry>
        </mxCell>
        <mxCell id="0p76iwh5f3bbjIwd35gd-20" value="&lt;u style=&quot;font-size: 13px;&quot;&gt;ys:YangLibraryCapability&lt;/u&gt;" style="rounded=0;whiteSpace=wrap;html=1;snapToPoint=1;points=[[0.1,0],[0.2,0],[0.3,0],[0.4,0],[0.5,0],[0.6,0],[0.7,0],[0.8,0],[0.9,0],[0,0.1],[0,0.3],[0,0.5],[0,0.7],[0,0.9],[0.1,1],[0.2,1],[0.3,1],[0.4,1],[0.5,1],[0.6,1],[0.7,1],[0.8,1],[0.9,1],[1,0.1],[1,0.3],[1,0.5],[1,0.7],[1,0.9]];fillColor=#d5e8d4;strokeColor=#82b366;fontSize=13;" parent="1" vertex="1">
          <mxGeometry x="1166.58" y="661" width="180" height="30" as="geometry" />
        </mxCell>
        <mxCell id="0p76iwh5f3bbjIwd35gd-21" value="" style="endArrow=open;html=1;fontColor=#000099;endFill=0;dashed=1;endSize=8;exitX=0;exitY=0.5;exitDx=0;exitDy=0;rounded=0;entryX=1;entryY=0.5;entryDx=0;entryDy=0;edgeStyle=orthogonalEdgeStyle;fontSize=13;" parent="1" source="0p76iwh5f3bbjIwd35gd-20" target="0p76iwh5f3bbjIwd35gd-2" edge="1">
          <mxGeometry width="50" height="50" relative="1" as="geometry">
            <mxPoint x="1176.58" y="647" as="sourcePoint" />
            <mxPoint x="1099.58" y="366" as="targetPoint" />
            <Array as="points">
              <mxPoint x="1139.58" y="676" />
              <mxPoint x="1139.58" y="356" />
            </Array>
          </mxGeometry>
        </mxCell>
        <mxCell id="oXwt1U74XXn5uIL4hFVP-5" value="ys:sourceServer" style="edgeStyle=orthogonalEdgeStyle;rounded=0;orthogonalLoop=1;jettySize=auto;html=1;exitX=0.5;exitY=1;exitDx=0;exitDy=0;entryX=0.1;entryY=1;entryDx=0;entryDy=0;jumpStyle=arc;jumpSize=10;fontSize=13;" parent="1" source="oXwt1U74XXn5uIL4hFVP-1" target="xW2krMNUQVf9Xm74qsXm-12" edge="1">
          <mxGeometry x="-0.5572" relative="1" as="geometry">
            <Array as="points">
              <mxPoint x="466" y="470" />
              <mxPoint x="766" y="470" />
            </Array>
            <mxPoint as="offset" />
          </mxGeometry>
        </mxCell>
        <mxCell id="oXwt1U74XXn5uIL4hFVP-1" value="ys:Subscription" style="rounded=0;whiteSpace=wrap;html=1;snapToPoint=1;points=[[0.1,0],[0.2,0],[0.3,0],[0.4,0],[0.5,0],[0.6,0],[0.7,0],[0.8,0],[0.9,0],[0,0.1],[0,0.3],[0,0.5],[0,0.7],[0,0.9],[0.1,1],[0.2,1],[0.3,1],[0.4,1],[0.5,1],[0.6,1],[0.7,1],[0.8,1],[0.9,1],[1,0.1],[1,0.3],[1,0.5],[1,0.7],[1,0.9]];fillColor=#d5e8d4;strokeColor=#82b366;fontSize=13;" parent="1" vertex="1">
          <mxGeometry x="410.00000000000006" y="420" width="111.36" height="30" as="geometry" />
        </mxCell>
        <mxCell id="oXwt1U74XXn5uIL4hFVP-2" value="ys:filter" style="edgeStyle=orthogonalEdgeStyle;rounded=0;orthogonalLoop=1;jettySize=auto;html=1;exitX=0.5;exitY=0;exitDx=0;exitDy=0;entryX=0;entryY=0.5;entryDx=0;entryDy=0;fontSize=13;" parent="1" source="oXwt1U74XXn5uIL4hFVP-1" target="ttUUddj0Ld-d2ad8G4DE-3" edge="1">
          <mxGeometry relative="1" as="geometry">
            <mxPoint x="625" y="444" as="sourcePoint" />
            <mxPoint x="625" y="391" as="targetPoint" />
          </mxGeometry>
        </mxCell>
        <mxCell id="ZYMnHjjI1mcNBakVCA9y-5" value="ys:period" style="edgeStyle=orthogonalEdgeStyle;rounded=0;orthogonalLoop=1;jettySize=auto;html=1;exitX=0.5;exitY=1;exitDx=0;exitDy=0;entryX=0.5;entryY=0;entryDx=0;entryDy=0;fontSize=13;" parent="1" source="oXwt1U74XXn5uIL4hFVP-8" target="ZYMnHjjI1mcNBakVCA9y-3" edge="1">
          <mxGeometry relative="1" as="geometry">
            <mxPoint x="315.90999999999997" y="549.9999999999999" as="sourcePoint" />
          </mxGeometry>
        </mxCell>
        <mxCell id="oXwt1U74XXn5uIL4hFVP-8" value="ys:PeriodicSubscription" style="rounded=0;whiteSpace=wrap;html=1;snapToPoint=1;points=[[0.1,0],[0.2,0],[0.3,0],[0.4,0],[0.5,0],[0.6,0],[0.7,0],[0.8,0],[0.9,0],[0,0.1],[0,0.3],[0,0.5],[0,0.7],[0,0.9],[0.1,1],[0.2,1],[0.3,1],[0.4,1],[0.5,1],[0.6,1],[0.7,1],[0.8,1],[0.9,1],[1,0.1],[1,0.3],[1,0.5],[1,0.7],[1,0.9]];fillColor=#d5e8d4;strokeColor=#82b366;fontSize=13;" parent="1" vertex="1">
          <mxGeometry x="240.91" y="470.61" width="150" height="30" as="geometry" />
        </mxCell>
        <mxCell id="oXwt1U74XXn5uIL4hFVP-10" value="ys:OnChangeSubscription" style="rounded=0;whiteSpace=wrap;html=1;snapToPoint=1;points=[[0.1,0],[0.2,0],[0.3,0],[0.4,0],[0.5,0],[0.6,0],[0.7,0],[0.8,0],[0.9,0],[0,0.1],[0,0.3],[0,0.5],[0,0.7],[0,0.9],[0.1,1],[0.2,1],[0.3,1],[0.4,1],[0.5,1],[0.6,1],[0.7,1],[0.8,1],[0.9,1],[1,0.1],[1,0.3],[1,0.5],[1,0.7],[1,0.9]];fillColor=#d5e8d4;strokeColor=#82b366;fontSize=13;" parent="1" vertex="1">
          <mxGeometry x="235.46" y="370.61" width="160.91" height="30" as="geometry" />
        </mxCell>
        <mxCell id="oXwt1U74XXn5uIL4hFVP-13" value="" style="endArrow=block;html=1;fontColor=#000000;endFill=0;endSize=8;arcSize=0;rounded=0;fontFamily=Helvetica;edgeStyle=orthogonalEdgeStyle;entryX=0;entryY=0.5;entryDx=0;entryDy=0;exitX=0.5;exitY=0;exitDx=0;exitDy=0;fontSize=13;" parent="1" source="oXwt1U74XXn5uIL4hFVP-8" target="oXwt1U74XXn5uIL4hFVP-1" edge="1">
          <mxGeometry width="50" height="50" relative="1" as="geometry">
            <mxPoint x="340" y="470" as="sourcePoint" />
            <mxPoint x="255.68000000000006" y="420" as="targetPoint" />
            <Array as="points">
              <mxPoint x="316" y="435" />
            </Array>
          </mxGeometry>
        </mxCell>
        <mxCell id="ZYMnHjjI1mcNBakVCA9y-2" value="" style="endArrow=block;html=1;fontColor=#000000;endFill=0;endSize=8;arcSize=0;rounded=0;fontFamily=Helvetica;exitX=0.5;exitY=1;exitDx=0;exitDy=0;edgeStyle=orthogonalEdgeStyle;entryX=0;entryY=0.5;entryDx=0;entryDy=0;fontSize=13;" parent="1" source="oXwt1U74XXn5uIL4hFVP-10" target="oXwt1U74XXn5uIL4hFVP-1" edge="1">
          <mxGeometry width="50" height="50" relative="1" as="geometry">
            <mxPoint x="335" y="390" as="sourcePoint" />
            <mxPoint x="420" y="445" as="targetPoint" />
            <Array as="points">
              <mxPoint x="316" y="435" />
            </Array>
          </mxGeometry>
        </mxCell>
        <mxCell id="ZYMnHjjI1mcNBakVCA9y-4" value="qudt:Unit" style="rounded=0;whiteSpace=wrap;html=1;snapToPoint=1;points=[[0.1,0],[0.2,0],[0.3,0],[0.4,0],[0.5,0],[0.6,0],[0.7,0],[0.8,0],[0.9,0],[0,0.1],[0,0.3],[0,0.5],[0,0.7],[0,0.9],[0.1,1],[0.2,1],[0.3,1],[0.4,1],[0.5,1],[0.6,1],[0.7,1],[0.8,1],[0.9,1],[1,0.1],[1,0.3],[1,0.5],[1,0.7],[1,0.9]];fillColor=#f5f5f5;strokeColor=#666666;fontColor=#333333;fontSize=13;" parent="1" vertex="1">
          <mxGeometry x="259.77000000000004" y="670" width="110" height="30" as="geometry" />
        </mxCell>
        <mxCell id="ZYMnHjjI1mcNBakVCA9y-6" value="qudt:numericValue" style="rounded=0;whiteSpace=wrap;html=1;snapToPoint=1;points=[[0.1,0],[0.2,0],[0.3,0],[0.4,0],[0.5,0],[0.6,0],[0.7,0],[0.8,0],[0.9,0],[0,0.1],[0,0.3],[0,0.5],[0,0.7],[0,0.9],[0.1,1],[0.2,1],[0.3,1],[0.4,1],[0.5,1],[0.6,1],[0.7,1],[0.8,1],[0.9,1],[1,0.1],[1,0.3],[1,0.5],[1,0.7],[1,0.9]];align=left;spacingLeft=10;fontSize=13;dashed=1;" parent="1" vertex="1">
          <mxGeometry x="252.95000000000002" y="591.61" width="125.91" height="30" as="geometry" />
        </mxCell>
        <mxCell id="bN98talkxuC1FAq8QvZE-3" value="&lt;span style=&quot;text-align: center; font-size: 13px;&quot;&gt;ys:namespacePrefix: xsd:string&lt;/span&gt;&lt;div style=&quot;font-size: 13px;&quot;&gt;&lt;span style=&quot;background-color: initial; text-align: center; font-size: 13px;&quot;&gt;ys:namespaceURL: xsd:anyURI&lt;/span&gt;&lt;/div&gt;" style="rounded=0;whiteSpace=wrap;html=1;snapToPoint=1;points=[[0.1,0],[0.2,0],[0.3,0],[0.4,0],[0.5,0],[0.6,0],[0.7,0],[0.8,0],[0.9,0],[0,0.1],[0,0.3],[0,0.5],[0,0.7],[0,0.9],[0.1,1],[0.2,1],[0.3,1],[0.4,1],[0.5,1],[0.6,1],[0.7,1],[0.8,1],[0.9,1],[1,0.1],[1,0.3],[1,0.5],[1,0.7],[1,0.9]];align=left;spacingLeft=10;fontSize=13;" parent="1" vertex="1">
          <mxGeometry x="220" y="283.1" width="210" height="50" as="geometry" />
        </mxCell>
        <mxCell id="ZYMnHjjI1mcNBakVCA9y-7" value="qudt:unit" style="edgeStyle=orthogonalEdgeStyle;rounded=0;orthogonalLoop=1;jettySize=auto;html=1;exitX=0.5;exitY=1;exitDx=0;exitDy=0;entryX=0.5;entryY=0;entryDx=0;entryDy=0;fontSize=13;startArrow=oval;startFill=0;" parent="1" source="ZYMnHjjI1mcNBakVCA9y-6" target="ZYMnHjjI1mcNBakVCA9y-4" edge="1">
          <mxGeometry relative="1" as="geometry" />
        </mxCell>
        <mxCell id="ZYMnHjjI1mcNBakVCA9y-3" value="ys:Period" style="rounded=0;whiteSpace=wrap;html=1;snapToPoint=1;points=[[0.1,0],[0.2,0],[0.3,0],[0.4,0],[0.5,0],[0.6,0],[0.7,0],[0.8,0],[0.9,0],[0,0.1],[0,0.3],[0,0.5],[0,0.7],[0,0.9],[0.1,1],[0.2,1],[0.3,1],[0.4,1],[0.5,1],[0.6,1],[0.7,1],[0.8,1],[0.9,1],[1,0.1],[1,0.3],[1,0.5],[1,0.7],[1,0.9]];fillColor=#d5e8d4;strokeColor=#82b366;fontSize=13;" parent="1" vertex="1">
          <mxGeometry x="252.95000000000002" y="562.61" width="125.91" height="30" as="geometry" />
        </mxCell>
        <mxCell id="bN98talkxuC1FAq8QvZE-1" value="ys:Namespace" style="rounded=0;whiteSpace=wrap;html=1;snapToPoint=1;points=[[0.1,0],[0.2,0],[0.3,0],[0.4,0],[0.5,0],[0.6,0],[0.7,0],[0.8,0],[0.9,0],[0,0.1],[0,0.3],[0,0.5],[0,0.7],[0,0.9],[0.1,1],[0.2,1],[0.3,1],[0.4,1],[0.5,1],[0.6,1],[0.7,1],[0.8,1],[0.9,1],[1,0.1],[1,0.3],[1,0.5],[1,0.7],[1,0.9]];fillColor=#d5e8d4;strokeColor=#82b366;fontSize=13;" parent="1" vertex="1">
          <mxGeometry x="220" y="253.74" width="210" height="30" as="geometry" />
        </mxCell>
      </root>
    </mxGraphModel>
  </diagram>
  <diagram name="ontology-conf-sub" id="34DJfM9bwpybGwZDnGyE">
    <mxGraphModel dx="1804" dy="1725" grid="1" gridSize="10" guides="1" tooltips="1" connect="1" arrows="1" fold="1" page="1" pageScale="1" pageWidth="850" pageHeight="1100" math="0" shadow="0">
      <root>
        <mxCell id="CsSLyOHYdQu-0tk4jQ02-0" />
        <mxCell id="CsSLyOHYdQu-0tk4jQ02-1" parent="CsSLyOHYdQu-0tk4jQ02-0" />
        <mxCell id="CsSLyOHYdQu-0tk4jQ02-2" value="ys:sourceDatastore" style="edgeStyle=orthogonalEdgeStyle;rounded=0;orthogonalLoop=1;jettySize=auto;html=1;exitX=0.3;exitY=1;exitDx=0;exitDy=0;entryX=0.2;entryY=1;entryDx=0;entryDy=0;" edge="1" parent="CsSLyOHYdQu-0tk4jQ02-1" source="CsSLyOHYdQu-0tk4jQ02-77" target="CsSLyOHYdQu-0tk4jQ02-28">
          <mxGeometry x="-0.5831" y="-1" relative="1" as="geometry">
            <mxPoint x="625" y="474" as="sourcePoint" />
            <mxPoint x="789" y="499" as="targetPoint" />
            <Array as="points">
              <mxPoint x="443" y="540" />
              <mxPoint x="801" y="540" />
            </Array>
            <mxPoint as="offset" />
          </mxGeometry>
        </mxCell>
        <mxCell id="CsSLyOHYdQu-0tk4jQ02-3" value="" style="rounded=0;whiteSpace=wrap;html=1;rotation=90;fontFamily=Helvetica;" vertex="1" parent="CsSLyOHYdQu-0tk4jQ02-1">
          <mxGeometry x="-270.0000000000001" y="-18.559999999999945" width="275.82" height="171.71" as="geometry" />
        </mxCell>
        <mxCell id="CsSLyOHYdQu-0tk4jQ02-4" value="YANG Server" style="rounded=0;whiteSpace=wrap;html=1;fillColor=#d5e8d4;strokeColor=#82b366;fontFamily=Helvetica;" vertex="1" parent="CsSLyOHYdQu-0tk4jQ02-1">
          <mxGeometry x="-201.06999999999982" y="126.29999999999995" width="138.5" height="30" as="geometry" />
        </mxCell>
        <mxCell id="CsSLyOHYdQu-0tk4jQ02-5" value="Class" style="rounded=0;whiteSpace=wrap;html=1;fontFamily=Helvetica;" vertex="1" parent="CsSLyOHYdQu-0tk4jQ02-1">
          <mxGeometry x="-201.06999999999982" y="-39.989999999999895" width="139.5" height="30" as="geometry" />
        </mxCell>
        <mxCell id="CsSLyOHYdQu-0tk4jQ02-6" value="Data Property: datatype" style="rounded=0;whiteSpace=wrap;html=1;fontFamily=Helvetica;" vertex="1" parent="CsSLyOHYdQu-0tk4jQ02-1">
          <mxGeometry x="-201.06999999999982" y="-9.990000000000009" width="139.5" height="30" as="geometry" />
        </mxCell>
        <mxCell id="CsSLyOHYdQu-0tk4jQ02-7" value="Object Property" style="endArrow=classic;html=1;rounded=0;labelPosition=right;verticalLabelPosition=bottom;align=center;verticalAlign=middle;fontFamily=Helvetica;" edge="1" parent="CsSLyOHYdQu-0tk4jQ02-1">
          <mxGeometry width="50" height="50" relative="1" as="geometry">
            <mxPoint x="-201.06999999999982" y="76.29999999999995" as="sourcePoint" />
            <mxPoint x="-62.56999999999982" y="76.29999999999995" as="targetPoint" />
            <mxPoint as="offset" />
          </mxGeometry>
        </mxCell>
        <mxCell id="CsSLyOHYdQu-0tk4jQ02-8" value="subClassOf" style="endArrow=block;html=1;fontColor=#000000;endFill=0;endSize=8;arcSize=0;rounded=0;fontFamily=Helvetica;" edge="1" parent="CsSLyOHYdQu-0tk4jQ02-1">
          <mxGeometry width="50" height="50" relative="1" as="geometry">
            <mxPoint x="-201.06999999999982" y="94.58000000000015" as="sourcePoint" />
            <mxPoint x="-62.56999999999982" y="94.29999999999995" as="targetPoint" />
          </mxGeometry>
        </mxCell>
        <mxCell id="CsSLyOHYdQu-0tk4jQ02-9" value="&lt;b style=&quot;font-size: 10px;&quot;&gt;&lt;font data-font-src=&quot;https://fonts.googleapis.com/css?family=Roboto+Condensed&quot;&gt;Legend&lt;/font&gt;&lt;/b&gt;" style="text;html=1;strokeColor=none;fillColor=none;align=center;verticalAlign=middle;whiteSpace=wrap;rounded=0;fontSize=10;fontFamily=Helvetica;" vertex="1" parent="CsSLyOHYdQu-0tk4jQ02-1">
          <mxGeometry x="-212.56999999999982" y="-69.99999999999989" width="50" height="20" as="geometry" />
        </mxCell>
        <mxCell id="CsSLyOHYdQu-0tk4jQ02-10" value="&lt;u&gt;Individual&lt;/u&gt;" style="rounded=0;whiteSpace=wrap;html=1;fontFamily=Helvetica;" vertex="1" parent="CsSLyOHYdQu-0tk4jQ02-1">
          <mxGeometry x="-201.06999999999982" y="30.299999999999955" width="138.5" height="30" as="geometry" />
        </mxCell>
        <mxCell id="CsSLyOHYdQu-0tk4jQ02-11" value="&lt;div&gt;&lt;b&gt;dc:title&lt;/b&gt;: YANG Server Ontology&lt;br&gt;&lt;/div&gt;&lt;div&gt;&lt;b&gt;dc:created&lt;/b&gt;: &quot;2024-07-15&quot;^^xsd:date&lt;/div&gt;&lt;div&gt;&lt;b&gt;dc:creator:&lt;/b&gt;&amp;nbsp;Ignacio Dominguez Martinez-Casanueva&lt;br&gt;&lt;/div&gt;&lt;div&gt;&lt;b&gt;owl:versionInfo&lt;/b&gt;: 1.3.0&lt;br&gt;&lt;/div&gt;" style="shape=document;whiteSpace=wrap;html=1;boundedLbl=1;labelBackgroundColor=#ffffff;strokeColor=#000000;fontSize=12;fontColor=#000000;size=0.13333333333333333;align=left;spacingLeft=10;" vertex="1" parent="CsSLyOHYdQu-0tk4jQ02-1">
          <mxGeometry x="387.57000000000005" y="-70" width="320" height="80" as="geometry" />
        </mxCell>
        <mxCell id="CsSLyOHYdQu-0tk4jQ02-12" value="Reused Class" style="rounded=0;whiteSpace=wrap;html=1;fillColor=#f5f5f5;strokeColor=#666666;fontFamily=Helvetica;fontColor=#333333;" vertex="1" parent="CsSLyOHYdQu-0tk4jQ02-1">
          <mxGeometry x="-201.06999999999982" y="164.30999999999995" width="138.5" height="30" as="geometry" />
        </mxCell>
        <mxCell id="CsSLyOHYdQu-0tk4jQ02-13" value="&lt;div style=&quot;border-color: var(--border-color);&quot;&gt;&lt;b style=&quot;border-color: var(--border-color);&quot;&gt;ys&lt;/b&gt;:&amp;nbsp;&lt;span style=&quot;white-space: pre;&quot;&gt;&lt;font style=&quot;&quot; face=&quot;Helvetica&quot;&gt;https://w3id.org/yang/server#&lt;/font&gt;&lt;/span&gt;&lt;/div&gt;&lt;div style=&quot;border-color: var(--border-color);&quot;&gt;&lt;b style=&quot;background-color: initial; border-color: var(--border-color);&quot;&gt;dcterms:&amp;nbsp;&lt;/b&gt;&lt;span style=&quot;background-color: initial;&quot;&gt;http://purl.org/dc/terms/&lt;/span&gt;&lt;/div&gt;&lt;b style=&quot;border-color: var(--border-color);&quot;&gt;&lt;div style=&quot;&quot;&gt;&lt;/div&gt;&lt;/b&gt;" style="shape=note;whiteSpace=wrap;html=1;backgroundOutline=1;darkOpacity=0.05;size=13;align=left;spacingLeft=10;" vertex="1" parent="CsSLyOHYdQu-0tk4jQ02-1">
          <mxGeometry x="50" y="-70" width="310" height="70" as="geometry" />
        </mxCell>
        <mxCell id="CsSLyOHYdQu-0tk4jQ02-14" value="ys:datastore" style="edgeStyle=orthogonalEdgeStyle;rounded=0;orthogonalLoop=1;jettySize=auto;html=1;exitX=0.5;exitY=1;exitDx=0;exitDy=0;" edge="1" parent="CsSLyOHYdQu-0tk4jQ02-1" source="CsSLyOHYdQu-0tk4jQ02-15" target="CsSLyOHYdQu-0tk4jQ02-28">
          <mxGeometry relative="1" as="geometry" />
        </mxCell>
        <mxCell id="CsSLyOHYdQu-0tk4jQ02-15" value="&lt;div&gt;ys:endpoint: xsd:string&lt;/div&gt;&lt;div&gt;&lt;span style=&quot;background-color: initial;&quot;&gt;ys:username: xsd:string&lt;/span&gt;&lt;br&gt;&lt;/div&gt;&lt;div&gt;&lt;span style=&quot;background-color: initial;&quot;&gt;ys:password: xsd:string&lt;/span&gt;&lt;/div&gt;" style="rounded=0;whiteSpace=wrap;html=1;snapToPoint=1;points=[[0.1,0],[0.2,0],[0.3,0],[0.4,0],[0.5,0],[0.6,0],[0.7,0],[0.8,0],[0.9,0],[0,0.1],[0,0.3],[0,0.5],[0,0.7],[0,0.9],[0.1,1],[0.2,1],[0.3,1],[0.4,1],[0.5,1],[0.6,1],[0.7,1],[0.8,1],[0.9,1],[1,0.1],[1,0.3],[1,0.5],[1,0.7],[1,0.9]];align=left;spacingLeft=10;" vertex="1" parent="CsSLyOHYdQu-0tk4jQ02-1">
          <mxGeometry x="759.32" y="354.61" width="150" height="55.39" as="geometry" />
        </mxCell>
        <mxCell id="CsSLyOHYdQu-0tk4jQ02-16" value="ys:profile" style="edgeStyle=orthogonalEdgeStyle;rounded=0;orthogonalLoop=1;jettySize=auto;html=1;exitX=0.5;exitY=1;exitDx=0;exitDy=0;entryX=0.5;entryY=0;entryDx=0;entryDy=0;" edge="1" parent="CsSLyOHYdQu-0tk4jQ02-1" source="CsSLyOHYdQu-0tk4jQ02-26" target="CsSLyOHYdQu-0tk4jQ02-24">
          <mxGeometry x="-0.168" relative="1" as="geometry">
            <Array as="points" />
            <mxPoint as="offset" />
          </mxGeometry>
        </mxCell>
        <mxCell id="CsSLyOHYdQu-0tk4jQ02-17" value="ys:YangServer" style="rounded=0;whiteSpace=wrap;html=1;snapToPoint=1;points=[[0.1,0],[0.2,0],[0.3,0],[0.4,0],[0.5,0],[0.6,0],[0.7,0],[0.8,0],[0.9,0],[0,0.1],[0,0.3],[0,0.5],[0,0.7],[0,0.9],[0.1,1],[0.2,1],[0.3,1],[0.4,1],[0.5,1],[0.6,1],[0.7,1],[0.8,1],[0.9,1],[1,0.1],[1,0.3],[1,0.5],[1,0.7],[1,0.9]];fillColor=#d5e8d4;strokeColor=#82b366;" vertex="1" parent="CsSLyOHYdQu-0tk4jQ02-1">
          <mxGeometry x="759.32" y="324.60999999999996" width="150" height="30" as="geometry" />
        </mxCell>
        <mxCell id="CsSLyOHYdQu-0tk4jQ02-18" value="ys:vendor" style="edgeStyle=orthogonalEdgeStyle;rounded=0;orthogonalLoop=1;jettySize=auto;html=1;entryX=0.5;entryY=0;entryDx=0;entryDy=0;exitX=0.5;exitY=1;exitDx=0;exitDy=0;" edge="1" parent="CsSLyOHYdQu-0tk4jQ02-1" source="CsSLyOHYdQu-0tk4jQ02-21" target="CsSLyOHYdQu-0tk4jQ02-23">
          <mxGeometry relative="1" as="geometry">
            <mxPoint x="1260.6249999999998" y="571.8299999999999" as="targetPoint" />
          </mxGeometry>
        </mxCell>
        <mxCell id="CsSLyOHYdQu-0tk4jQ02-19" value="" style="endArrow=block;html=1;fontColor=#000099;endFill=0;entryX=1;entryY=0.5;entryDx=0;entryDy=0;endSize=8;arcSize=0;rounded=0;edgeStyle=orthogonalEdgeStyle;exitX=0;exitY=0.5;exitDx=0;exitDy=0;" edge="1" parent="CsSLyOHYdQu-0tk4jQ02-1" source="CsSLyOHYdQu-0tk4jQ02-27" target="CsSLyOHYdQu-0tk4jQ02-17">
          <mxGeometry width="50" height="50" relative="1" as="geometry">
            <mxPoint x="943.7099999999999" y="369.33" as="sourcePoint" />
            <mxPoint x="1099.71" y="416.33" as="targetPoint" />
            <Array as="points">
              <mxPoint x="973.75" y="339.45" />
              <mxPoint x="973.75" y="339.45" />
            </Array>
          </mxGeometry>
        </mxCell>
        <mxCell id="CsSLyOHYdQu-0tk4jQ02-20" value="&lt;span style=&quot;color: rgb(0, 0, 0); font-size: 11px;&quot;&gt;rdf:type&lt;/span&gt;" style="endArrow=open;html=1;rounded=0;labelPosition=right;verticalLabelPosition=bottom;align=center;verticalAlign=middle;fontFamily=Helvetica;dashed=1;strokeColor=default;fontSize=8;fontColor=#000099;labelBackgroundColor=default;endFill=0;endSize=8;" edge="1" parent="CsSLyOHYdQu-0tk4jQ02-1">
          <mxGeometry width="50" height="50" relative="1" as="geometry">
            <mxPoint x="-201.06999999999982" y="112.29999999999995" as="sourcePoint" />
            <mxPoint x="-62.56999999999982" y="112.29999999999995" as="targetPoint" />
            <mxPoint as="offset" />
          </mxGeometry>
        </mxCell>
        <mxCell id="CsSLyOHYdQu-0tk4jQ02-21" value="&lt;div&gt;dcterms:name: xsd:string&lt;/div&gt;" style="rounded=0;whiteSpace=wrap;html=1;snapToPoint=1;points=[[0.1,0],[0.2,0],[0.3,0],[0.4,0],[0.5,0],[0.6,0],[0.7,0],[0.8,0],[0.9,0],[0,0.1],[0,0.3],[0,0.5],[0,0.7],[0,0.9],[0.1,1],[0.2,1],[0.3,1],[0.4,1],[0.5,1],[0.6,1],[0.7,1],[0.8,1],[0.9,1],[1,0.1],[1,0.3],[1,0.5],[1,0.7],[1,0.9]];align=left;spacingLeft=10;" vertex="1" parent="CsSLyOHYdQu-0tk4jQ02-1">
          <mxGeometry x="986.2" y="464.31" width="159.48" height="28.12" as="geometry" />
        </mxCell>
        <mxCell id="CsSLyOHYdQu-0tk4jQ02-22" value="&lt;div&gt;dcterms:name: xsd:string&lt;/div&gt;" style="rounded=0;whiteSpace=wrap;html=1;snapToPoint=1;points=[[0.1,0],[0.2,0],[0.3,0],[0.4,0],[0.5,0],[0.6,0],[0.7,0],[0.8,0],[0.9,0],[0,0.1],[0,0.3],[0,0.5],[0,0.7],[0,0.9],[0.1,1],[0.2,1],[0.3,1],[0.4,1],[0.5,1],[0.6,1],[0.7,1],[0.8,1],[0.9,1],[1,0.1],[1,0.3],[1,0.5],[1,0.7],[1,0.9]];align=left;spacingLeft=10;" vertex="1" parent="CsSLyOHYdQu-0tk4jQ02-1">
          <mxGeometry x="985.6799999999998" y="580" width="159.48" height="28.12" as="geometry" />
        </mxCell>
        <mxCell id="CsSLyOHYdQu-0tk4jQ02-23" value="ys:Vendor" style="rounded=0;whiteSpace=wrap;html=1;snapToPoint=1;points=[[0.1,0],[0.2,0],[0.3,0],[0.4,0],[0.5,0],[0.6,0],[0.7,0],[0.8,0],[0.9,0],[0,0.1],[0,0.3],[0,0.5],[0,0.7],[0,0.9],[0.1,1],[0.2,1],[0.3,1],[0.4,1],[0.5,1],[0.6,1],[0.7,1],[0.8,1],[0.9,1],[1,0.1],[1,0.3],[1,0.5],[1,0.7],[1,0.9]];fillColor=#d5e8d4;strokeColor=#82b366;" vertex="1" parent="CsSLyOHYdQu-0tk4jQ02-1">
          <mxGeometry x="985.6800000000001" y="550" width="160" height="30" as="geometry" />
        </mxCell>
        <mxCell id="CsSLyOHYdQu-0tk4jQ02-24" value="ys:NetconfProfile" style="rounded=0;whiteSpace=wrap;html=1;snapToPoint=1;points=[[0.1,0],[0.2,0],[0.3,0],[0.4,0],[0.5,0],[0.6,0],[0.7,0],[0.8,0],[0.9,0],[0,0.1],[0,0.3],[0,0.5],[0,0.7],[0,0.9],[0.1,1],[0.2,1],[0.3,1],[0.4,1],[0.5,1],[0.6,1],[0.7,1],[0.8,1],[0.9,1],[1,0.1],[1,0.3],[1,0.5],[1,0.7],[1,0.9]];fillColor=#d5e8d4;strokeColor=#82b366;" vertex="1" parent="CsSLyOHYdQu-0tk4jQ02-1">
          <mxGeometry x="986.2" y="434.31" width="159.48" height="30" as="geometry" />
        </mxCell>
        <mxCell id="CsSLyOHYdQu-0tk4jQ02-25" value="ys:capability" style="edgeStyle=orthogonalEdgeStyle;rounded=0;orthogonalLoop=1;jettySize=auto;html=1;exitX=0.5;exitY=0;exitDx=0;exitDy=0;entryX=0.5;entryY=1;entryDx=0;entryDy=0;" edge="1" parent="CsSLyOHYdQu-0tk4jQ02-1" source="CsSLyOHYdQu-0tk4jQ02-27" target="CsSLyOHYdQu-0tk4jQ02-55">
          <mxGeometry relative="1" as="geometry">
            <Array as="points" />
            <mxPoint as="offset" />
            <mxPoint x="1010.3899999999999" y="364.45" as="sourcePoint" />
            <mxPoint x="1065.42" y="258.12" as="targetPoint" />
          </mxGeometry>
        </mxCell>
        <mxCell id="CsSLyOHYdQu-0tk4jQ02-26" value="&lt;div&gt;ys:hostKeyVerification: xsd:boolean&lt;/div&gt;" style="rounded=0;whiteSpace=wrap;html=1;snapToPoint=1;points=[[0.1,0],[0.2,0],[0.3,0],[0.4,0],[0.5,0],[0.6,0],[0.7,0],[0.8,0],[0.9,0],[0,0.1],[0,0.3],[0,0.5],[0,0.7],[0,0.9],[0.1,1],[0.2,1],[0.3,1],[0.4,1],[0.5,1],[0.6,1],[0.7,1],[0.8,1],[0.9,1],[1,0.1],[1,0.3],[1,0.5],[1,0.7],[1,0.9]];align=left;spacingLeft=10;" vertex="1" parent="CsSLyOHYdQu-0tk4jQ02-1">
          <mxGeometry x="960" y="354.59000000000003" width="211.88" height="25.4" as="geometry" />
        </mxCell>
        <mxCell id="CsSLyOHYdQu-0tk4jQ02-27" value="ys:NetconfServer" style="rounded=0;whiteSpace=wrap;html=1;snapToPoint=1;points=[[0.1,0],[0.2,0],[0.3,0],[0.4,0],[0.5,0],[0.6,0],[0.7,0],[0.8,0],[0.9,0],[0,0.1],[0,0.3],[0,0.5],[0,0.7],[0,0.9],[0.1,1],[0.2,1],[0.3,1],[0.4,1],[0.5,1],[0.6,1],[0.7,1],[0.8,1],[0.9,1],[1,0.1],[1,0.3],[1,0.5],[1,0.7],[1,0.9]];fillColor=#d5e8d4;strokeColor=#82b366;" vertex="1" parent="CsSLyOHYdQu-0tk4jQ02-1">
          <mxGeometry x="960" y="324.59999999999997" width="211.88" height="30" as="geometry" />
        </mxCell>
        <mxCell id="CsSLyOHYdQu-0tk4jQ02-28" value="ys:Datastore" style="rounded=0;whiteSpace=wrap;html=1;snapToPoint=1;points=[[0.1,0],[0.2,0],[0.3,0],[0.4,0],[0.5,0],[0.6,0],[0.7,0],[0.8,0],[0.9,0],[0,0.1],[0,0.3],[0,0.5],[0,0.7],[0,0.9],[0.1,1],[0.2,1],[0.3,1],[0.4,1],[0.5,1],[0.6,1],[0.7,1],[0.8,1],[0.9,1],[1,0.1],[1,0.3],[1,0.5],[1,0.7],[1,0.9]];fillColor=#d5e8d4;strokeColor=#82b366;" vertex="1" parent="CsSLyOHYdQu-0tk4jQ02-1">
          <mxGeometry x="778.64" y="485" width="111.36" height="30" as="geometry" />
        </mxCell>
        <mxCell id="CsSLyOHYdQu-0tk4jQ02-29" value="ys:DynamicDatastore" style="rounded=0;whiteSpace=wrap;html=1;snapToPoint=1;points=[[0.1,0],[0.2,0],[0.3,0],[0.4,0],[0.5,0],[0.6,0],[0.7,0],[0.8,0],[0.9,0],[0,0.1],[0,0.3],[0,0.5],[0,0.7],[0,0.9],[0.1,1],[0.2,1],[0.3,1],[0.4,1],[0.5,1],[0.6,1],[0.7,1],[0.8,1],[0.9,1],[1,0.1],[1,0.3],[1,0.5],[1,0.7],[1,0.9]];fillColor=#d5e8d4;strokeColor=#82b366;" vertex="1" parent="CsSLyOHYdQu-0tk4jQ02-1">
          <mxGeometry x="660" y="578.16" width="130" height="30" as="geometry" />
        </mxCell>
        <mxCell id="CsSLyOHYdQu-0tk4jQ02-30" value="ys:ConventionalDatastore" style="rounded=0;whiteSpace=wrap;html=1;snapToPoint=1;points=[[0.1,0],[0.2,0],[0.3,0],[0.4,0],[0.5,0],[0.6,0],[0.7,0],[0.8,0],[0.9,0],[0,0.1],[0,0.3],[0,0.5],[0,0.7],[0,0.9],[0.1,1],[0.2,1],[0.3,1],[0.4,1],[0.5,1],[0.6,1],[0.7,1],[0.8,1],[0.9,1],[1,0.1],[1,0.3],[1,0.5],[1,0.7],[1,0.9]];fillColor=#d5e8d4;strokeColor=#82b366;" vertex="1" parent="CsSLyOHYdQu-0tk4jQ02-1">
          <mxGeometry x="500" y="578.16" width="151.36" height="30" as="geometry" />
        </mxCell>
        <mxCell id="CsSLyOHYdQu-0tk4jQ02-31" value="ys:RunningDatastore" style="rounded=0;whiteSpace=wrap;html=1;snapToPoint=1;points=[[0.1,0],[0.2,0],[0.3,0],[0.4,0],[0.5,0],[0.6,0],[0.7,0],[0.8,0],[0.9,0],[0,0.1],[0,0.3],[0,0.5],[0,0.7],[0,0.9],[0.1,1],[0.2,1],[0.3,1],[0.4,1],[0.5,1],[0.6,1],[0.7,1],[0.8,1],[0.9,1],[1,0.1],[1,0.3],[1,0.5],[1,0.7],[1,0.9]];fillColor=#d5e8d4;strokeColor=#82b366;" vertex="1" parent="CsSLyOHYdQu-0tk4jQ02-1">
          <mxGeometry x="450" y="661" width="128.79" height="30" as="geometry" />
        </mxCell>
        <mxCell id="CsSLyOHYdQu-0tk4jQ02-32" value="ys:IntendedDatastore" style="rounded=0;whiteSpace=wrap;html=1;snapToPoint=1;points=[[0.1,0],[0.2,0],[0.3,0],[0.4,0],[0.5,0],[0.6,0],[0.7,0],[0.8,0],[0.9,0],[0,0.1],[0,0.3],[0,0.5],[0,0.7],[0,0.9],[0.1,1],[0.2,1],[0.3,1],[0.4,1],[0.5,1],[0.6,1],[0.7,1],[0.8,1],[0.9,1],[1,0.1],[1,0.3],[1,0.5],[1,0.7],[1,0.9]];fillColor=#d5e8d4;strokeColor=#82b366;" vertex="1" parent="CsSLyOHYdQu-0tk4jQ02-1">
          <mxGeometry x="732.57" y="661" width="130" height="30" as="geometry" />
        </mxCell>
        <mxCell id="CsSLyOHYdQu-0tk4jQ02-33" value="ys:CandidateDatastore" style="rounded=0;whiteSpace=wrap;html=1;snapToPoint=1;points=[[0.1,0],[0.2,0],[0.3,0],[0.4,0],[0.5,0],[0.6,0],[0.7,0],[0.8,0],[0.9,0],[0,0.1],[0,0.3],[0,0.5],[0,0.7],[0,0.9],[0.1,1],[0.2,1],[0.3,1],[0.4,1],[0.5,1],[0.6,1],[0.7,1],[0.8,1],[0.9,1],[1,0.1],[1,0.3],[1,0.5],[1,0.7],[1,0.9]];fillColor=#d5e8d4;strokeColor=#82b366;" vertex="1" parent="CsSLyOHYdQu-0tk4jQ02-1">
          <mxGeometry x="590" y="661" width="132.57" height="30" as="geometry" />
        </mxCell>
        <mxCell id="CsSLyOHYdQu-0tk4jQ02-34" value="ys:StartupDatastore" style="rounded=0;whiteSpace=wrap;html=1;snapToPoint=1;points=[[0.1,0],[0.2,0],[0.3,0],[0.4,0],[0.5,0],[0.6,0],[0.7,0],[0.8,0],[0.9,0],[0,0.1],[0,0.3],[0,0.5],[0,0.7],[0,0.9],[0.1,1],[0.2,1],[0.3,1],[0.4,1],[0.5,1],[0.6,1],[0.7,1],[0.8,1],[0.9,1],[1,0.1],[1,0.3],[1,0.5],[1,0.7],[1,0.9]];fillColor=#d5e8d4;strokeColor=#82b366;" vertex="1" parent="CsSLyOHYdQu-0tk4jQ02-1">
          <mxGeometry x="876.0699999999999" y="661" width="121.36" height="30" as="geometry" />
        </mxCell>
        <mxCell id="CsSLyOHYdQu-0tk4jQ02-35" value="ys:OperationalDatastore" style="rounded=0;whiteSpace=wrap;html=1;snapToPoint=1;points=[[0.1,0],[0.2,0],[0.3,0],[0.4,0],[0.5,0],[0.6,0],[0.7,0],[0.8,0],[0.9,0],[0,0.1],[0,0.3],[0,0.5],[0,0.7],[0,0.9],[0.1,1],[0.2,1],[0.3,1],[0.4,1],[0.5,1],[0.6,1],[0.7,1],[0.8,1],[0.9,1],[1,0.1],[1,0.3],[1,0.5],[1,0.7],[1,0.9]];fillColor=#d5e8d4;strokeColor=#82b366;" vertex="1" parent="CsSLyOHYdQu-0tk4jQ02-1">
          <mxGeometry x="800" y="578.16" width="140" height="30" as="geometry" />
        </mxCell>
        <mxCell id="CsSLyOHYdQu-0tk4jQ02-36" value="" style="endArrow=block;html=1;fontColor=#000000;endFill=0;endSize=8;arcSize=0;rounded=0;fontFamily=Helvetica;entryX=0.5;entryY=1;entryDx=0;entryDy=0;exitX=0.5;exitY=0;exitDx=0;exitDy=0;edgeStyle=orthogonalEdgeStyle;" edge="1" parent="CsSLyOHYdQu-0tk4jQ02-1" source="CsSLyOHYdQu-0tk4jQ02-30" target="CsSLyOHYdQu-0tk4jQ02-28">
          <mxGeometry width="50" height="50" relative="1" as="geometry">
            <mxPoint x="498.93000000000006" y="507.4300000000002" as="sourcePoint" />
            <mxPoint x="637.4300000000001" y="507.15" as="targetPoint" />
            <Array as="points">
              <mxPoint x="576" y="560" />
              <mxPoint x="834" y="560" />
            </Array>
          </mxGeometry>
        </mxCell>
        <mxCell id="CsSLyOHYdQu-0tk4jQ02-37" value="" style="endArrow=block;html=1;fontColor=#000000;endFill=0;endSize=8;arcSize=0;rounded=0;fontFamily=Helvetica;entryX=0.5;entryY=1;entryDx=0;entryDy=0;exitX=0.5;exitY=0;exitDx=0;exitDy=0;edgeStyle=orthogonalEdgeStyle;" edge="1" parent="CsSLyOHYdQu-0tk4jQ02-1" source="CsSLyOHYdQu-0tk4jQ02-29" target="CsSLyOHYdQu-0tk4jQ02-28">
          <mxGeometry width="50" height="50" relative="1" as="geometry">
            <mxPoint x="766" y="577" as="sourcePoint" />
            <mxPoint x="844" y="530" as="targetPoint" />
            <Array as="points">
              <mxPoint x="725" y="560" />
              <mxPoint x="834" y="560" />
            </Array>
          </mxGeometry>
        </mxCell>
        <mxCell id="CsSLyOHYdQu-0tk4jQ02-38" value="" style="endArrow=block;html=1;fontColor=#000000;endFill=0;endSize=8;arcSize=0;rounded=0;fontFamily=Helvetica;entryX=0.5;entryY=1;entryDx=0;entryDy=0;exitX=0.5;exitY=0;exitDx=0;exitDy=0;edgeStyle=orthogonalEdgeStyle;" edge="1" parent="CsSLyOHYdQu-0tk4jQ02-1" source="CsSLyOHYdQu-0tk4jQ02-35" target="CsSLyOHYdQu-0tk4jQ02-28">
          <mxGeometry width="50" height="50" relative="1" as="geometry">
            <mxPoint x="925" y="577" as="sourcePoint" />
            <mxPoint x="844" y="530" as="targetPoint" />
            <Array as="points">
              <mxPoint x="870" y="560" />
              <mxPoint x="834" y="560" />
            </Array>
          </mxGeometry>
        </mxCell>
        <mxCell id="CsSLyOHYdQu-0tk4jQ02-39" value="" style="endArrow=block;html=1;fontColor=#000000;endFill=0;endSize=8;arcSize=0;rounded=0;fontFamily=Helvetica;entryX=0.5;entryY=1;entryDx=0;entryDy=0;exitX=0.4;exitY=0;exitDx=0;exitDy=0;edgeStyle=orthogonalEdgeStyle;" edge="1" parent="CsSLyOHYdQu-0tk4jQ02-1" source="CsSLyOHYdQu-0tk4jQ02-31" target="CsSLyOHYdQu-0tk4jQ02-30">
          <mxGeometry width="50" height="50" relative="1" as="geometry">
            <mxPoint x="990" y="588" as="sourcePoint" />
            <mxPoint x="764" y="541" as="targetPoint" />
          </mxGeometry>
        </mxCell>
        <mxCell id="CsSLyOHYdQu-0tk4jQ02-40" value="" style="endArrow=block;html=1;fontColor=#000000;endFill=0;endSize=8;arcSize=0;rounded=0;fontFamily=Helvetica;exitX=0.5;exitY=0;exitDx=0;exitDy=0;edgeStyle=orthogonalEdgeStyle;entryX=0.5;entryY=1;entryDx=0;entryDy=0;" edge="1" parent="CsSLyOHYdQu-0tk4jQ02-1" source="CsSLyOHYdQu-0tk4jQ02-33" target="CsSLyOHYdQu-0tk4jQ02-30">
          <mxGeometry width="50" height="50" relative="1" as="geometry">
            <mxPoint x="506" y="671" as="sourcePoint" />
            <mxPoint x="700" y="621" as="targetPoint" />
          </mxGeometry>
        </mxCell>
        <mxCell id="CsSLyOHYdQu-0tk4jQ02-41" value="" style="endArrow=block;html=1;fontColor=#000000;endFill=0;endSize=8;arcSize=0;rounded=0;fontFamily=Helvetica;exitX=0.5;exitY=0;exitDx=0;exitDy=0;edgeStyle=orthogonalEdgeStyle;entryX=0.5;entryY=1;entryDx=0;entryDy=0;" edge="1" parent="CsSLyOHYdQu-0tk4jQ02-1" source="CsSLyOHYdQu-0tk4jQ02-32" target="CsSLyOHYdQu-0tk4jQ02-30">
          <mxGeometry width="50" height="50" relative="1" as="geometry">
            <mxPoint x="663" y="671" as="sourcePoint" />
            <mxPoint x="686" y="618" as="targetPoint" />
          </mxGeometry>
        </mxCell>
        <mxCell id="CsSLyOHYdQu-0tk4jQ02-42" value="" style="endArrow=block;html=1;fontColor=#000000;endFill=0;endSize=8;arcSize=0;rounded=0;fontFamily=Helvetica;exitX=0.5;exitY=0;exitDx=0;exitDy=0;edgeStyle=orthogonalEdgeStyle;entryX=0.5;entryY=1;entryDx=0;entryDy=0;" edge="1" parent="CsSLyOHYdQu-0tk4jQ02-1" source="CsSLyOHYdQu-0tk4jQ02-34" target="CsSLyOHYdQu-0tk4jQ02-30">
          <mxGeometry width="50" height="50" relative="1" as="geometry">
            <mxPoint x="812" y="671" as="sourcePoint" />
            <mxPoint x="686" y="618" as="targetPoint" />
          </mxGeometry>
        </mxCell>
        <mxCell id="CsSLyOHYdQu-0tk4jQ02-43" value="ys:filter" style="edgeStyle=orthogonalEdgeStyle;rounded=0;orthogonalLoop=1;jettySize=auto;html=1;exitX=0.5;exitY=0;exitDx=0;exitDy=0;entryX=0.5;entryY=1;entryDx=0;entryDy=0;" edge="1" parent="CsSLyOHYdQu-0tk4jQ02-1" source="CsSLyOHYdQu-0tk4jQ02-46" target="CsSLyOHYdQu-0tk4jQ02-53">
          <mxGeometry relative="1" as="geometry" />
        </mxCell>
        <mxCell id="CsSLyOHYdQu-0tk4jQ02-44" value="ys:sourceDatastore" style="edgeStyle=orthogonalEdgeStyle;rounded=0;orthogonalLoop=1;jettySize=auto;html=1;exitX=0.5;exitY=1;exitDx=0;exitDy=0;entryX=0;entryY=0.5;entryDx=0;entryDy=0;" edge="1" parent="CsSLyOHYdQu-0tk4jQ02-1" source="CsSLyOHYdQu-0tk4jQ02-46" target="CsSLyOHYdQu-0tk4jQ02-28">
          <mxGeometry relative="1" as="geometry">
            <Array as="points">
              <mxPoint x="615" y="500" />
            </Array>
          </mxGeometry>
        </mxCell>
        <mxCell id="CsSLyOHYdQu-0tk4jQ02-45" value="ys:sourceServer" style="edgeStyle=orthogonalEdgeStyle;rounded=0;orthogonalLoop=1;jettySize=auto;html=1;exitX=1;exitY=0.5;exitDx=0;exitDy=0;entryX=0;entryY=0.5;entryDx=0;entryDy=0;" edge="1" parent="CsSLyOHYdQu-0tk4jQ02-1" source="CsSLyOHYdQu-0tk4jQ02-46" target="CsSLyOHYdQu-0tk4jQ02-17">
          <mxGeometry x="-0.1565" y="15" relative="1" as="geometry">
            <mxPoint as="offset" />
          </mxGeometry>
        </mxCell>
        <mxCell id="CsSLyOHYdQu-0tk4jQ02-46" value="ys:Query" style="rounded=0;whiteSpace=wrap;html=1;snapToPoint=1;points=[[0.1,0],[0.2,0],[0.3,0],[0.4,0],[0.5,0],[0.6,0],[0.7,0],[0.8,0],[0.9,0],[0,0.1],[0,0.3],[0,0.5],[0,0.7],[0,0.9],[0.1,1],[0.2,1],[0.3,1],[0.4,1],[0.5,1],[0.6,1],[0.7,1],[0.8,1],[0.9,1],[1,0.1],[1,0.3],[1,0.5],[1,0.7],[1,0.9]];fillColor=#d5e8d4;strokeColor=#82b366;" vertex="1" parent="CsSLyOHYdQu-0tk4jQ02-1">
          <mxGeometry x="559.32" y="420" width="111.36" height="30" as="geometry" />
        </mxCell>
        <mxCell id="CsSLyOHYdQu-0tk4jQ02-47" value="ys:xpathValue: xsd:string" style="rounded=0;whiteSpace=wrap;html=1;snapToPoint=1;points=[[0.1,0],[0.2,0],[0.3,0],[0.4,0],[0.5,0],[0.6,0],[0.7,0],[0.8,0],[0.9,0],[0,0.1],[0,0.3],[0,0.5],[0,0.7],[0,0.9],[0.1,1],[0.2,1],[0.3,1],[0.4,1],[0.5,1],[0.6,1],[0.7,1],[0.8,1],[0.9,1],[1,0.1],[1,0.3],[1,0.5],[1,0.7],[1,0.9]];align=left;spacingLeft=10;" vertex="1" parent="CsSLyOHYdQu-0tk4jQ02-1">
          <mxGeometry x="516.07" y="230" width="153.93" height="28.12" as="geometry" />
        </mxCell>
        <mxCell id="CsSLyOHYdQu-0tk4jQ02-48" value="ys:subtreeValue: rdf:XMLLiteral" style="rounded=0;whiteSpace=wrap;html=1;snapToPoint=1;points=[[0.1,0],[0.2,0],[0.3,0],[0.4,0],[0.5,0],[0.6,0],[0.7,0],[0.8,0],[0.9,0],[0,0.1],[0,0.3],[0,0.5],[0,0.7],[0,0.9],[0.1,1],[0.2,1],[0.3,1],[0.4,1],[0.5,1],[0.6,1],[0.7,1],[0.8,1],[0.9,1],[1,0.1],[1,0.3],[1,0.5],[1,0.7],[1,0.9]];align=left;spacingLeft=10;" vertex="1" parent="CsSLyOHYdQu-0tk4jQ02-1">
          <mxGeometry x="691.73" y="230" width="184.34" height="28.12" as="geometry" />
        </mxCell>
        <mxCell id="CsSLyOHYdQu-0tk4jQ02-49" value="ys:SubtreeFilter" style="rounded=0;whiteSpace=wrap;html=1;snapToPoint=1;points=[[0.1,0],[0.2,0],[0.3,0],[0.4,0],[0.5,0],[0.6,0],[0.7,0],[0.8,0],[0.9,0],[0,0.1],[0,0.3],[0,0.5],[0,0.7],[0,0.9],[0.1,1],[0.2,1],[0.3,1],[0.4,1],[0.5,1],[0.6,1],[0.7,1],[0.8,1],[0.9,1],[1,0.1],[1,0.3],[1,0.5],[1,0.7],[1,0.9]];fillColor=#d5e8d4;strokeColor=#82b366;" vertex="1" parent="CsSLyOHYdQu-0tk4jQ02-1">
          <mxGeometry x="691.73" y="200" width="184.34" height="30" as="geometry" />
        </mxCell>
        <mxCell id="CsSLyOHYdQu-0tk4jQ02-50" value="ys:XPathFilter" style="rounded=0;whiteSpace=wrap;html=1;snapToPoint=1;points=[[0.1,0],[0.2,0],[0.3,0],[0.4,0],[0.5,0],[0.6,0],[0.7,0],[0.8,0],[0.9,0],[0,0.1],[0,0.3],[0,0.5],[0,0.7],[0,0.9],[0.1,1],[0.2,1],[0.3,1],[0.4,1],[0.5,1],[0.6,1],[0.7,1],[0.8,1],[0.9,1],[1,0.1],[1,0.3],[1,0.5],[1,0.7],[1,0.9]];fillColor=#d5e8d4;strokeColor=#82b366;" vertex="1" parent="CsSLyOHYdQu-0tk4jQ02-1">
          <mxGeometry x="516.07" y="200" width="153.93" height="30" as="geometry" />
        </mxCell>
        <mxCell id="CsSLyOHYdQu-0tk4jQ02-51" value="" style="endArrow=block;html=1;fontColor=#000000;endFill=0;endSize=8;arcSize=0;rounded=0;fontFamily=Helvetica;entryX=0.5;entryY=0;entryDx=0;entryDy=0;exitX=0.5;exitY=1;exitDx=0;exitDy=0;edgeStyle=orthogonalEdgeStyle;" edge="1" parent="CsSLyOHYdQu-0tk4jQ02-1" source="CsSLyOHYdQu-0tk4jQ02-47" target="CsSLyOHYdQu-0tk4jQ02-54">
          <mxGeometry width="50" height="50" relative="1" as="geometry">
            <mxPoint x="1046.07" y="577" as="sourcePoint" />
            <mxPoint x="621.7500000000001" y="324.5999999999999" as="targetPoint" />
          </mxGeometry>
        </mxCell>
        <mxCell id="CsSLyOHYdQu-0tk4jQ02-52" value="" style="endArrow=block;html=1;fontColor=#000000;endFill=0;endSize=8;arcSize=0;rounded=0;fontFamily=Helvetica;entryX=0.5;entryY=0;entryDx=0;entryDy=0;exitX=0.5;exitY=1;exitDx=0;exitDy=0;edgeStyle=orthogonalEdgeStyle;" edge="1" parent="CsSLyOHYdQu-0tk4jQ02-1" source="CsSLyOHYdQu-0tk4jQ02-48" target="CsSLyOHYdQu-0tk4jQ02-54">
          <mxGeometry width="50" height="50" relative="1" as="geometry">
            <mxPoint x="601.07" y="265" as="sourcePoint" />
            <mxPoint x="621.7500000000001" y="324.5999999999999" as="targetPoint" />
          </mxGeometry>
        </mxCell>
        <mxCell id="CsSLyOHYdQu-0tk4jQ02-53" value="ys:filterValue" style="rounded=0;whiteSpace=wrap;html=1;snapToPoint=1;points=[[0.1,0],[0.2,0],[0.3,0],[0.4,0],[0.5,0],[0.6,0],[0.7,0],[0.8,0],[0.9,0],[0,0.1],[0,0.3],[0,0.5],[0,0.7],[0,0.9],[0.1,1],[0.2,1],[0.3,1],[0.4,1],[0.5,1],[0.6,1],[0.7,1],[0.8,1],[0.9,1],[1,0.1],[1,0.3],[1,0.5],[1,0.7],[1,0.9]];align=center;spacingLeft=0;spacing=0;" vertex="1" parent="CsSLyOHYdQu-0tk4jQ02-1">
          <mxGeometry x="560" y="353.23" width="110" height="28.12" as="geometry" />
        </mxCell>
        <mxCell id="CsSLyOHYdQu-0tk4jQ02-54" value="ys:Filter" style="rounded=0;whiteSpace=wrap;html=1;snapToPoint=1;points=[[0.1,0],[0.2,0],[0.3,0],[0.4,0],[0.5,0],[0.6,0],[0.7,0],[0.8,0],[0.9,0],[0,0.1],[0,0.3],[0,0.5],[0,0.7],[0,0.9],[0.1,1],[0.2,1],[0.3,1],[0.4,1],[0.5,1],[0.6,1],[0.7,1],[0.8,1],[0.9,1],[1,0.1],[1,0.3],[1,0.5],[1,0.7],[1,0.9]];fillColor=#d5e8d4;strokeColor=#82b366;" vertex="1" parent="CsSLyOHYdQu-0tk4jQ02-1">
          <mxGeometry x="560" y="324.6" width="110" height="30" as="geometry" />
        </mxCell>
        <mxCell id="CsSLyOHYdQu-0tk4jQ02-55" value="&lt;div&gt;dcterms:identifier: xsd:string&lt;/div&gt;" style="rounded=0;whiteSpace=wrap;html=1;snapToPoint=1;points=[[0.1,0],[0.2,0],[0.3,0],[0.4,0],[0.5,0],[0.6,0],[0.7,0],[0.8,0],[0.9,0],[0,0.1],[0,0.3],[0,0.5],[0,0.7],[0,0.9],[0.1,1],[0.2,1],[0.3,1],[0.4,1],[0.5,1],[0.6,1],[0.7,1],[0.8,1],[0.9,1],[1,0.1],[1,0.3],[1,0.5],[1,0.7],[1,0.9]];align=left;spacingLeft=10;" vertex="1" parent="CsSLyOHYdQu-0tk4jQ02-1">
          <mxGeometry x="980.42" y="230" width="170" height="28.12" as="geometry" />
        </mxCell>
        <mxCell id="CsSLyOHYdQu-0tk4jQ02-56" value="ys:NetconfCapability" style="rounded=0;whiteSpace=wrap;html=1;snapToPoint=1;points=[[0.1,0],[0.2,0],[0.3,0],[0.4,0],[0.5,0],[0.6,0],[0.7,0],[0.8,0],[0.9,0],[0,0.1],[0,0.3],[0,0.5],[0,0.7],[0,0.9],[0.1,1],[0.2,1],[0.3,1],[0.4,1],[0.5,1],[0.6,1],[0.7,1],[0.8,1],[0.9,1],[1,0.1],[1,0.3],[1,0.5],[1,0.7],[1,0.9]];fillColor=#d5e8d4;strokeColor=#82b366;" vertex="1" parent="CsSLyOHYdQu-0tk4jQ02-1">
          <mxGeometry x="980.42" y="200" width="170" height="30" as="geometry" />
        </mxCell>
        <mxCell id="CsSLyOHYdQu-0tk4jQ02-57" value="&lt;u&gt;ys:WritableRunningCapability&lt;/u&gt;" style="rounded=0;whiteSpace=wrap;html=1;snapToPoint=1;points=[[0.1,0],[0.2,0],[0.3,0],[0.4,0],[0.5,0],[0.6,0],[0.7,0],[0.8,0],[0.9,0],[0,0.1],[0,0.3],[0,0.5],[0,0.7],[0,0.9],[0.1,1],[0.2,1],[0.3,1],[0.4,1],[0.5,1],[0.6,1],[0.7,1],[0.8,1],[0.9,1],[1,0.1],[1,0.3],[1,0.5],[1,0.7],[1,0.9]];fillColor=#d5e8d4;strokeColor=#82b366;" vertex="1" parent="CsSLyOHYdQu-0tk4jQ02-1">
          <mxGeometry x="1227" y="440.61" width="180" height="30" as="geometry" />
        </mxCell>
        <mxCell id="CsSLyOHYdQu-0tk4jQ02-58" value="&lt;u&gt;ys:CandidateCapability&lt;/u&gt;" style="rounded=0;whiteSpace=wrap;html=1;snapToPoint=1;points=[[0.1,0],[0.2,0],[0.3,0],[0.4,0],[0.5,0],[0.6,0],[0.7,0],[0.8,0],[0.9,0],[0,0.1],[0,0.3],[0,0.5],[0,0.7],[0,0.9],[0.1,1],[0.2,1],[0.3,1],[0.4,1],[0.5,1],[0.6,1],[0.7,1],[0.8,1],[0.9,1],[1,0.1],[1,0.3],[1,0.5],[1,0.7],[1,0.9]];fillColor=#d5e8d4;strokeColor=#82b366;" vertex="1" parent="CsSLyOHYdQu-0tk4jQ02-1">
          <mxGeometry x="1227" y="199.61" width="180" height="30" as="geometry" />
        </mxCell>
        <mxCell id="CsSLyOHYdQu-0tk4jQ02-59" value="&lt;u&gt;ys:ConfirmedCommitCapability&lt;/u&gt;" style="rounded=0;whiteSpace=wrap;html=1;snapToPoint=1;points=[[0.1,0],[0.2,0],[0.3,0],[0.4,0],[0.5,0],[0.6,0],[0.7,0],[0.8,0],[0.9,0],[0,0.1],[0,0.3],[0,0.5],[0,0.7],[0,0.9],[0.1,1],[0.2,1],[0.3,1],[0.4,1],[0.5,1],[0.6,1],[0.7,1],[0.8,1],[0.9,1],[1,0.1],[1,0.3],[1,0.5],[1,0.7],[1,0.9]];fillColor=#d5e8d4;strokeColor=#82b366;" vertex="1" parent="CsSLyOHYdQu-0tk4jQ02-1">
          <mxGeometry x="1227" y="240.61" width="180" height="30" as="geometry" />
        </mxCell>
        <mxCell id="CsSLyOHYdQu-0tk4jQ02-60" value="&lt;u&gt;ys:DistinctStartupCapability&lt;/u&gt;" style="rounded=0;whiteSpace=wrap;html=1;snapToPoint=1;points=[[0.1,0],[0.2,0],[0.3,0],[0.4,0],[0.5,0],[0.6,0],[0.7,0],[0.8,0],[0.9,0],[0,0.1],[0,0.3],[0,0.5],[0,0.7],[0,0.9],[0.1,1],[0.2,1],[0.3,1],[0.4,1],[0.5,1],[0.6,1],[0.7,1],[0.8,1],[0.9,1],[1,0.1],[1,0.3],[1,0.5],[1,0.7],[1,0.9]];fillColor=#d5e8d4;strokeColor=#82b366;" vertex="1" parent="CsSLyOHYdQu-0tk4jQ02-1">
          <mxGeometry x="1227" y="280.61" width="180" height="30" as="geometry" />
        </mxCell>
        <mxCell id="CsSLyOHYdQu-0tk4jQ02-61" value="&lt;u&gt;ys:RollbackOnErrorCapability&lt;/u&gt;" style="rounded=0;whiteSpace=wrap;html=1;snapToPoint=1;points=[[0.1,0],[0.2,0],[0.3,0],[0.4,0],[0.5,0],[0.6,0],[0.7,0],[0.8,0],[0.9,0],[0,0.1],[0,0.3],[0,0.5],[0,0.7],[0,0.9],[0.1,1],[0.2,1],[0.3,1],[0.4,1],[0.5,1],[0.6,1],[0.7,1],[0.8,1],[0.9,1],[1,0.1],[1,0.3],[1,0.5],[1,0.7],[1,0.9]];fillColor=#d5e8d4;strokeColor=#82b366;" vertex="1" parent="CsSLyOHYdQu-0tk4jQ02-1">
          <mxGeometry x="1227" y="320.61" width="180" height="30" as="geometry" />
        </mxCell>
        <mxCell id="CsSLyOHYdQu-0tk4jQ02-62" value="&lt;u&gt;ys:UrlCapability&lt;/u&gt;" style="rounded=0;whiteSpace=wrap;html=1;snapToPoint=1;points=[[0.1,0],[0.2,0],[0.3,0],[0.4,0],[0.5,0],[0.6,0],[0.7,0],[0.8,0],[0.9,0],[0,0.1],[0,0.3],[0,0.5],[0,0.7],[0,0.9],[0.1,1],[0.2,1],[0.3,1],[0.4,1],[0.5,1],[0.6,1],[0.7,1],[0.8,1],[0.9,1],[1,0.1],[1,0.3],[1,0.5],[1,0.7],[1,0.9]];fillColor=#d5e8d4;strokeColor=#82b366;" vertex="1" parent="CsSLyOHYdQu-0tk4jQ02-1">
          <mxGeometry x="1227" y="360.6" width="180" height="30" as="geometry" />
        </mxCell>
        <mxCell id="CsSLyOHYdQu-0tk4jQ02-63" value="&lt;u&gt;ys:ValidationCapability&lt;/u&gt;" style="rounded=0;whiteSpace=wrap;html=1;snapToPoint=1;points=[[0.1,0],[0.2,0],[0.3,0],[0.4,0],[0.5,0],[0.6,0],[0.7,0],[0.8,0],[0.9,0],[0,0.1],[0,0.3],[0,0.5],[0,0.7],[0,0.9],[0.1,1],[0.2,1],[0.3,1],[0.4,1],[0.5,1],[0.6,1],[0.7,1],[0.8,1],[0.9,1],[1,0.1],[1,0.3],[1,0.5],[1,0.7],[1,0.9]];fillColor=#d5e8d4;strokeColor=#82b366;" vertex="1" parent="CsSLyOHYdQu-0tk4jQ02-1">
          <mxGeometry x="1227" y="400.61" width="180" height="30" as="geometry" />
        </mxCell>
        <mxCell id="CsSLyOHYdQu-0tk4jQ02-64" value="&lt;u&gt;ys:XpathCapability&lt;/u&gt;" style="rounded=0;whiteSpace=wrap;html=1;snapToPoint=1;points=[[0.1,0],[0.2,0],[0.3,0],[0.4,0],[0.5,0],[0.6,0],[0.7,0],[0.8,0],[0.9,0],[0,0.1],[0,0.3],[0,0.5],[0,0.7],[0,0.9],[0.1,1],[0.2,1],[0.3,1],[0.4,1],[0.5,1],[0.6,1],[0.7,1],[0.8,1],[0.9,1],[1,0.1],[1,0.3],[1,0.5],[1,0.7],[1,0.9]];fillColor=#d5e8d4;strokeColor=#82b366;" vertex="1" parent="CsSLyOHYdQu-0tk4jQ02-1">
          <mxGeometry x="1227" y="480.61" width="180" height="30" as="geometry" />
        </mxCell>
        <mxCell id="CsSLyOHYdQu-0tk4jQ02-65" value="" style="endArrow=open;html=1;fontColor=#000099;endFill=0;dashed=1;entryX=1;entryY=0.5;entryDx=0;entryDy=0;endSize=8;exitX=0;exitY=0.5;exitDx=0;exitDy=0;rounded=0;" edge="1" parent="CsSLyOHYdQu-0tk4jQ02-1" source="CsSLyOHYdQu-0tk4jQ02-58" target="CsSLyOHYdQu-0tk4jQ02-56">
          <mxGeometry width="50" height="50" relative="1" as="geometry">
            <mxPoint x="1050" y="414.61" as="sourcePoint" />
            <mxPoint x="1050" y="364.61" as="targetPoint" />
          </mxGeometry>
        </mxCell>
        <mxCell id="CsSLyOHYdQu-0tk4jQ02-66" value="" style="endArrow=open;html=1;fontColor=#000099;endFill=0;dashed=1;endSize=8;exitX=0;exitY=0.5;exitDx=0;exitDy=0;rounded=0;entryX=1;entryY=0.5;entryDx=0;entryDy=0;edgeStyle=orthogonalEdgeStyle;" edge="1" parent="CsSLyOHYdQu-0tk4jQ02-1" source="CsSLyOHYdQu-0tk4jQ02-59" target="CsSLyOHYdQu-0tk4jQ02-56">
          <mxGeometry width="50" height="50" relative="1" as="geometry">
            <mxPoint x="1230" y="209.61" as="sourcePoint" />
            <mxPoint x="1160" y="224.61" as="targetPoint" />
            <Array as="points">
              <mxPoint x="1200" y="256" />
              <mxPoint x="1200" y="215" />
            </Array>
          </mxGeometry>
        </mxCell>
        <mxCell id="CsSLyOHYdQu-0tk4jQ02-67" value="" style="endArrow=open;html=1;fontColor=#000099;endFill=0;dashed=1;endSize=8;exitX=0;exitY=0.5;exitDx=0;exitDy=0;rounded=0;entryX=1;entryY=0.5;entryDx=0;entryDy=0;edgeStyle=orthogonalEdgeStyle;" edge="1" parent="CsSLyOHYdQu-0tk4jQ02-1" source="CsSLyOHYdQu-0tk4jQ02-60" target="CsSLyOHYdQu-0tk4jQ02-56">
          <mxGeometry width="50" height="50" relative="1" as="geometry">
            <mxPoint x="1230" y="249.61" as="sourcePoint" />
            <mxPoint x="1160" y="209.61" as="targetPoint" />
            <Array as="points">
              <mxPoint x="1200" y="296" />
              <mxPoint x="1200" y="215" />
            </Array>
          </mxGeometry>
        </mxCell>
        <mxCell id="CsSLyOHYdQu-0tk4jQ02-68" value="" style="endArrow=open;html=1;fontColor=#000099;endFill=0;dashed=1;endSize=8;exitX=0;exitY=0.5;exitDx=0;exitDy=0;rounded=0;entryX=1;entryY=0.5;entryDx=0;entryDy=0;edgeStyle=orthogonalEdgeStyle;" edge="1" parent="CsSLyOHYdQu-0tk4jQ02-1" source="CsSLyOHYdQu-0tk4jQ02-61" target="CsSLyOHYdQu-0tk4jQ02-56">
          <mxGeometry width="50" height="50" relative="1" as="geometry">
            <mxPoint x="1230" y="292.61" as="sourcePoint" />
            <mxPoint x="1160" y="209.61" as="targetPoint" />
            <Array as="points">
              <mxPoint x="1200" y="336" />
              <mxPoint x="1200" y="215" />
            </Array>
          </mxGeometry>
        </mxCell>
        <mxCell id="CsSLyOHYdQu-0tk4jQ02-69" value="" style="endArrow=open;html=1;fontColor=#000099;endFill=0;dashed=1;endSize=8;exitX=0;exitY=0.5;exitDx=0;exitDy=0;rounded=0;entryX=1;entryY=0.5;entryDx=0;entryDy=0;edgeStyle=orthogonalEdgeStyle;" edge="1" parent="CsSLyOHYdQu-0tk4jQ02-1" source="CsSLyOHYdQu-0tk4jQ02-62" target="CsSLyOHYdQu-0tk4jQ02-56">
          <mxGeometry width="50" height="50" relative="1" as="geometry">
            <mxPoint x="1230" y="329.61" as="sourcePoint" />
            <mxPoint x="1160" y="209.61" as="targetPoint" />
            <Array as="points">
              <mxPoint x="1200" y="376" />
              <mxPoint x="1200" y="215" />
            </Array>
          </mxGeometry>
        </mxCell>
        <mxCell id="CsSLyOHYdQu-0tk4jQ02-70" value="" style="endArrow=open;html=1;fontColor=#000099;endFill=0;dashed=1;endSize=8;exitX=0;exitY=0.5;exitDx=0;exitDy=0;rounded=0;entryX=1;entryY=0.5;entryDx=0;entryDy=0;edgeStyle=orthogonalEdgeStyle;" edge="1" parent="CsSLyOHYdQu-0tk4jQ02-1" source="CsSLyOHYdQu-0tk4jQ02-63" target="CsSLyOHYdQu-0tk4jQ02-56">
          <mxGeometry width="50" height="50" relative="1" as="geometry">
            <mxPoint x="1230" y="369.61" as="sourcePoint" />
            <mxPoint x="1160" y="209.61" as="targetPoint" />
            <Array as="points">
              <mxPoint x="1200" y="416" />
              <mxPoint x="1200" y="215" />
            </Array>
          </mxGeometry>
        </mxCell>
        <mxCell id="CsSLyOHYdQu-0tk4jQ02-71" value="" style="endArrow=open;html=1;fontColor=#000099;endFill=0;dashed=1;endSize=8;exitX=0;exitY=0.5;exitDx=0;exitDy=0;rounded=0;entryX=1;entryY=0.5;entryDx=0;entryDy=0;edgeStyle=orthogonalEdgeStyle;" edge="1" parent="CsSLyOHYdQu-0tk4jQ02-1" source="CsSLyOHYdQu-0tk4jQ02-57" target="CsSLyOHYdQu-0tk4jQ02-56">
          <mxGeometry width="50" height="50" relative="1" as="geometry">
            <mxPoint x="1230" y="409.61" as="sourcePoint" />
            <mxPoint x="1160" y="209.61" as="targetPoint" />
            <Array as="points">
              <mxPoint x="1200" y="456" />
              <mxPoint x="1200" y="215" />
            </Array>
          </mxGeometry>
        </mxCell>
        <mxCell id="CsSLyOHYdQu-0tk4jQ02-72" value="" style="endArrow=open;html=1;fontColor=#000099;endFill=0;dashed=1;endSize=8;exitX=0;exitY=0.5;exitDx=0;exitDy=0;rounded=0;entryX=1;entryY=0.5;entryDx=0;entryDy=0;edgeStyle=orthogonalEdgeStyle;" edge="1" parent="CsSLyOHYdQu-0tk4jQ02-1" source="CsSLyOHYdQu-0tk4jQ02-64" target="CsSLyOHYdQu-0tk4jQ02-56">
          <mxGeometry width="50" height="50" relative="1" as="geometry">
            <mxPoint x="1230" y="449.61" as="sourcePoint" />
            <mxPoint x="1160" y="209.61" as="targetPoint" />
            <Array as="points">
              <mxPoint x="1200" y="496" />
              <mxPoint x="1200" y="215" />
            </Array>
          </mxGeometry>
        </mxCell>
        <mxCell id="CsSLyOHYdQu-0tk4jQ02-73" value="&lt;u&gt;ys:YangLibraryCapability&lt;/u&gt;" style="rounded=0;whiteSpace=wrap;html=1;snapToPoint=1;points=[[0.1,0],[0.2,0],[0.3,0],[0.4,0],[0.5,0],[0.6,0],[0.7,0],[0.8,0],[0.9,0],[0,0.1],[0,0.3],[0,0.5],[0,0.7],[0,0.9],[0.1,1],[0.2,1],[0.3,1],[0.4,1],[0.5,1],[0.6,1],[0.7,1],[0.8,1],[0.9,1],[1,0.1],[1,0.3],[1,0.5],[1,0.7],[1,0.9]];fillColor=#d5e8d4;strokeColor=#82b366;" vertex="1" parent="CsSLyOHYdQu-0tk4jQ02-1">
          <mxGeometry x="1227" y="520" width="180" height="30" as="geometry" />
        </mxCell>
        <mxCell id="CsSLyOHYdQu-0tk4jQ02-74" value="" style="endArrow=open;html=1;fontColor=#000099;endFill=0;dashed=1;endSize=8;exitX=0;exitY=0.5;exitDx=0;exitDy=0;rounded=0;entryX=1;entryY=0.5;entryDx=0;entryDy=0;edgeStyle=orthogonalEdgeStyle;" edge="1" parent="CsSLyOHYdQu-0tk4jQ02-1" source="CsSLyOHYdQu-0tk4jQ02-73" target="CsSLyOHYdQu-0tk4jQ02-56">
          <mxGeometry width="50" height="50" relative="1" as="geometry">
            <mxPoint x="1237" y="506" as="sourcePoint" />
            <mxPoint x="1160" y="225" as="targetPoint" />
            <Array as="points">
              <mxPoint x="1200" y="535" />
              <mxPoint x="1200" y="215" />
            </Array>
          </mxGeometry>
        </mxCell>
        <mxCell id="CsSLyOHYdQu-0tk4jQ02-75" value="ys:sourceServer" style="edgeStyle=orthogonalEdgeStyle;rounded=0;orthogonalLoop=1;jettySize=auto;html=1;exitX=0.5;exitY=1;exitDx=0;exitDy=0;entryX=0.1;entryY=1;entryDx=0;entryDy=0;jumpStyle=arc;jumpSize=10;" edge="1" parent="CsSLyOHYdQu-0tk4jQ02-1" source="CsSLyOHYdQu-0tk4jQ02-77" target="CsSLyOHYdQu-0tk4jQ02-15">
          <mxGeometry x="-0.5572" relative="1" as="geometry">
            <Array as="points">
              <mxPoint x="466" y="480" />
              <mxPoint x="774" y="480" />
            </Array>
            <mxPoint as="offset" />
          </mxGeometry>
        </mxCell>
        <mxCell id="CsSLyOHYdQu-0tk4jQ02-76" value="ys:trigger" style="edgeStyle=orthogonalEdgeStyle;rounded=0;orthogonalLoop=1;jettySize=auto;html=1;exitX=0;exitY=0.5;exitDx=0;exitDy=0;entryX=1;entryY=0.5;entryDx=0;entryDy=0;" edge="1" parent="CsSLyOHYdQu-0tk4jQ02-1" source="CsSLyOHYdQu-0tk4jQ02-77" target="CsSLyOHYdQu-0tk4jQ02-83">
          <mxGeometry relative="1" as="geometry" />
        </mxCell>
        <mxCell id="CsSLyOHYdQu-0tk4jQ02-77" value="ys:Subscription" style="rounded=0;whiteSpace=wrap;html=1;snapToPoint=1;points=[[0.1,0],[0.2,0],[0.3,0],[0.4,0],[0.5,0],[0.6,0],[0.7,0],[0.8,0],[0.9,0],[0,0.1],[0,0.3],[0,0.5],[0,0.7],[0,0.9],[0.1,1],[0.2,1],[0.3,1],[0.4,1],[0.5,1],[0.6,1],[0.7,1],[0.8,1],[0.9,1],[1,0.1],[1,0.3],[1,0.5],[1,0.7],[1,0.9]];fillColor=#d5e8d4;strokeColor=#82b366;" vertex="1" parent="CsSLyOHYdQu-0tk4jQ02-1">
          <mxGeometry x="410.00000000000006" y="420" width="111.36" height="30" as="geometry" />
        </mxCell>
        <mxCell id="CsSLyOHYdQu-0tk4jQ02-78" value="ys:filter" style="edgeStyle=orthogonalEdgeStyle;rounded=0;orthogonalLoop=1;jettySize=auto;html=1;exitX=0.5;exitY=0;exitDx=0;exitDy=0;entryX=0;entryY=0.5;entryDx=0;entryDy=0;" edge="1" parent="CsSLyOHYdQu-0tk4jQ02-1" source="CsSLyOHYdQu-0tk4jQ02-77" target="CsSLyOHYdQu-0tk4jQ02-54">
          <mxGeometry relative="1" as="geometry">
            <mxPoint x="625" y="444" as="sourcePoint" />
            <mxPoint x="625" y="391" as="targetPoint" />
          </mxGeometry>
        </mxCell>
        <mxCell id="CsSLyOHYdQu-0tk4jQ02-79" value="ys:period: xsd:integer&lt;div&gt;ys:anchorTime: xsd:datetime&lt;/div&gt;" style="rounded=0;whiteSpace=wrap;html=1;snapToPoint=1;points=[[0.1,0],[0.2,0],[0.3,0],[0.4,0],[0.5,0],[0.6,0],[0.7,0],[0.8,0],[0.9,0],[0,0.1],[0,0.3],[0,0.5],[0,0.7],[0,0.9],[0.1,1],[0.2,1],[0.3,1],[0.4,1],[0.5,1],[0.6,1],[0.7,1],[0.8,1],[0.9,1],[1,0.1],[1,0.3],[1,0.5],[1,0.7],[1,0.9]];align=left;spacingLeft=10;" vertex="1" parent="CsSLyOHYdQu-0tk4jQ02-1">
          <mxGeometry x="296.07" y="260" width="173.93" height="37.76" as="geometry" />
        </mxCell>
        <mxCell id="CsSLyOHYdQu-0tk4jQ02-80" value="ys:PeriodicTrigger" style="rounded=0;whiteSpace=wrap;html=1;snapToPoint=1;points=[[0.1,0],[0.2,0],[0.3,0],[0.4,0],[0.5,0],[0.6,0],[0.7,0],[0.8,0],[0.9,0],[0,0.1],[0,0.3],[0,0.5],[0,0.7],[0,0.9],[0.1,1],[0.2,1],[0.3,1],[0.4,1],[0.5,1],[0.6,1],[0.7,1],[0.8,1],[0.9,1],[1,0.1],[1,0.3],[1,0.5],[1,0.7],[1,0.9]];fillColor=#d5e8d4;strokeColor=#82b366;" vertex="1" parent="CsSLyOHYdQu-0tk4jQ02-1">
          <mxGeometry x="296.07" y="230" width="173.93" height="30" as="geometry" />
        </mxCell>
        <mxCell id="CsSLyOHYdQu-0tk4jQ02-81" value="ys:dampeningPeriod: xsd:integer&lt;div&gt;ys:syncOnStart: xsd:boolean&lt;/div&gt;" style="rounded=0;whiteSpace=wrap;html=1;snapToPoint=1;points=[[0.1,0],[0.2,0],[0.3,0],[0.4,0],[0.5,0],[0.6,0],[0.7,0],[0.8,0],[0.9,0],[0,0.1],[0,0.3],[0,0.5],[0,0.7],[0,0.9],[0.1,1],[0.2,1],[0.3,1],[0.4,1],[0.5,1],[0.6,1],[0.7,1],[0.8,1],[0.9,1],[1,0.1],[1,0.3],[1,0.5],[1,0.7],[1,0.9]];align=left;spacingLeft=10;" vertex="1" parent="CsSLyOHYdQu-0tk4jQ02-1">
          <mxGeometry x="50" y="260" width="200" height="40" as="geometry" />
        </mxCell>
        <mxCell id="CsSLyOHYdQu-0tk4jQ02-82" value="ys:OnChangeTrigger" style="rounded=0;whiteSpace=wrap;html=1;snapToPoint=1;points=[[0.1,0],[0.2,0],[0.3,0],[0.4,0],[0.5,0],[0.6,0],[0.7,0],[0.8,0],[0.9,0],[0,0.1],[0,0.3],[0,0.5],[0,0.7],[0,0.9],[0.1,1],[0.2,1],[0.3,1],[0.4,1],[0.5,1],[0.6,1],[0.7,1],[0.8,1],[0.9,1],[1,0.1],[1,0.3],[1,0.5],[1,0.7],[1,0.9]];fillColor=#d5e8d4;strokeColor=#82b366;" vertex="1" parent="CsSLyOHYdQu-0tk4jQ02-1">
          <mxGeometry x="50" y="230" width="200" height="30" as="geometry" />
        </mxCell>
        <mxCell id="CsSLyOHYdQu-0tk4jQ02-83" value="ys:UpdateTrigger" style="rounded=0;whiteSpace=wrap;html=1;snapToPoint=1;points=[[0.1,0],[0.2,0],[0.3,0],[0.4,0],[0.5,0],[0.6,0],[0.7,0],[0.8,0],[0.9,0],[0,0.1],[0,0.3],[0,0.5],[0,0.7],[0,0.9],[0.1,1],[0.2,1],[0.3,1],[0.4,1],[0.5,1],[0.6,1],[0.7,1],[0.8,1],[0.9,1],[1,0.1],[1,0.3],[1,0.5],[1,0.7],[1,0.9]];fillColor=#d5e8d4;strokeColor=#82b366;" vertex="1" parent="CsSLyOHYdQu-0tk4jQ02-1">
          <mxGeometry x="200.00000000000006" y="420" width="111.36" height="30" as="geometry" />
        </mxCell>
        <mxCell id="CsSLyOHYdQu-0tk4jQ02-84" value="" style="endArrow=block;html=1;fontColor=#000000;endFill=0;endSize=8;arcSize=0;rounded=0;fontFamily=Helvetica;exitX=0.5;exitY=1;exitDx=0;exitDy=0;edgeStyle=orthogonalEdgeStyle;entryX=0.5;entryY=0;entryDx=0;entryDy=0;" edge="1" parent="CsSLyOHYdQu-0tk4jQ02-1" source="CsSLyOHYdQu-0tk4jQ02-81" target="CsSLyOHYdQu-0tk4jQ02-83">
          <mxGeometry width="50" height="50" relative="1" as="geometry">
            <mxPoint x="603" y="268" as="sourcePoint" />
            <mxPoint x="625" y="335" as="targetPoint" />
            <Array as="points">
              <mxPoint x="137" y="300" />
              <mxPoint x="137" y="360" />
              <mxPoint x="256" y="360" />
              <mxPoint x="256" y="420" />
            </Array>
          </mxGeometry>
        </mxCell>
        <mxCell id="CsSLyOHYdQu-0tk4jQ02-85" value="" style="endArrow=block;html=1;fontColor=#000000;endFill=0;endSize=8;arcSize=0;rounded=0;fontFamily=Helvetica;exitX=0.5;exitY=1;exitDx=0;exitDy=0;edgeStyle=orthogonalEdgeStyle;entryX=0.5;entryY=0;entryDx=0;entryDy=0;" edge="1" parent="CsSLyOHYdQu-0tk4jQ02-1" source="CsSLyOHYdQu-0tk4jQ02-79" target="CsSLyOHYdQu-0tk4jQ02-83">
          <mxGeometry width="50" height="50" relative="1" as="geometry">
            <mxPoint x="267" y="444" as="sourcePoint" />
            <mxPoint x="336" y="495" as="targetPoint" />
            <Array as="points">
              <mxPoint x="383" y="360" />
              <mxPoint x="256" y="360" />
            </Array>
          </mxGeometry>
        </mxCell>
        <mxCell id="CsSLyOHYdQu-0tk4jQ02-86" value="ys:ChangeType" style="rounded=0;whiteSpace=wrap;html=1;snapToPoint=1;points=[[0.1,0],[0.2,0],[0.3,0],[0.4,0],[0.5,0],[0.6,0],[0.7,0],[0.8,0],[0.9,0],[0,0.1],[0,0.3],[0,0.5],[0,0.7],[0,0.9],[0.1,1],[0.2,1],[0.3,1],[0.4,1],[0.5,1],[0.6,1],[0.7,1],[0.8,1],[0.9,1],[1,0.1],[1,0.3],[1,0.5],[1,0.7],[1,0.9]];fillColor=#d5e8d4;strokeColor=#82b366;" vertex="1" parent="CsSLyOHYdQu-0tk4jQ02-1">
          <mxGeometry x="88.64000000000006" y="140" width="111.36" height="30" as="geometry" />
        </mxCell>
        <mxCell id="CsSLyOHYdQu-0tk4jQ02-87" value="ys:changeType" style="edgeStyle=orthogonalEdgeStyle;rounded=0;orthogonalLoop=1;jettySize=auto;html=1;exitX=0.47;exitY=0.006;exitDx=0;exitDy=0;entryX=0.5;entryY=1;entryDx=0;entryDy=0;exitPerimeter=0;" edge="1" parent="CsSLyOHYdQu-0tk4jQ02-1" source="CsSLyOHYdQu-0tk4jQ02-82" target="CsSLyOHYdQu-0tk4jQ02-86">
          <mxGeometry relative="1" as="geometry" />
        </mxCell>
        <mxCell id="CsSLyOHYdQu-0tk4jQ02-88" value="&lt;u&gt;ys:ExampleChangeType&lt;/u&gt;" style="rounded=0;whiteSpace=wrap;html=1;snapToPoint=1;points=[[0.1,0],[0.2,0],[0.3,0],[0.4,0],[0.5,0],[0.6,0],[0.7,0],[0.8,0],[0.9,0],[0,0.1],[0,0.3],[0,0.5],[0,0.7],[0,0.9],[0.1,1],[0.2,1],[0.3,1],[0.4,1],[0.5,1],[0.6,1],[0.7,1],[0.8,1],[0.9,1],[1,0.1],[1,0.3],[1,0.5],[1,0.7],[1,0.9]];fillColor=#d5e8d4;strokeColor=#82b366;" vertex="1" parent="CsSLyOHYdQu-0tk4jQ02-1">
          <mxGeometry x="166.99999999999994" y="52.30000000000001" width="180" height="30" as="geometry" />
        </mxCell>
        <mxCell id="CsSLyOHYdQu-0tk4jQ02-89" value="" style="endArrow=open;html=1;fontColor=#000099;endFill=0;dashed=1;entryX=0.5;entryY=0;entryDx=0;entryDy=0;endSize=8;exitX=0;exitY=0.5;exitDx=0;exitDy=0;rounded=0;edgeStyle=orthogonalEdgeStyle;" edge="1" parent="CsSLyOHYdQu-0tk4jQ02-1" source="CsSLyOHYdQu-0tk4jQ02-88" target="CsSLyOHYdQu-0tk4jQ02-86">
          <mxGeometry width="50" height="50" relative="1" as="geometry">
            <mxPoint x="-10" y="267.3" as="sourcePoint" />
            <mxPoint x="90" y="67.69" as="targetPoint" />
          </mxGeometry>
        </mxCell>
        <mxCell id="CsSLyOHYdQu-0tk4jQ02-90" value="ys:output" style="edgeStyle=orthogonalEdgeStyle;rounded=0;orthogonalLoop=1;jettySize=auto;html=1;exitX=0.5;exitY=1;exitDx=0;exitDy=0;" edge="1" parent="CsSLyOHYdQu-0tk4jQ02-1" source="CsSLyOHYdQu-0tk4jQ02-91" target="CsSLyOHYdQu-0tk4jQ02-93">
          <mxGeometry relative="1" as="geometry" />
        </mxCell>
        <mxCell id="CsSLyOHYdQu-0tk4jQ02-91" value="ys:ConfiguredSubscription" style="rounded=0;whiteSpace=wrap;html=1;snapToPoint=1;points=[[0.1,0],[0.2,0],[0.3,0],[0.4,0],[0.5,0],[0.6,0],[0.7,0],[0.8,0],[0.9,0],[0,0.1],[0,0.3],[0,0.5],[0,0.7],[0,0.9],[0.1,1],[0.2,1],[0.3,1],[0.4,1],[0.5,1],[0.6,1],[0.7,1],[0.8,1],[0.9,1],[1,0.1],[1,0.3],[1,0.5],[1,0.7],[1,0.9]];fillColor=#d5e8d4;strokeColor=#82b366;" vertex="1" parent="CsSLyOHYdQu-0tk4jQ02-1">
          <mxGeometry x="210" y="520" width="161.36" height="30" as="geometry" />
        </mxCell>
        <mxCell id="CsSLyOHYdQu-0tk4jQ02-92" value="" style="endArrow=block;html=1;fontColor=#000000;endFill=0;endSize=8;arcSize=0;rounded=0;fontFamily=Helvetica;exitX=0.5;exitY=0;exitDx=0;exitDy=0;edgeStyle=orthogonalEdgeStyle;entryX=0.1;entryY=1;entryDx=0;entryDy=0;" edge="1" parent="CsSLyOHYdQu-0tk4jQ02-1" source="CsSLyOHYdQu-0tk4jQ02-91" target="CsSLyOHYdQu-0tk4jQ02-77">
          <mxGeometry width="50" height="50" relative="1" as="geometry">
            <mxPoint x="295.00000000000006" y="530.61" as="sourcePoint" />
            <mxPoint x="425.4560000000002" y="460.61" as="targetPoint" />
            <Array as="points">
              <mxPoint x="291" y="501" />
              <mxPoint x="421" y="501" />
            </Array>
          </mxGeometry>
        </mxCell>
        <mxCell id="CsSLyOHYdQu-0tk4jQ02-93" value="ys:SubscriptionOutput" style="rounded=0;whiteSpace=wrap;html=1;snapToPoint=1;points=[[0.1,0],[0.2,0],[0.3,0],[0.4,0],[0.5,0],[0.6,0],[0.7,0],[0.8,0],[0.9,0],[0,0.1],[0,0.3],[0,0.5],[0,0.7],[0,0.9],[0.1,1],[0.2,1],[0.3,1],[0.4,1],[0.5,1],[0.6,1],[0.7,1],[0.8,1],[0.9,1],[1,0.1],[1,0.3],[1,0.5],[1,0.7],[1,0.9]];fillColor=#d5e8d4;strokeColor=#82b366;" vertex="1" parent="CsSLyOHYdQu-0tk4jQ02-1">
          <mxGeometry x="223" y="620" width="137" height="30" as="geometry" />
        </mxCell>
      </root>
    </mxGraphModel>
  </diagram>
  <diagram id="V4lAulNeN_WDX5JnY8aY" name="rml-io">
    <mxGraphModel dx="954" dy="625" grid="1" gridSize="10" guides="1" tooltips="1" connect="1" arrows="1" fold="1" page="1" pageScale="1" pageWidth="850" pageHeight="1100" math="0" shadow="0">
      <root>
        <mxCell id="0" />
        <mxCell id="1" parent="0" />
        <mxCell id="7pKTagEgV_TqgitrA6XD-2" value="&lt;div style=&quot;border-color: var(--border-color);&quot;&gt;&lt;b style=&quot;border-color: var(--border-color);&quot;&gt;ys&lt;/b&gt;:&amp;nbsp;&lt;span style=&quot;white-space: pre;&quot;&gt;&lt;font style=&quot;&quot; face=&quot;Helvetica&quot;&gt;https://w3id.org/yang/server#&lt;/font&gt;&lt;/span&gt;&lt;/div&gt;&lt;div style=&quot;border-color: var(--border-color);&quot;&gt;&lt;b style=&quot;background-color: initial; border-color: var(--border-color);&quot;&gt;dcterms:&amp;nbsp;&lt;/b&gt;&lt;span style=&quot;background-color: initial;&quot;&gt;http://purl.org/dc/terms/&lt;/span&gt;&lt;br&gt;&lt;/div&gt;&lt;div style=&quot;border-color: var(--border-color);&quot;&gt;&lt;span style=&quot;background-color: initial;&quot;&gt;&lt;b&gt;rml:&lt;/b&gt;&amp;nbsp;&lt;/span&gt;&lt;span style=&quot;background-color: initial;&quot;&gt;http://w3id.org/rml/&lt;/span&gt;&lt;/div&gt;&lt;b style=&quot;border-color: var(--border-color);&quot;&gt;&lt;div style=&quot;&quot;&gt;&lt;/div&gt;&lt;/b&gt;" style="shape=note;whiteSpace=wrap;html=1;backgroundOutline=1;darkOpacity=0.05;size=13;align=left;spacingLeft=10;" parent="1" vertex="1">
          <mxGeometry x="476.25" y="660" width="310" height="66.27" as="geometry" />
        </mxCell>
        <mxCell id="q_tjCip2KcB-ut5Omr9Q-1" value="" style="rounded=0;whiteSpace=wrap;html=1;rotation=90;fontFamily=Helvetica;" parent="1" vertex="1">
          <mxGeometry x="425" y="791.44" width="275.82" height="171.71" as="geometry" />
        </mxCell>
        <mxCell id="q_tjCip2KcB-ut5Omr9Q-2" value="YANG Server" style="rounded=0;whiteSpace=wrap;html=1;fillColor=#d5e8d4;strokeColor=#82b366;fontFamily=Helvetica;" parent="1" vertex="1">
          <mxGeometry x="493.93000000000006" y="936.3" width="138.5" height="30" as="geometry" />
        </mxCell>
        <mxCell id="q_tjCip2KcB-ut5Omr9Q-3" value="Class" style="rounded=0;whiteSpace=wrap;html=1;fontFamily=Helvetica;" parent="1" vertex="1">
          <mxGeometry x="493.93000000000006" y="770.0100000000001" width="139.5" height="30" as="geometry" />
        </mxCell>
        <mxCell id="q_tjCip2KcB-ut5Omr9Q-4" value="Data Property: datatype" style="rounded=0;whiteSpace=wrap;html=1;fontFamily=Helvetica;" parent="1" vertex="1">
          <mxGeometry x="493.93000000000006" y="800.01" width="139.5" height="30" as="geometry" />
        </mxCell>
        <mxCell id="q_tjCip2KcB-ut5Omr9Q-5" value="Object Property" style="endArrow=classic;html=1;rounded=0;labelPosition=right;verticalLabelPosition=bottom;align=center;verticalAlign=middle;fontFamily=Helvetica;" parent="1" edge="1">
          <mxGeometry width="50" height="50" relative="1" as="geometry">
            <mxPoint x="493.93000000000006" y="886.3" as="sourcePoint" />
            <mxPoint x="632.4300000000001" y="886.3" as="targetPoint" />
            <mxPoint as="offset" />
          </mxGeometry>
        </mxCell>
        <mxCell id="q_tjCip2KcB-ut5Omr9Q-6" value="subClassOf" style="endArrow=block;html=1;fontColor=#000000;endFill=0;endSize=8;arcSize=0;rounded=0;fontFamily=Helvetica;" parent="1" edge="1">
          <mxGeometry width="50" height="50" relative="1" as="geometry">
            <mxPoint x="493.93000000000006" y="904.5800000000002" as="sourcePoint" />
            <mxPoint x="632.4300000000001" y="904.3" as="targetPoint" />
          </mxGeometry>
        </mxCell>
        <mxCell id="q_tjCip2KcB-ut5Omr9Q-7" value="&lt;b style=&quot;font-size: 10px;&quot;&gt;&lt;font data-font-src=&quot;https://fonts.googleapis.com/css?family=Roboto+Condensed&quot;&gt;Legend&lt;/font&gt;&lt;/b&gt;" style="text;html=1;strokeColor=none;fillColor=none;align=center;verticalAlign=middle;whiteSpace=wrap;rounded=0;fontSize=10;fontFamily=Helvetica;" parent="1" vertex="1">
          <mxGeometry x="482.43000000000006" y="740.0000000000001" width="50" height="20" as="geometry" />
        </mxCell>
        <mxCell id="q_tjCip2KcB-ut5Omr9Q-8" value="&lt;u&gt;Individual&lt;/u&gt;" style="rounded=0;whiteSpace=wrap;html=1;fontFamily=Helvetica;" parent="1" vertex="1">
          <mxGeometry x="493.93000000000006" y="840.3" width="138.5" height="30" as="geometry" />
        </mxCell>
        <mxCell id="q_tjCip2KcB-ut5Omr9Q-9" value="&lt;div&gt;&lt;b&gt;dc:title&lt;/b&gt;: YANG Server Ontology&lt;br&gt;&lt;/div&gt;&lt;div&gt;&lt;b&gt;dc:created&lt;/b&gt;: &quot;2024-07-11&quot;^^xsd:date&lt;/div&gt;&lt;div&gt;&lt;b&gt;dc:creator:&lt;/b&gt;&amp;nbsp;Ignacio Dominguez Martinez-Casanueva&lt;br&gt;&lt;/div&gt;&lt;div&gt;&lt;b&gt;owl:versionInfo&lt;/b&gt;: 1.1.0&lt;br&gt;&lt;/div&gt;" style="shape=document;whiteSpace=wrap;html=1;boundedLbl=1;labelBackgroundColor=#ffffff;strokeColor=#000000;fontSize=12;fontColor=#000000;size=0.13333333333333333;align=left;spacingLeft=10;" parent="1" vertex="1">
          <mxGeometry x="476.18" y="564.06" width="302.46" height="80" as="geometry" />
        </mxCell>
        <mxCell id="q_tjCip2KcB-ut5Omr9Q-10" value="Reused Class" style="rounded=0;whiteSpace=wrap;html=1;fillColor=#f5f5f5;strokeColor=#666666;fontFamily=Helvetica;fontColor=#333333;" parent="1" vertex="1">
          <mxGeometry x="493.93000000000006" y="974.31" width="138.5" height="30" as="geometry" />
        </mxCell>
        <mxCell id="q_tjCip2KcB-ut5Omr9Q-12" value="ys:datastore" style="edgeStyle=orthogonalEdgeStyle;rounded=0;orthogonalLoop=1;jettySize=auto;html=1;exitX=0.5;exitY=1;exitDx=0;exitDy=0;" parent="1" source="q_tjCip2KcB-ut5Omr9Q-13" target="q_tjCip2KcB-ut5Omr9Q-29" edge="1">
          <mxGeometry relative="1" as="geometry" />
        </mxCell>
        <mxCell id="q_tjCip2KcB-ut5Omr9Q-13" value="&lt;div&gt;ys:endpoint: xsd:string&lt;/div&gt;&lt;div&gt;&lt;span style=&quot;background-color: initial;&quot;&gt;ys:username: xsd:string&lt;/span&gt;&lt;br&gt;&lt;/div&gt;&lt;div&gt;&lt;span style=&quot;background-color: initial;&quot;&gt;ys:password: xsd:string&lt;/span&gt;&lt;/div&gt;" style="rounded=0;whiteSpace=wrap;html=1;snapToPoint=1;points=[[0.1,0],[0.2,0],[0.3,0],[0.4,0],[0.5,0],[0.6,0],[0.7,0],[0.8,0],[0.9,0],[0,0.1],[0,0.3],[0,0.5],[0,0.7],[0,0.9],[0.1,1],[0.2,1],[0.3,1],[0.4,1],[0.5,1],[0.6,1],[0.7,1],[0.8,1],[0.9,1],[1,0.1],[1,0.3],[1,0.5],[1,0.7],[1,0.9]];align=left;spacingLeft=10;" parent="1" vertex="1">
          <mxGeometry x="759.32" y="824.61" width="150" height="55.39" as="geometry" />
        </mxCell>
        <mxCell id="q_tjCip2KcB-ut5Omr9Q-16" value="ys:YangServer" style="rounded=0;whiteSpace=wrap;html=1;snapToPoint=1;points=[[0.1,0],[0.2,0],[0.3,0],[0.4,0],[0.5,0],[0.6,0],[0.7,0],[0.8,0],[0.9,0],[0,0.1],[0,0.3],[0,0.5],[0,0.7],[0,0.9],[0.1,1],[0.2,1],[0.3,1],[0.4,1],[0.5,1],[0.6,1],[0.7,1],[0.8,1],[0.9,1],[1,0.1],[1,0.3],[1,0.5],[1,0.7],[1,0.9]];fillColor=#d5e8d4;strokeColor=#82b366;" parent="1" vertex="1">
          <mxGeometry x="759.32" y="794.6099999999999" width="150" height="30" as="geometry" />
        </mxCell>
        <mxCell id="q_tjCip2KcB-ut5Omr9Q-19" value="&lt;span style=&quot;color: rgb(0, 0, 0); font-size: 11px;&quot;&gt;rdf:type&lt;/span&gt;" style="endArrow=open;html=1;rounded=0;labelPosition=right;verticalLabelPosition=bottom;align=center;verticalAlign=middle;fontFamily=Helvetica;dashed=1;strokeColor=default;fontSize=8;fontColor=#000099;labelBackgroundColor=default;endFill=0;endSize=8;" parent="1" edge="1">
          <mxGeometry width="50" height="50" relative="1" as="geometry">
            <mxPoint x="493.93000000000006" y="922.3" as="sourcePoint" />
            <mxPoint x="632.4300000000001" y="922.3" as="targetPoint" />
            <mxPoint as="offset" />
          </mxGeometry>
        </mxCell>
        <mxCell id="q_tjCip2KcB-ut5Omr9Q-29" value="ys:Datastore" style="rounded=0;whiteSpace=wrap;html=1;snapToPoint=1;points=[[0.1,0],[0.2,0],[0.3,0],[0.4,0],[0.5,0],[0.6,0],[0.7,0],[0.8,0],[0.9,0],[0,0.1],[0,0.3],[0,0.5],[0,0.7],[0,0.9],[0.1,1],[0.2,1],[0.3,1],[0.4,1],[0.5,1],[0.6,1],[0.7,1],[0.8,1],[0.9,1],[1,0.1],[1,0.3],[1,0.5],[1,0.7],[1,0.9]];fillColor=#d5e8d4;strokeColor=#82b366;" parent="1" vertex="1">
          <mxGeometry x="778.64" y="933.32" width="111.36" height="30" as="geometry" />
        </mxCell>
        <mxCell id="q_tjCip2KcB-ut5Omr9Q-30" value="ys:DynamicDatastore" style="rounded=0;whiteSpace=wrap;html=1;snapToPoint=1;points=[[0.1,0],[0.2,0],[0.3,0],[0.4,0],[0.5,0],[0.6,0],[0.7,0],[0.8,0],[0.9,0],[0,0.1],[0,0.3],[0,0.5],[0,0.7],[0,0.9],[0.1,1],[0.2,1],[0.3,1],[0.4,1],[0.5,1],[0.6,1],[0.7,1],[0.8,1],[0.9,1],[1,0.1],[1,0.3],[1,0.5],[1,0.7],[1,0.9]];fillColor=#d5e8d4;strokeColor=#82b366;" parent="1" vertex="1">
          <mxGeometry x="840" y="1037.1599999999999" width="130" height="30" as="geometry" />
        </mxCell>
        <mxCell id="q_tjCip2KcB-ut5Omr9Q-31" value="ys:ConventionalDatastore" style="rounded=0;whiteSpace=wrap;html=1;snapToPoint=1;points=[[0.1,0],[0.2,0],[0.3,0],[0.4,0],[0.5,0],[0.6,0],[0.7,0],[0.8,0],[0.9,0],[0,0.1],[0,0.3],[0,0.5],[0,0.7],[0,0.9],[0.1,1],[0.2,1],[0.3,1],[0.4,1],[0.5,1],[0.6,1],[0.7,1],[0.8,1],[0.9,1],[1,0.1],[1,0.3],[1,0.5],[1,0.7],[1,0.9]];fillColor=#d5e8d4;strokeColor=#82b366;" parent="1" vertex="1">
          <mxGeometry x="680" y="1037.1599999999999" width="151.36" height="30" as="geometry" />
        </mxCell>
        <mxCell id="q_tjCip2KcB-ut5Omr9Q-32" value="ys:RunningDatastore" style="rounded=0;whiteSpace=wrap;html=1;snapToPoint=1;points=[[0.1,0],[0.2,0],[0.3,0],[0.4,0],[0.5,0],[0.6,0],[0.7,0],[0.8,0],[0.9,0],[0,0.1],[0,0.3],[0,0.5],[0,0.7],[0,0.9],[0.1,1],[0.2,1],[0.3,1],[0.4,1],[0.5,1],[0.6,1],[0.7,1],[0.8,1],[0.9,1],[1,0.1],[1,0.3],[1,0.5],[1,0.7],[1,0.9]];fillColor=#d5e8d4;strokeColor=#82b366;" parent="1" vertex="1">
          <mxGeometry x="530" y="1120" width="128.79" height="30" as="geometry" />
        </mxCell>
        <mxCell id="q_tjCip2KcB-ut5Omr9Q-33" value="ys:IntendedDatastore" style="rounded=0;whiteSpace=wrap;html=1;snapToPoint=1;points=[[0.1,0],[0.2,0],[0.3,0],[0.4,0],[0.5,0],[0.6,0],[0.7,0],[0.8,0],[0.9,0],[0,0.1],[0,0.3],[0,0.5],[0,0.7],[0,0.9],[0.1,1],[0.2,1],[0.3,1],[0.4,1],[0.5,1],[0.6,1],[0.7,1],[0.8,1],[0.9,1],[1,0.1],[1,0.3],[1,0.5],[1,0.7],[1,0.9]];fillColor=#d5e8d4;strokeColor=#82b366;" parent="1" vertex="1">
          <mxGeometry x="812.57" y="1120" width="130" height="30" as="geometry" />
        </mxCell>
        <mxCell id="q_tjCip2KcB-ut5Omr9Q-34" value="ys:CandidateDatastore" style="rounded=0;whiteSpace=wrap;html=1;snapToPoint=1;points=[[0.1,0],[0.2,0],[0.3,0],[0.4,0],[0.5,0],[0.6,0],[0.7,0],[0.8,0],[0.9,0],[0,0.1],[0,0.3],[0,0.5],[0,0.7],[0,0.9],[0.1,1],[0.2,1],[0.3,1],[0.4,1],[0.5,1],[0.6,1],[0.7,1],[0.8,1],[0.9,1],[1,0.1],[1,0.3],[1,0.5],[1,0.7],[1,0.9]];fillColor=#d5e8d4;strokeColor=#82b366;" parent="1" vertex="1">
          <mxGeometry x="670" y="1120" width="132.57" height="30" as="geometry" />
        </mxCell>
        <mxCell id="q_tjCip2KcB-ut5Omr9Q-35" value="ys:StartupDatastore" style="rounded=0;whiteSpace=wrap;html=1;snapToPoint=1;points=[[0.1,0],[0.2,0],[0.3,0],[0.4,0],[0.5,0],[0.6,0],[0.7,0],[0.8,0],[0.9,0],[0,0.1],[0,0.3],[0,0.5],[0,0.7],[0,0.9],[0.1,1],[0.2,1],[0.3,1],[0.4,1],[0.5,1],[0.6,1],[0.7,1],[0.8,1],[0.9,1],[1,0.1],[1,0.3],[1,0.5],[1,0.7],[1,0.9]];fillColor=#d5e8d4;strokeColor=#82b366;" parent="1" vertex="1">
          <mxGeometry x="956.0699999999999" y="1120" width="121.36" height="30" as="geometry" />
        </mxCell>
        <mxCell id="q_tjCip2KcB-ut5Omr9Q-36" value="ys:OperationalDatastore" style="rounded=0;whiteSpace=wrap;html=1;snapToPoint=1;points=[[0.1,0],[0.2,0],[0.3,0],[0.4,0],[0.5,0],[0.6,0],[0.7,0],[0.8,0],[0.9,0],[0,0.1],[0,0.3],[0,0.5],[0,0.7],[0,0.9],[0.1,1],[0.2,1],[0.3,1],[0.4,1],[0.5,1],[0.6,1],[0.7,1],[0.8,1],[0.9,1],[1,0.1],[1,0.3],[1,0.5],[1,0.7],[1,0.9]];fillColor=#d5e8d4;strokeColor=#82b366;" parent="1" vertex="1">
          <mxGeometry x="980" y="1037.1599999999999" width="140" height="30" as="geometry" />
        </mxCell>
        <mxCell id="q_tjCip2KcB-ut5Omr9Q-37" value="" style="endArrow=block;html=1;fontColor=#000000;endFill=0;endSize=8;arcSize=0;rounded=0;fontFamily=Helvetica;entryX=0.5;entryY=1;entryDx=0;entryDy=0;exitX=0.5;exitY=0;exitDx=0;exitDy=0;edgeStyle=orthogonalEdgeStyle;" parent="1" source="q_tjCip2KcB-ut5Omr9Q-31" target="q_tjCip2KcB-ut5Omr9Q-29" edge="1">
          <mxGeometry width="50" height="50" relative="1" as="geometry">
            <mxPoint x="498.93000000000006" y="977.4300000000002" as="sourcePoint" />
            <mxPoint x="637.4300000000001" y="977.15" as="targetPoint" />
          </mxGeometry>
        </mxCell>
        <mxCell id="q_tjCip2KcB-ut5Omr9Q-38" value="" style="endArrow=block;html=1;fontColor=#000000;endFill=0;endSize=8;arcSize=0;rounded=0;fontFamily=Helvetica;entryX=0.5;entryY=1;entryDx=0;entryDy=0;exitX=0.5;exitY=0;exitDx=0;exitDy=0;edgeStyle=orthogonalEdgeStyle;" parent="1" source="q_tjCip2KcB-ut5Omr9Q-30" target="q_tjCip2KcB-ut5Omr9Q-29" edge="1">
          <mxGeometry width="50" height="50" relative="1" as="geometry">
            <mxPoint x="766" y="1047" as="sourcePoint" />
            <mxPoint x="844" y="1000" as="targetPoint" />
          </mxGeometry>
        </mxCell>
        <mxCell id="q_tjCip2KcB-ut5Omr9Q-39" value="" style="endArrow=block;html=1;fontColor=#000000;endFill=0;endSize=8;arcSize=0;rounded=0;fontFamily=Helvetica;entryX=0.5;entryY=1;entryDx=0;entryDy=0;exitX=0.5;exitY=0;exitDx=0;exitDy=0;edgeStyle=orthogonalEdgeStyle;" parent="1" source="q_tjCip2KcB-ut5Omr9Q-36" target="q_tjCip2KcB-ut5Omr9Q-29" edge="1">
          <mxGeometry width="50" height="50" relative="1" as="geometry">
            <mxPoint x="925" y="1047" as="sourcePoint" />
            <mxPoint x="844" y="1000" as="targetPoint" />
          </mxGeometry>
        </mxCell>
        <mxCell id="q_tjCip2KcB-ut5Omr9Q-40" value="" style="endArrow=block;html=1;fontColor=#000000;endFill=0;endSize=8;arcSize=0;rounded=0;fontFamily=Helvetica;entryX=0.5;entryY=1;entryDx=0;entryDy=0;exitX=0.4;exitY=0;exitDx=0;exitDy=0;edgeStyle=orthogonalEdgeStyle;" parent="1" source="q_tjCip2KcB-ut5Omr9Q-32" target="q_tjCip2KcB-ut5Omr9Q-31" edge="1">
          <mxGeometry width="50" height="50" relative="1" as="geometry">
            <mxPoint x="1070" y="1047" as="sourcePoint" />
            <mxPoint x="844" y="1000" as="targetPoint" />
          </mxGeometry>
        </mxCell>
        <mxCell id="q_tjCip2KcB-ut5Omr9Q-41" value="" style="endArrow=block;html=1;fontColor=#000000;endFill=0;endSize=8;arcSize=0;rounded=0;fontFamily=Helvetica;exitX=0.5;exitY=0;exitDx=0;exitDy=0;edgeStyle=orthogonalEdgeStyle;entryX=0.5;entryY=1;entryDx=0;entryDy=0;" parent="1" source="q_tjCip2KcB-ut5Omr9Q-34" target="q_tjCip2KcB-ut5Omr9Q-31" edge="1">
          <mxGeometry width="50" height="50" relative="1" as="geometry">
            <mxPoint x="586" y="1130" as="sourcePoint" />
            <mxPoint x="780" y="1080" as="targetPoint" />
          </mxGeometry>
        </mxCell>
        <mxCell id="q_tjCip2KcB-ut5Omr9Q-42" value="" style="endArrow=block;html=1;fontColor=#000000;endFill=0;endSize=8;arcSize=0;rounded=0;fontFamily=Helvetica;exitX=0.5;exitY=0;exitDx=0;exitDy=0;edgeStyle=orthogonalEdgeStyle;entryX=0.5;entryY=1;entryDx=0;entryDy=0;" parent="1" source="q_tjCip2KcB-ut5Omr9Q-33" target="q_tjCip2KcB-ut5Omr9Q-31" edge="1">
          <mxGeometry width="50" height="50" relative="1" as="geometry">
            <mxPoint x="743" y="1130" as="sourcePoint" />
            <mxPoint x="766" y="1077" as="targetPoint" />
          </mxGeometry>
        </mxCell>
        <mxCell id="q_tjCip2KcB-ut5Omr9Q-43" value="" style="endArrow=block;html=1;fontColor=#000000;endFill=0;endSize=8;arcSize=0;rounded=0;fontFamily=Helvetica;exitX=0.5;exitY=0;exitDx=0;exitDy=0;edgeStyle=orthogonalEdgeStyle;entryX=0.5;entryY=1;entryDx=0;entryDy=0;" parent="1" source="q_tjCip2KcB-ut5Omr9Q-35" target="q_tjCip2KcB-ut5Omr9Q-31" edge="1">
          <mxGeometry width="50" height="50" relative="1" as="geometry">
            <mxPoint x="892" y="1130" as="sourcePoint" />
            <mxPoint x="766" y="1077" as="targetPoint" />
          </mxGeometry>
        </mxCell>
        <mxCell id="T-hcWHot94v7NOoa2Qh7-1" value="rml:source" style="edgeStyle=orthogonalEdgeStyle;rounded=0;orthogonalLoop=1;jettySize=auto;html=1;" parent="1" source="T-hcWHot94v7NOoa2Qh7-3" target="T-hcWHot94v7NOoa2Qh7-11" edge="1">
          <mxGeometry relative="1" as="geometry" />
        </mxCell>
        <mxCell id="T-hcWHot94v7NOoa2Qh7-2" value="rml:referenceFormulation" style="edgeStyle=orthogonalEdgeStyle;rounded=0;orthogonalLoop=1;jettySize=auto;html=1;exitX=1;exitY=0.5;exitDx=0;exitDy=0;entryX=0;entryY=0.5;entryDx=0;entryDy=0;" parent="1" source="T-hcWHot94v7NOoa2Qh7-3" target="T-hcWHot94v7NOoa2Qh7-8" edge="1">
          <mxGeometry relative="1" as="geometry" />
        </mxCell>
        <mxCell id="T-hcWHot94v7NOoa2Qh7-3" value="rml:LogicalSource" style="rounded=0;whiteSpace=wrap;html=1;snapToPoint=1;points=[[0.1,0],[0.2,0],[0.3,0],[0.4,0],[0.5,0],[0.6,0],[0.7,0],[0.8,0],[0.9,0],[0,0.1],[0,0.3],[0,0.5],[0,0.7],[0,0.9],[0.1,1],[0.2,1],[0.3,1],[0.4,1],[0.5,1],[0.6,1],[0.7,1],[0.8,1],[0.9,1],[1,0.1],[1,0.3],[1,0.5],[1,0.7],[1,0.9]];fillColor=#f5f5f5;strokeColor=#666666;fontColor=#333333;" parent="1" vertex="1">
          <mxGeometry x="979.9999999999997" y="873.32" width="103.88" height="30" as="geometry" />
        </mxCell>
        <mxCell id="T-hcWHot94v7NOoa2Qh7-4" value="rml:Source" style="rounded=0;whiteSpace=wrap;html=1;snapToPoint=1;points=[[0.1,0],[0.2,0],[0.3,0],[0.4,0],[0.5,0],[0.6,0],[0.7,0],[0.8,0],[0.9,0],[0,0.1],[0,0.3],[0,0.5],[0,0.7],[0,0.9],[0.1,1],[0.2,1],[0.3,1],[0.4,1],[0.5,1],[0.6,1],[0.7,1],[0.8,1],[0.9,1],[1,0.1],[1,0.3],[1,0.5],[1,0.7],[1,0.9]];fillColor=#f5f5f5;strokeColor=#666666;fontColor=#333333;" parent="1" vertex="1">
          <mxGeometry x="1098.84" y="791.4399999999999" width="80" height="30" as="geometry" />
        </mxCell>
        <mxCell id="T-hcWHot94v7NOoa2Qh7-5" value="rml:namespace" style="edgeStyle=orthogonalEdgeStyle;rounded=0;orthogonalLoop=1;jettySize=auto;html=1;exitX=0.5;exitY=1;exitDx=0;exitDy=0;entryX=0.5;entryY=0;entryDx=0;entryDy=0;" parent="1" source="T-hcWHot94v7NOoa2Qh7-6" target="T-hcWHot94v7NOoa2Qh7-7" edge="1">
          <mxGeometry relative="1" as="geometry" />
        </mxCell>
        <mxCell id="T-hcWHot94v7NOoa2Qh7-6" value="rml:XPathReferenceFormulation" style="rounded=0;whiteSpace=wrap;html=1;snapToPoint=1;points=[[0.1,0],[0.2,0],[0.3,0],[0.4,0],[0.5,0],[0.6,0],[0.7,0],[0.8,0],[0.9,0],[0,0.1],[0,0.3],[0,0.5],[0,0.7],[0,0.9],[0.1,1],[0.2,1],[0.3,1],[0.4,1],[0.5,1],[0.6,1],[0.7,1],[0.8,1],[0.9,1],[1,0.1],[1,0.3],[1,0.5],[1,0.7],[1,0.9]];fillColor=#f5f5f5;strokeColor=#666666;fontColor=#333333;" parent="1" vertex="1">
          <mxGeometry x="1252.8" y="933.32" width="202.25" height="30" as="geometry" />
        </mxCell>
        <mxCell id="T-hcWHot94v7NOoa2Qh7-7" value="rml:Namespace" style="rounded=0;whiteSpace=wrap;html=1;snapToPoint=1;points=[[0.1,0],[0.2,0],[0.3,0],[0.4,0],[0.5,0],[0.6,0],[0.7,0],[0.8,0],[0.9,0],[0,0.1],[0,0.3],[0,0.5],[0,0.7],[0,0.9],[0.1,1],[0.2,1],[0.3,1],[0.4,1],[0.5,1],[0.6,1],[0.7,1],[0.8,1],[0.9,1],[1,0.1],[1,0.3],[1,0.5],[1,0.7],[1,0.9]];fillColor=#f5f5f5;strokeColor=#666666;fontColor=#333333;" parent="1" vertex="1">
          <mxGeometry x="1293.9200000000003" y="1013.32" width="120" height="30" as="geometry" />
        </mxCell>
        <mxCell id="T-hcWHot94v7NOoa2Qh7-8" value="rml:ReferenceFormulation" style="rounded=0;whiteSpace=wrap;html=1;snapToPoint=1;points=[[0.1,0],[0.2,0],[0.3,0],[0.4,0],[0.5,0],[0.6,0],[0.7,0],[0.8,0],[0.9,0],[0,0.1],[0,0.3],[0,0.5],[0,0.7],[0,0.9],[0.1,1],[0.2,1],[0.3,1],[0.4,1],[0.5,1],[0.6,1],[0.7,1],[0.8,1],[0.9,1],[1,0.1],[1,0.3],[1,0.5],[1,0.7],[1,0.9]];fillColor=#f5f5f5;strokeColor=#666666;fontColor=#333333;" parent="1" vertex="1">
          <mxGeometry x="1252.8" y="873.32" width="202.25" height="30" as="geometry" />
        </mxCell>
        <mxCell id="T-hcWHot94v7NOoa2Qh7-9" value="rml:XPath" style="rounded=0;whiteSpace=wrap;html=1;snapToPoint=1;points=[[0.1,0],[0.2,0],[0.3,0],[0.4,0],[0.5,0],[0.6,0],[0.7,0],[0.8,0],[0.9,0],[0,0.1],[0,0.3],[0,0.5],[0,0.7],[0,0.9],[0.1,1],[0.2,1],[0.3,1],[0.4,1],[0.5,1],[0.6,1],[0.7,1],[0.8,1],[0.9,1],[1,0.1],[1,0.3],[1,0.5],[1,0.7],[1,0.9]];fillColor=#f5f5f5;strokeColor=#666666;fontColor=#333333;fontStyle=4" parent="1" vertex="1">
          <mxGeometry x="1252.8" y="791.4399999999999" width="90" height="30" as="geometry" />
        </mxCell>
        <mxCell id="T-hcWHot94v7NOoa2Qh7-10" value="" style="endArrow=block;html=1;fontColor=#000099;exitX=0.5;exitY=0;exitDx=0;exitDy=0;endFill=0;endSize=8;arcSize=0;rounded=0;edgeStyle=orthogonalEdgeStyle;entryX=0.5;entryY=1;entryDx=0;entryDy=0;" parent="1" source="T-hcWHot94v7NOoa2Qh7-6" target="T-hcWHot94v7NOoa2Qh7-8" edge="1">
          <mxGeometry width="50" height="50" relative="1" as="geometry">
            <mxPoint x="900.3" y="836.32" as="sourcePoint" />
            <mxPoint x="1354.3" y="923.32" as="targetPoint" />
          </mxGeometry>
        </mxCell>
        <mxCell id="T-hcWHot94v7NOoa2Qh7-11" value="&lt;span class=&quot;st&quot;&gt;⨆&lt;/span&gt;" style="ellipse;whiteSpace=wrap;html=1;aspect=fixed;fontSize=17;" parent="1" vertex="1">
          <mxGeometry x="1016.9499999999999" y="791.4399999999999" width="30" height="30" as="geometry" />
        </mxCell>
        <mxCell id="T-hcWHot94v7NOoa2Qh7-12" value="" style="endArrow=open;html=1;fontColor=#000099;endFill=0;dashed=1;entryX=0;entryY=0.5;entryDx=0;entryDy=0;endSize=8;arcSize=0;rounded=0;" parent="1" source="T-hcWHot94v7NOoa2Qh7-11" target="T-hcWHot94v7NOoa2Qh7-4" edge="1">
          <mxGeometry width="50" height="50" relative="1" as="geometry">
            <mxPoint x="800.8399999999999" y="813.2199999999999" as="sourcePoint" />
            <mxPoint x="1015.8399999999998" y="778.2199999999999" as="targetPoint" />
          </mxGeometry>
        </mxCell>
        <mxCell id="T-hcWHot94v7NOoa2Qh7-13" style="edgeStyle=orthogonalEdgeStyle;rounded=0;orthogonalLoop=1;jettySize=auto;html=1;exitX=0.5;exitY=1;exitDx=0;exitDy=0;entryX=0.5;entryY=0;entryDx=0;entryDy=0;dashed=1;strokeColor=default;align=center;verticalAlign=middle;fontFamily=Helvetica;fontSize=8;fontColor=#000099;labelBackgroundColor=default;endArrow=open;endFill=0;endSize=8;" parent="1" source="T-hcWHot94v7NOoa2Qh7-14" target="T-hcWHot94v7NOoa2Qh7-8" edge="1">
          <mxGeometry relative="1" as="geometry">
            <mxPoint x="1350.3" y="873.32" as="targetPoint" />
            <Array as="points">
              <mxPoint x="1410.3" y="833.32" />
              <mxPoint x="1354.3" y="833.32" />
            </Array>
          </mxGeometry>
        </mxCell>
        <mxCell id="T-hcWHot94v7NOoa2Qh7-14" value="ys:Subtree" style="rounded=0;whiteSpace=wrap;html=1;snapToPoint=1;points=[[0.1,0],[0.2,0],[0.3,0],[0.4,0],[0.5,0],[0.6,0],[0.7,0],[0.8,0],[0.9,0],[0,0.1],[0,0.3],[0,0.5],[0,0.7],[0,0.9],[0.1,1],[0.2,1],[0.3,1],[0.4,1],[0.5,1],[0.6,1],[0.7,1],[0.8,1],[0.9,1],[1,0.1],[1,0.3],[1,0.5],[1,0.7],[1,0.9]];fillColor=#d5e8d4;strokeColor=#82b366;fontStyle=4" parent="1" vertex="1">
          <mxGeometry x="1365.05" y="791.4399999999999" width="90" height="30" as="geometry" />
        </mxCell>
        <mxCell id="T-hcWHot94v7NOoa2Qh7-15" value="&lt;font style=&quot;font-size: 11px;&quot; color=&quot;#000000&quot;&gt;rdf:type&lt;/font&gt;" style="endArrow=open;html=1;fontColor=#000099;endFill=0;dashed=1;endSize=8;rounded=0;fontSize=8;labelPosition=center;verticalLabelPosition=bottom;align=center;verticalAlign=middle;fontFamily=Helvetica;entryX=0.5;entryY=0;entryDx=0;entryDy=0;edgeStyle=orthogonalEdgeStyle;" parent="1" source="T-hcWHot94v7NOoa2Qh7-9" target="T-hcWHot94v7NOoa2Qh7-8" edge="1">
          <mxGeometry x="0.5092" width="50" height="50" relative="1" as="geometry">
            <mxPoint x="1176.55" y="760.68" as="sourcePoint" />
            <mxPoint x="1016.5499999999998" y="760.6800000000002" as="targetPoint" />
            <mxPoint as="offset" />
            <Array as="points">
              <mxPoint x="1297.3" y="833.32" />
              <mxPoint x="1354.3" y="833.32" />
            </Array>
          </mxGeometry>
        </mxCell>
        <mxCell id="T-hcWHot94v7NOoa2Qh7-16" value="" style="endArrow=open;html=1;fontColor=#000099;endFill=0;dashed=1;entryX=1;entryY=0.5;entryDx=0;entryDy=0;endSize=8;arcSize=0;rounded=0;exitX=0.019;exitY=0.654;exitDx=0;exitDy=0;exitPerimeter=0;edgeStyle=orthogonalEdgeStyle;" parent="1" source="T-hcWHot94v7NOoa2Qh7-11" target="q_tjCip2KcB-ut5Omr9Q-29" edge="1">
          <mxGeometry width="50" height="50" relative="1" as="geometry">
            <mxPoint x="1057" y="816" as="sourcePoint" />
            <mxPoint x="1109" y="816" as="targetPoint" />
          </mxGeometry>
        </mxCell>
      </root>
    </mxGraphModel>
  </diagram>
  <diagram id="B3lYACU0ylxrr3LCnZX6" name="nc-capabilities">
    <mxGraphModel dx="17" dy="568" grid="1" gridSize="10" guides="1" tooltips="1" connect="1" arrows="1" fold="1" page="1" pageScale="1" pageWidth="850" pageHeight="1100" math="0" shadow="0">
      <root>
        <mxCell id="0" />
        <mxCell id="1" parent="0" />
        <mxCell id="gUOv7ItEaNU2iE8fz5gL-1" value="&lt;div&gt;dcterms:identifier: xsd:string&lt;/div&gt;" style="rounded=0;whiteSpace=wrap;html=1;snapToPoint=1;points=[[0.1,0],[0.2,0],[0.3,0],[0.4,0],[0.5,0],[0.6,0],[0.7,0],[0.8,0],[0.9,0],[0,0.1],[0,0.3],[0,0.5],[0,0.7],[0,0.9],[0.1,1],[0.2,1],[0.3,1],[0.4,1],[0.5,1],[0.6,1],[0.7,1],[0.8,1],[0.9,1],[1,0.1],[1,0.3],[1,0.5],[1,0.7],[1,0.9]];align=left;spacingLeft=10;" vertex="1" parent="1">
          <mxGeometry x="959.9999999999999" y="220.00000000000003" width="170" height="28.12" as="geometry" />
        </mxCell>
        <mxCell id="gUOv7ItEaNU2iE8fz5gL-2" value="ys:NetconfCapability" style="rounded=0;whiteSpace=wrap;html=1;snapToPoint=1;points=[[0.1,0],[0.2,0],[0.3,0],[0.4,0],[0.5,0],[0.6,0],[0.7,0],[0.8,0],[0.9,0],[0,0.1],[0,0.3],[0,0.5],[0,0.7],[0,0.9],[0.1,1],[0.2,1],[0.3,1],[0.4,1],[0.5,1],[0.6,1],[0.7,1],[0.8,1],[0.9,1],[1,0.1],[1,0.3],[1,0.5],[1,0.7],[1,0.9]];fillColor=#d5e8d4;strokeColor=#82b366;" vertex="1" parent="1">
          <mxGeometry x="959.9999999999999" y="190.00000000000003" width="170" height="30" as="geometry" />
        </mxCell>
        <mxCell id="gUOv7ItEaNU2iE8fz5gL-6" value="&lt;u&gt;ys:WritableRunningCapability&lt;/u&gt;" style="rounded=0;whiteSpace=wrap;html=1;snapToPoint=1;points=[[0.1,0],[0.2,0],[0.3,0],[0.4,0],[0.5,0],[0.6,0],[0.7,0],[0.8,0],[0.9,0],[0,0.1],[0,0.3],[0,0.5],[0,0.7],[0,0.9],[0.1,1],[0.2,1],[0.3,1],[0.4,1],[0.5,1],[0.6,1],[0.7,1],[0.8,1],[0.9,1],[1,0.1],[1,0.3],[1,0.5],[1,0.7],[1,0.9]];fillColor=#d5e8d4;strokeColor=#82b366;" vertex="1" parent="1">
          <mxGeometry x="1200" y="430" width="180" height="30" as="geometry" />
        </mxCell>
        <mxCell id="gUOv7ItEaNU2iE8fz5gL-7" value="&lt;u&gt;ys:CandidateCapability&lt;/u&gt;" style="rounded=0;whiteSpace=wrap;html=1;snapToPoint=1;points=[[0.1,0],[0.2,0],[0.3,0],[0.4,0],[0.5,0],[0.6,0],[0.7,0],[0.8,0],[0.9,0],[0,0.1],[0,0.3],[0,0.5],[0,0.7],[0,0.9],[0.1,1],[0.2,1],[0.3,1],[0.4,1],[0.5,1],[0.6,1],[0.7,1],[0.8,1],[0.9,1],[1,0.1],[1,0.3],[1,0.5],[1,0.7],[1,0.9]];fillColor=#d5e8d4;strokeColor=#82b366;" vertex="1" parent="1">
          <mxGeometry x="1200" y="190" width="180" height="30" as="geometry" />
        </mxCell>
        <mxCell id="gUOv7ItEaNU2iE8fz5gL-8" value="&lt;u&gt;ys:ConfirmedCommitCapability&lt;/u&gt;" style="rounded=0;whiteSpace=wrap;html=1;snapToPoint=1;points=[[0.1,0],[0.2,0],[0.3,0],[0.4,0],[0.5,0],[0.6,0],[0.7,0],[0.8,0],[0.9,0],[0,0.1],[0,0.3],[0,0.5],[0,0.7],[0,0.9],[0.1,1],[0.2,1],[0.3,1],[0.4,1],[0.5,1],[0.6,1],[0.7,1],[0.8,1],[0.9,1],[1,0.1],[1,0.3],[1,0.5],[1,0.7],[1,0.9]];fillColor=#d5e8d4;strokeColor=#82b366;" vertex="1" parent="1">
          <mxGeometry x="1200" y="230" width="180" height="30" as="geometry" />
        </mxCell>
        <mxCell id="gUOv7ItEaNU2iE8fz5gL-9" value="&lt;u&gt;ys:DistinctStartupCapability&lt;/u&gt;" style="rounded=0;whiteSpace=wrap;html=1;snapToPoint=1;points=[[0.1,0],[0.2,0],[0.3,0],[0.4,0],[0.5,0],[0.6,0],[0.7,0],[0.8,0],[0.9,0],[0,0.1],[0,0.3],[0,0.5],[0,0.7],[0,0.9],[0.1,1],[0.2,1],[0.3,1],[0.4,1],[0.5,1],[0.6,1],[0.7,1],[0.8,1],[0.9,1],[1,0.1],[1,0.3],[1,0.5],[1,0.7],[1,0.9]];fillColor=#d5e8d4;strokeColor=#82b366;" vertex="1" parent="1">
          <mxGeometry x="1200" y="270" width="180" height="30" as="geometry" />
        </mxCell>
        <mxCell id="gUOv7ItEaNU2iE8fz5gL-10" value="&lt;u&gt;ys:RollbackOnErrorCapability&lt;/u&gt;" style="rounded=0;whiteSpace=wrap;html=1;snapToPoint=1;points=[[0.1,0],[0.2,0],[0.3,0],[0.4,0],[0.5,0],[0.6,0],[0.7,0],[0.8,0],[0.9,0],[0,0.1],[0,0.3],[0,0.5],[0,0.7],[0,0.9],[0.1,1],[0.2,1],[0.3,1],[0.4,1],[0.5,1],[0.6,1],[0.7,1],[0.8,1],[0.9,1],[1,0.1],[1,0.3],[1,0.5],[1,0.7],[1,0.9]];fillColor=#d5e8d4;strokeColor=#82b366;" vertex="1" parent="1">
          <mxGeometry x="1200" y="310" width="180" height="30" as="geometry" />
        </mxCell>
        <mxCell id="gUOv7ItEaNU2iE8fz5gL-11" value="&lt;u&gt;ys:UrlCapability&lt;/u&gt;" style="rounded=0;whiteSpace=wrap;html=1;snapToPoint=1;points=[[0.1,0],[0.2,0],[0.3,0],[0.4,0],[0.5,0],[0.6,0],[0.7,0],[0.8,0],[0.9,0],[0,0.1],[0,0.3],[0,0.5],[0,0.7],[0,0.9],[0.1,1],[0.2,1],[0.3,1],[0.4,1],[0.5,1],[0.6,1],[0.7,1],[0.8,1],[0.9,1],[1,0.1],[1,0.3],[1,0.5],[1,0.7],[1,0.9]];fillColor=#d5e8d4;strokeColor=#82b366;" vertex="1" parent="1">
          <mxGeometry x="1200" y="349.99" width="180" height="30" as="geometry" />
        </mxCell>
        <mxCell id="gUOv7ItEaNU2iE8fz5gL-12" value="&lt;u&gt;ys:ValidationCapability&lt;/u&gt;" style="rounded=0;whiteSpace=wrap;html=1;snapToPoint=1;points=[[0.1,0],[0.2,0],[0.3,0],[0.4,0],[0.5,0],[0.6,0],[0.7,0],[0.8,0],[0.9,0],[0,0.1],[0,0.3],[0,0.5],[0,0.7],[0,0.9],[0.1,1],[0.2,1],[0.3,1],[0.4,1],[0.5,1],[0.6,1],[0.7,1],[0.8,1],[0.9,1],[1,0.1],[1,0.3],[1,0.5],[1,0.7],[1,0.9]];fillColor=#d5e8d4;strokeColor=#82b366;" vertex="1" parent="1">
          <mxGeometry x="1200" y="390" width="180" height="30" as="geometry" />
        </mxCell>
        <mxCell id="gUOv7ItEaNU2iE8fz5gL-13" value="&lt;u&gt;ys:XpathCapability&lt;/u&gt;" style="rounded=0;whiteSpace=wrap;html=1;snapToPoint=1;points=[[0.1,0],[0.2,0],[0.3,0],[0.4,0],[0.5,0],[0.6,0],[0.7,0],[0.8,0],[0.9,0],[0,0.1],[0,0.3],[0,0.5],[0,0.7],[0,0.9],[0.1,1],[0.2,1],[0.3,1],[0.4,1],[0.5,1],[0.6,1],[0.7,1],[0.8,1],[0.9,1],[1,0.1],[1,0.3],[1,0.5],[1,0.7],[1,0.9]];fillColor=#d5e8d4;strokeColor=#82b366;" vertex="1" parent="1">
          <mxGeometry x="1200" y="470" width="180" height="30" as="geometry" />
        </mxCell>
        <mxCell id="bZDrNGwHEvlOaxERh670-4" value="" style="endArrow=open;html=1;fontColor=#000099;endFill=0;dashed=1;entryX=1;entryY=0.5;entryDx=0;entryDy=0;endSize=8;exitX=0;exitY=0.5;exitDx=0;exitDy=0;rounded=0;" edge="1" parent="1" source="gUOv7ItEaNU2iE8fz5gL-7" target="gUOv7ItEaNU2iE8fz5gL-2">
          <mxGeometry width="50" height="50" relative="1" as="geometry">
            <mxPoint x="1030" y="420" as="sourcePoint" />
            <mxPoint x="1030" y="370" as="targetPoint" />
          </mxGeometry>
        </mxCell>
        <mxCell id="bZDrNGwHEvlOaxERh670-5" value="" style="endArrow=open;html=1;fontColor=#000099;endFill=0;dashed=1;endSize=8;exitX=0;exitY=0.5;exitDx=0;exitDy=0;rounded=0;entryX=1;entryY=0.5;entryDx=0;entryDy=0;edgeStyle=orthogonalEdgeStyle;" edge="1" parent="1" source="gUOv7ItEaNU2iE8fz5gL-8" target="gUOv7ItEaNU2iE8fz5gL-2">
          <mxGeometry width="50" height="50" relative="1" as="geometry">
            <mxPoint x="1210" y="215" as="sourcePoint" />
            <mxPoint x="1140" y="230" as="targetPoint" />
          </mxGeometry>
        </mxCell>
        <mxCell id="bZDrNGwHEvlOaxERh670-6" value="" style="endArrow=open;html=1;fontColor=#000099;endFill=0;dashed=1;endSize=8;exitX=0;exitY=0.5;exitDx=0;exitDy=0;rounded=0;entryX=1;entryY=0.5;entryDx=0;entryDy=0;edgeStyle=orthogonalEdgeStyle;" edge="1" parent="1" source="gUOv7ItEaNU2iE8fz5gL-9" target="gUOv7ItEaNU2iE8fz5gL-2">
          <mxGeometry width="50" height="50" relative="1" as="geometry">
            <mxPoint x="1210" y="255" as="sourcePoint" />
            <mxPoint x="1140" y="215" as="targetPoint" />
          </mxGeometry>
        </mxCell>
        <mxCell id="bZDrNGwHEvlOaxERh670-7" value="" style="endArrow=open;html=1;fontColor=#000099;endFill=0;dashed=1;endSize=8;exitX=0;exitY=0.5;exitDx=0;exitDy=0;rounded=0;entryX=1;entryY=0.5;entryDx=0;entryDy=0;edgeStyle=orthogonalEdgeStyle;" edge="1" parent="1" source="gUOv7ItEaNU2iE8fz5gL-10" target="gUOv7ItEaNU2iE8fz5gL-2">
          <mxGeometry width="50" height="50" relative="1" as="geometry">
            <mxPoint x="1210" y="298" as="sourcePoint" />
            <mxPoint x="1140" y="215" as="targetPoint" />
          </mxGeometry>
        </mxCell>
        <mxCell id="bZDrNGwHEvlOaxERh670-8" value="" style="endArrow=open;html=1;fontColor=#000099;endFill=0;dashed=1;endSize=8;exitX=0;exitY=0.5;exitDx=0;exitDy=0;rounded=0;entryX=1;entryY=0.5;entryDx=0;entryDy=0;edgeStyle=orthogonalEdgeStyle;" edge="1" parent="1" source="gUOv7ItEaNU2iE8fz5gL-11" target="gUOv7ItEaNU2iE8fz5gL-2">
          <mxGeometry width="50" height="50" relative="1" as="geometry">
            <mxPoint x="1210" y="335" as="sourcePoint" />
            <mxPoint x="1140" y="215" as="targetPoint" />
          </mxGeometry>
        </mxCell>
        <mxCell id="bZDrNGwHEvlOaxERh670-9" value="" style="endArrow=open;html=1;fontColor=#000099;endFill=0;dashed=1;endSize=8;exitX=0;exitY=0.5;exitDx=0;exitDy=0;rounded=0;entryX=1;entryY=0.5;entryDx=0;entryDy=0;edgeStyle=orthogonalEdgeStyle;" edge="1" parent="1" source="gUOv7ItEaNU2iE8fz5gL-12" target="gUOv7ItEaNU2iE8fz5gL-2">
          <mxGeometry width="50" height="50" relative="1" as="geometry">
            <mxPoint x="1210" y="375" as="sourcePoint" />
            <mxPoint x="1140" y="215" as="targetPoint" />
          </mxGeometry>
        </mxCell>
        <mxCell id="bZDrNGwHEvlOaxERh670-10" value="" style="endArrow=open;html=1;fontColor=#000099;endFill=0;dashed=1;endSize=8;exitX=0;exitY=0.5;exitDx=0;exitDy=0;rounded=0;entryX=1;entryY=0.5;entryDx=0;entryDy=0;edgeStyle=orthogonalEdgeStyle;" edge="1" parent="1" source="gUOv7ItEaNU2iE8fz5gL-6" target="gUOv7ItEaNU2iE8fz5gL-2">
          <mxGeometry width="50" height="50" relative="1" as="geometry">
            <mxPoint x="1210" y="415" as="sourcePoint" />
            <mxPoint x="1140" y="215" as="targetPoint" />
          </mxGeometry>
        </mxCell>
        <mxCell id="bZDrNGwHEvlOaxERh670-11" value="" style="endArrow=open;html=1;fontColor=#000099;endFill=0;dashed=1;endSize=8;exitX=0;exitY=0.5;exitDx=0;exitDy=0;rounded=0;entryX=1;entryY=0.5;entryDx=0;entryDy=0;edgeStyle=orthogonalEdgeStyle;" edge="1" parent="1" source="gUOv7ItEaNU2iE8fz5gL-13" target="gUOv7ItEaNU2iE8fz5gL-2">
          <mxGeometry width="50" height="50" relative="1" as="geometry">
            <mxPoint x="1210" y="455" as="sourcePoint" />
            <mxPoint x="1140" y="215" as="targetPoint" />
          </mxGeometry>
        </mxCell>
      </root>
    </mxGraphModel>
  </diagram>
  <diagram name="with-library" id="E59qFQSw2Y_P0uxNCxaE">
    <mxGraphModel dx="-20" dy="543" grid="1" gridSize="10" guides="1" tooltips="1" connect="1" arrows="1" fold="1" page="1" pageScale="1" pageWidth="850" pageHeight="1100" math="0" shadow="0">
      <root>
        <mxCell id="J2w39i7T8_5WLlNV2X51-0" />
        <mxCell id="J2w39i7T8_5WLlNV2X51-1" parent="J2w39i7T8_5WLlNV2X51-0" />
        <mxCell id="UaBO6iv7UM5JL00K18ri-1" value="yc:moduleSet" style="edgeStyle=orthogonalEdgeStyle;rounded=0;orthogonalLoop=1;jettySize=auto;html=1;exitDx=0;exitDy=0;entryX=0;entryY=0.5;entryDx=0;entryDy=0;exitX=1;exitY=0.5;" edge="1" parent="J2w39i7T8_5WLlNV2X51-1" source="UaBO6iv7UM5JL00K18ri-10" target="UaBO6iv7UM5JL00K18ri-3">
          <mxGeometry relative="1" as="geometry" />
        </mxCell>
        <mxCell id="UaBO6iv7UM5JL00K18ri-2" value="yc:importsOnlyModule" style="edgeStyle=orthogonalEdgeStyle;rounded=0;orthogonalLoop=1;jettySize=auto;html=1;exitX=0.7;exitY=1;exitDx=0;exitDy=0;entryX=0.7;entryY=0;entryDx=0;entryDy=0;" edge="1" parent="J2w39i7T8_5WLlNV2X51-1" source="UaBO6iv7UM5JL00K18ri-3" target="UaBO6iv7UM5JL00K18ri-14">
          <mxGeometry x="-0.4481" y="20" relative="1" as="geometry">
            <Array as="points" />
            <mxPoint as="offset" />
          </mxGeometry>
        </mxCell>
        <mxCell id="UaBO6iv7UM5JL00K18ri-3" value="yc:ModuleSet" style="rounded=0;whiteSpace=wrap;html=1;snapToPoint=1;points=[[0.1,0],[0.2,0],[0.3,0],[0.4,0],[0.5,0],[0.6,0],[0.7,0],[0.8,0],[0.9,0],[0,0.1],[0,0.3],[0,0.5],[0,0.7],[0,0.9],[0.1,1],[0.2,1],[0.3,1],[0.4,1],[0.5,1],[0.6,1],[0.7,1],[0.8,1],[0.9,1],[1,0.1],[1,0.3],[1,0.5],[1,0.7],[1,0.9]];fillColor=#dae8fc;strokeColor=#6c8ebf;" vertex="1" parent="J2w39i7T8_5WLlNV2X51-1">
          <mxGeometry x="1550" y="690" width="100" height="30" as="geometry" />
        </mxCell>
        <mxCell id="UaBO6iv7UM5JL00K18ri-4" value="yc:schema" style="edgeStyle=orthogonalEdgeStyle;rounded=0;orthogonalLoop=1;jettySize=auto;html=1;entryX=0;entryY=0.5;entryDx=0;entryDy=0;exitX=1;exitY=0.5;exitDx=0;exitDy=0;" edge="1" parent="J2w39i7T8_5WLlNV2X51-1" source="UaBO6iv7UM5JL00K18ri-19" target="UaBO6iv7UM5JL00K18ri-10">
          <mxGeometry relative="1" as="geometry">
            <Array as="points">
              <mxPoint x="1215" y="705" />
            </Array>
            <mxPoint x="1191.3600000000001" y="705" as="sourcePoint" />
            <mxPoint x="1530" y="543.5599999999997" as="targetPoint" />
          </mxGeometry>
        </mxCell>
        <mxCell id="UaBO6iv7UM5JL00K18ri-5" value="dcterms:title xsd:string" style="rounded=0;whiteSpace=wrap;html=1;snapToPoint=1;points=[[0.1,0],[0.2,0],[0.3,0],[0.4,0],[0.5,0],[0.6,0],[0.7,0],[0.8,0],[0.9,0],[0,0.1],[0,0.3],[0,0.5],[0,0.7],[0,0.9],[0.1,1],[0.2,1],[0.3,1],[0.4,1],[0.5,1],[0.6,1],[0.7,1],[0.8,1],[0.9,1],[1,0.1],[1,0.3],[1,0.5],[1,0.7],[1,0.9]];align=left;spacingLeft=10;dashed=1;" vertex="1" parent="J2w39i7T8_5WLlNV2X51-1">
          <mxGeometry x="1300" y="720" width="150" height="30" as="geometry" />
        </mxCell>
        <mxCell id="UaBO6iv7UM5JL00K18ri-6" value="yc:Submodule" style="rounded=0;whiteSpace=wrap;html=1;snapToPoint=1;points=[[0.1,0],[0.2,0],[0.3,0],[0.4,0],[0.5,0],[0.6,0],[0.7,0],[0.8,0],[0.9,0],[0,0.1],[0,0.3],[0,0.5],[0,0.7],[0,0.9],[0.1,1],[0.2,1],[0.3,1],[0.4,1],[0.5,1],[0.6,1],[0.7,1],[0.8,1],[0.9,1],[1,0.1],[1,0.3],[1,0.5],[1,0.7],[1,0.9]];fillColor=#dae8fc;strokeColor=#6c8ebf;" vertex="1" parent="J2w39i7T8_5WLlNV2X51-1">
          <mxGeometry x="1150" y="841.44" width="165" height="30" as="geometry" />
        </mxCell>
        <mxCell id="UaBO6iv7UM5JL00K18ri-7" value="yc:implementsModule" style="edgeStyle=orthogonalEdgeStyle;rounded=0;orthogonalLoop=1;jettySize=auto;html=1;exitX=0.2;exitY=1;exitDx=0;exitDy=0;entryX=0.3;entryY=0;entryDx=0;entryDy=0;" edge="1" parent="J2w39i7T8_5WLlNV2X51-1" source="UaBO6iv7UM5JL00K18ri-3" target="UaBO6iv7UM5JL00K18ri-14">
          <mxGeometry relative="1" as="geometry">
            <mxPoint x="1355" y="838.56" as="sourcePoint" />
            <mxPoint x="1285" y="926.56" as="targetPoint" />
            <Array as="points">
              <mxPoint x="1570" y="770" />
              <mxPoint x="1555" y="770" />
            </Array>
          </mxGeometry>
        </mxCell>
        <mxCell id="UaBO6iv7UM5JL00K18ri-8" value="yc:deviatesModule" style="edgeStyle=orthogonalEdgeStyle;rounded=0;orthogonalLoop=1;jettySize=auto;html=1;exitX=0.1;exitY=0;exitDx=0;exitDy=0;entryX=0;entryY=0.5;entryDx=0;entryDy=0;" edge="1" parent="J2w39i7T8_5WLlNV2X51-1" source="UaBO6iv7UM5JL00K18ri-14" target="UaBO6iv7UM5JL00K18ri-14">
          <mxGeometry relative="1" as="geometry">
            <Array as="points">
              <mxPoint x="1522.01" y="790" />
              <mxPoint x="1470.01" y="790" />
              <mxPoint x="1470.01" y="843" />
              <mxPoint x="1505.01" y="843" />
            </Array>
          </mxGeometry>
        </mxCell>
        <mxCell id="UaBO6iv7UM5JL00K18ri-9" value="yc:augmentsModule" style="edgeStyle=orthogonalEdgeStyle;rounded=0;orthogonalLoop=1;jettySize=auto;html=1;exitX=0.9;exitY=0;exitDx=0;exitDy=0;entryX=1;entryY=0.5;entryDx=0;entryDy=0;" edge="1" parent="J2w39i7T8_5WLlNV2X51-1" source="UaBO6iv7UM5JL00K18ri-14" target="UaBO6iv7UM5JL00K18ri-14">
          <mxGeometry x="0.0548" relative="1" as="geometry">
            <Array as="points">
              <mxPoint x="1654" y="790" />
              <mxPoint x="1710" y="790" />
              <mxPoint x="1710" y="843" />
            </Array>
            <mxPoint as="offset" />
          </mxGeometry>
        </mxCell>
        <mxCell id="UaBO6iv7UM5JL00K18ri-10" value="yc:Schema" style="rounded=0;whiteSpace=wrap;html=1;snapToPoint=1;points=[[0.1,0],[0.2,0],[0.3,0],[0.4,0],[0.5,0],[0.6,0],[0.7,0],[0.8,0],[0.9,0],[0,0.1],[0,0.3],[0,0.5],[0,0.7],[0,0.9],[0.1,1],[0.2,1],[0.3,1],[0.4,1],[0.5,1],[0.6,1],[0.7,1],[0.8,1],[0.9,1],[1,0.1],[1,0.3],[1,0.5],[1,0.7],[1,0.9]];fillColor=#dae8fc;strokeColor=#6c8ebf;" vertex="1" parent="J2w39i7T8_5WLlNV2X51-1">
          <mxGeometry x="1300" y="690" width="150" height="30" as="geometry" />
        </mxCell>
        <mxCell id="UaBO6iv7UM5JL00K18ri-11" value="dcterms:title xsd:string&lt;div&gt;&lt;div&gt;yc:revisionDate xs:date&lt;/div&gt;&lt;/div&gt;&lt;div&gt;yc:location xsd:anyURI&lt;/div&gt;" style="rounded=0;whiteSpace=wrap;html=1;snapToPoint=1;points=[[0.1,0],[0.2,0],[0.3,0],[0.4,0],[0.5,0],[0.6,0],[0.7,0],[0.8,0],[0.9,0],[0,0.1],[0,0.3],[0,0.5],[0,0.7],[0,0.9],[0.1,1],[0.2,1],[0.3,1],[0.4,1],[0.5,1],[0.6,1],[0.7,1],[0.8,1],[0.9,1],[1,0.1],[1,0.3],[1,0.5],[1,0.7],[1,0.9]];align=left;spacingLeft=10;dashed=1;" vertex="1" parent="J2w39i7T8_5WLlNV2X51-1">
          <mxGeometry x="1505.01" y="890" width="165" height="60" as="geometry" />
        </mxCell>
        <mxCell id="UaBO6iv7UM5JL00K18ri-12" value="&lt;div&gt;&lt;span style=&quot;background-color: initial;&quot;&gt;yc:namespace xsd:anyURI&lt;/span&gt;&lt;/div&gt;" style="rounded=0;whiteSpace=wrap;html=1;snapToPoint=1;points=[[0.1,0],[0.2,0],[0.3,0],[0.4,0],[0.5,0],[0.6,0],[0.7,0],[0.8,0],[0.9,0],[0,0.1],[0,0.3],[0,0.5],[0,0.7],[0,0.9],[0.1,1],[0.2,1],[0.3,1],[0.4,1],[0.5,1],[0.6,1],[0.7,1],[0.8,1],[0.9,1],[1,0.1],[1,0.3],[1,0.5],[1,0.7],[1,0.9]];align=left;spacingLeft=10;" vertex="1" parent="J2w39i7T8_5WLlNV2X51-1">
          <mxGeometry x="1505.01" y="858.22" width="165" height="31.78" as="geometry" />
        </mxCell>
        <mxCell id="UaBO6iv7UM5JL00K18ri-13" value="yc:includesSubmodule" style="edgeStyle=orthogonalEdgeStyle;rounded=0;orthogonalLoop=1;jettySize=auto;html=1;exitX=0;exitY=0.726;exitDx=0;exitDy=0;entryX=1;entryY=0.5;entryDx=0;entryDy=0;exitPerimeter=0;" edge="1" parent="J2w39i7T8_5WLlNV2X51-1" source="UaBO6iv7UM5JL00K18ri-14" target="UaBO6iv7UM5JL00K18ri-6">
          <mxGeometry relative="1" as="geometry" />
        </mxCell>
        <mxCell id="UaBO6iv7UM5JL00K18ri-14" value="yc:Module" style="rounded=0;whiteSpace=wrap;html=1;snapToPoint=1;points=[[0.1,0],[0.2,0],[0.3,0],[0.4,0],[0.5,0],[0.6,0],[0.7,0],[0.8,0],[0.9,0],[0,0.1],[0,0.3],[0,0.5],[0,0.7],[0,0.9],[0.1,1],[0.2,1],[0.3,1],[0.4,1],[0.5,1],[0.6,1],[0.7,1],[0.8,1],[0.9,1],[1,0.1],[1,0.3],[1,0.5],[1,0.7],[1,0.9]];fillColor=#dae8fc;strokeColor=#6c8ebf;" vertex="1" parent="J2w39i7T8_5WLlNV2X51-1">
          <mxGeometry x="1505.01" y="828.22" width="165" height="30" as="geometry" />
        </mxCell>
        <mxCell id="UaBO6iv7UM5JL00K18ri-15" value="dcterms:title xsd:string&lt;div&gt;&lt;div&gt;yc:revisionDate xs:date&lt;/div&gt;&lt;/div&gt;&lt;div&gt;yc:location xsd:anyURI&lt;/div&gt;" style="rounded=0;whiteSpace=wrap;html=1;snapToPoint=1;points=[[0.1,0],[0.2,0],[0.3,0],[0.4,0],[0.5,0],[0.6,0],[0.7,0],[0.8,0],[0.9,0],[0,0.1],[0,0.3],[0,0.5],[0,0.7],[0,0.9],[0.1,1],[0.2,1],[0.3,1],[0.4,1],[0.5,1],[0.6,1],[0.7,1],[0.8,1],[0.9,1],[1,0.1],[1,0.3],[1,0.5],[1,0.7],[1,0.9]];align=left;spacingLeft=10;dashed=1;" vertex="1" parent="J2w39i7T8_5WLlNV2X51-1">
          <mxGeometry x="1150" y="871.44" width="165" height="60" as="geometry" />
        </mxCell>
        <mxCell id="UaBO6iv7UM5JL00K18ri-18" value="ys:datastore" style="edgeStyle=orthogonalEdgeStyle;rounded=0;orthogonalLoop=1;jettySize=auto;html=1;exitX=0.5;exitY=0;exitDx=0;exitDy=0;entryX=0.5;entryY=1;entryDx=0;entryDy=0;" edge="1" parent="J2w39i7T8_5WLlNV2X51-1" source="UaBO6iv7UM5JL00K18ri-17" target="UaBO6iv7UM5JL00K18ri-19">
          <mxGeometry relative="1" as="geometry">
            <mxPoint x="1135.6799999999998" y="720" as="targetPoint" />
          </mxGeometry>
        </mxCell>
        <mxCell id="UaBO6iv7UM5JL00K18ri-17" value="ys:YangServer" style="rounded=0;whiteSpace=wrap;html=1;snapToPoint=1;points=[[0.1,0],[0.2,0],[0.3,0],[0.4,0],[0.5,0],[0.6,0],[0.7,0],[0.8,0],[0.9,0],[0,0.1],[0,0.3],[0,0.5],[0,0.7],[0,0.9],[0.1,1],[0.2,1],[0.3,1],[0.4,1],[0.5,1],[0.6,1],[0.7,1],[0.8,1],[0.9,1],[1,0.1],[1,0.3],[1,0.5],[1,0.7],[1,0.9]];fillColor=#d5e8d4;strokeColor=#82b366;" vertex="1" parent="J2w39i7T8_5WLlNV2X51-1">
          <mxGeometry x="1065" y="770" width="110" height="30" as="geometry" />
        </mxCell>
        <mxCell id="UaBO6iv7UM5JL00K18ri-21" value="ys:moduleSet" style="edgeStyle=orthogonalEdgeStyle;rounded=0;orthogonalLoop=1;jettySize=auto;html=1;exitX=0.5;exitY=0;exitDx=0;exitDy=0;entryX=0.5;entryY=0;entryDx=0;entryDy=0;" edge="1" parent="J2w39i7T8_5WLlNV2X51-1" source="UaBO6iv7UM5JL00K18ri-19" target="UaBO6iv7UM5JL00K18ri-3">
          <mxGeometry relative="1" as="geometry">
            <Array as="points">
              <mxPoint x="1120" y="660" />
              <mxPoint x="1600" y="660" />
            </Array>
          </mxGeometry>
        </mxCell>
        <mxCell id="UaBO6iv7UM5JL00K18ri-19" value="ys:Datastore" style="rounded=0;whiteSpace=wrap;html=1;snapToPoint=1;points=[[0.1,0],[0.2,0],[0.3,0],[0.4,0],[0.5,0],[0.6,0],[0.7,0],[0.8,0],[0.9,0],[0,0.1],[0,0.3],[0,0.5],[0,0.7],[0,0.9],[0.1,1],[0.2,1],[0.3,1],[0.4,1],[0.5,1],[0.6,1],[0.7,1],[0.8,1],[0.9,1],[1,0.1],[1,0.3],[1,0.5],[1,0.7],[1,0.9]];fillColor=#d5e8d4;strokeColor=#82b366;" vertex="1" parent="J2w39i7T8_5WLlNV2X51-1">
          <mxGeometry x="1060" y="690" width="120" height="30" as="geometry" />
        </mxCell>
      </root>
    </mxGraphModel>
  </diagram>
</mxfile>
